<?xml version="1.0" encoding="UTF-8" standalone="no"?>
<!-- Created with Inkscape (http://www.inkscape.org/) -->

<svg
   width="29.70002cm"
   height="21cm"
   viewBox="0 0 297.0002 210"
   version="1.1"
   id="svg5"
   inkscape:version="1.2.2 (732a01da63, 2022-12-09)"
   sodipodi:docname="pg1.svg"
   xml:space="preserve"
   inkscape:export-filename="bloco A.png"
   inkscape:export-xdpi="150"
   inkscape:export-ydpi="150"
   xmlns:inkscape="http://www.inkscape.org/namespaces/inkscape"
   xmlns:sodipodi="http://sodipodi.sourceforge.net/DTD/sodipodi-0.dtd"
   xmlns="http://www.w3.org/2000/svg"
   xmlns:svg="http://www.w3.org/2000/svg"><sodipodi:namedview
     id="namedview7"
     pagecolor="#ffffff"
     bordercolor="#000000"
     borderopacity="0.25"
     inkscape:showpageshadow="2"
     inkscape:pageopacity="0.0"
     inkscape:pagecheckerboard="0"
     inkscape:deskcolor="#d1d1d1"
     inkscape:document-units="mm"
     showgrid="false"
     inkscape:zoom="0.5127877"
     inkscape:cx="1110.5961"
     inkscape:cy="538.23444"
     inkscape:window-width="1920"
     inkscape:window-height="1017"
     inkscape:window-x="-8"
     inkscape:window-y="-8"
     inkscape:window-maximized="1"
     inkscape:current-layer="layer1"
     showguides="true" /><defs
     id="defs2"><clipPath
       id="clipPath20"
       clipPathUnits="userSpaceOnUse"><path
         id="path18"
         d="M 0,0 H 20248 V 20248 H 0 Z" /></clipPath><clipPath
       id="clipPath26"
       clipPathUnits="userSpaceOnUse"><path
         id="path24"
         d="M 20248.5,0 H 0 V 20248.5 H 20248.5 V 0 M 10124.2,2843.2 c -3967.38,0 -7183.59,-287 -7183.59,-640.9 0,-354 3216.21,-641 7183.59,-641 3967.4,0 7183.6,287 7183.6,641 0,353.9 -3216.2,640.9 -7183.6,640.9" /></clipPath><radialGradient
       id="radialGradient36"
       spreadMethod="pad"
       gradientTransform="matrix(17159.2,0,0,-17159.2,10241.9,10124.3)"
       gradientUnits="userSpaceOnUse"
       r="1"
       cy="0"
       cx="0"
       fy="0"
       fx="0"><stop
         id="stop30"
         offset="0"
         style="stop-opacity:1;stop-color:#ffffff" /><stop
         id="stop32"
         offset="0.73812461"
         style="stop-opacity:1;stop-color:#ffffff" /><stop
         id="stop34"
         offset="1"
         style="stop-opacity:1;stop-color:#a7a9ac" /></radialGradient><clipPath
       id="clipPath46"
       clipPathUnits="userSpaceOnUse"><path
         id="path44"
         d="m 10124.2,1561.3 c -3967.38,0 -7183.59,287 -7183.59,641 0,353.9 3216.21,640.9 7183.59,640.9 3967.4,0 7183.6,-287 7183.6,-640.9 0,-354 -3216.2,-641 -7183.6,-641" /></clipPath><clipPath
       id="clipPath26-1"
       clipPathUnits="userSpaceOnUse"><path
         id="path24-3"
         d="M 20248.5,0 H 0 V 20248.5 H 20248.5 V 0 M 10124.2,2843.2 c -3967.38,0 -7183.59,-287 -7183.59,-640.9 0,-354 3216.21,-641 7183.59,-641 3967.4,0 7183.6,287 7183.6,641 0,353.9 -3216.2,640.9 -7183.6,640.9" /></clipPath><radialGradient
       id="radialGradient36-4"
       spreadMethod="pad"
       gradientTransform="matrix(751.9575,0,0,751.9575,352.6177,-7.2317856)"
       gradientUnits="userSpaceOnUse"
       r="1"
       cy="0"
       cx="0"
       fy="0"
       fx="0"><stop
         id="stop30-8"
         offset="0"
         style="stop-opacity:1;stop-color:#ffffff" /><stop
         id="stop32-1"
         offset="0.73812461"
         style="stop-opacity:1;stop-color:#ffffff" /><stop
         id="stop34-1"
         offset="1"
         style="stop-opacity:1;stop-color:#a7a9ac" /></radialGradient><clipPath
       clipPathUnits="userSpaceOnUse"
       id="clipPath2478"><g
         id="g2484"><g
           id="g2482"><path
             id="path2480"
             d="m 260.95226,381.36024 c -139.96035,0 -253.4211034,-10.12472 -253.4211034,-22.61305 0,-12.48481 113.4607534,-22.60953 253.4211034,-22.60953 139.96107,0 253.42146,10.12472 253.42146,22.60953 0,12.48833 -113.46039,22.61305 -253.42146,22.61305"
             style="stroke-width:0.0352778" /></g></g></clipPath><clipPath
       clipPathUnits="userSpaceOnUse"
       id="clipPath2495"><g
         id="g2503"><g
           id="g2501"><g
             id="g2499"><path
               id="path2497"
               d="M -96.207036,436.43944 H 618.09745 V -277.86505 H -96.207036 Z"
               style="stroke-width:0.0352778" /></g></g></g></clipPath></defs><g
     inkscape:label="Camada 1"
     inkscape:groupmode="layer"
     id="layer1"
     transform="matrix(0.37426414,0,0,0.37426414,23.453891,14.844465)"><g
       id="g26128"
       inkscape:label="mapa"
       style="display:inline"
       transform="translate(-771.38743,-81.936251)"><path
         style="display:inline;fill:#e7e7e7;fill-opacity:1;stroke:#c9c9c9;stroke-width:10.6603;stroke-linecap:round;stroke-linejoin:round;stroke-dasharray:none;stroke-opacity:1"
         d="M 816.65606,407.75024 1060.5506,174.12659 h 220.7928 l 29.774,259.83354 h -97.4314 l -199.4609,142.02771 -121.41663,0.30973 z"
         id="path20668"
         inkscape:label="BG"
         sodipodi:nodetypes="cccccccc"
         transform="translate(-1.1128759e-6)" /><g
         id="g19866"
         style="display:inline;fill:#8cbf98;fill-opacity:1;stroke:none;stroke-width:0.999294;stroke-dasharray:none"
         transform="matrix(1.965249,0,0,1.965249,-1004.4705,-289.88361)"
         inkscape:label="mato"><path
           style="fill:#8cbf98;fill-opacity:1;stroke:none;stroke-width:0.999294;stroke-linecap:round;stroke-linejoin:round;stroke-dasharray:none;stroke-opacity:1"
           d="m 1005.9537,417.68853 0.25,6.11326 h 28.0073 l 8.4538,-5.86332 z"
           id="path19832"
           sodipodi:nodetypes="ccccc"
           inkscape:label="path19832" /><path
           style="display:inline;fill:#8cbf98;fill-opacity:1;stroke:none;stroke-width:0.999294;stroke-linecap:round;stroke-linejoin:round;stroke-dasharray:none;stroke-opacity:1"
           d="m 1029.1983,403.79519 h 31.3335 l 53.4342,-37.84466 h -49.5258 v 26.99374 h -35.2419 z"
           id="path19842"
           sodipodi:nodetypes="ccccccc" /><path
           style="fill:#8cbf98;fill-opacity:1;stroke:none;stroke-width:0.999294;stroke-linecap:round;stroke-linejoin:round;stroke-dasharray:none;stroke-opacity:1"
           d="m 937.71957,353.30153 55.48713,-53.48759 8.2481,8.24809 -16.74613,12.4971 -34.99188,32.7424 z"
           id="path19846"
           sodipodi:nodetypes="cccccc" /><path
           style="fill:#8cbf98;fill-opacity:1;stroke:none;stroke-width:0.999294;stroke-linecap:round;stroke-linejoin:round;stroke-dasharray:none;stroke-opacity:1"
           d="m 986.20832,403.79519 h 11.24739 v -10.85092 h -14.74658 z"
           id="path19848"
           sodipodi:nodetypes="ccccc" /><path
           style="fill:#8cbf98;fill-opacity:1;stroke:none;stroke-width:0.999294;stroke-linecap:round;stroke-linejoin:round;stroke-dasharray:none;stroke-opacity:1"
           d="m 1005.8253,287.6648 45.6414,-43.92215 16.2835,12.84508 16.6853,9.26597 -14.9965,14.16093 15.9786,16.48147 -15.2288,15.51111 h -39.2261 z"
           id="path19850"
           sodipodi:nodetypes="ccccccccc" /><path
           style="fill:#8cbf98;fill-opacity:1;stroke:none;stroke-width:0.999294;stroke-linecap:round;stroke-linejoin:round;stroke-dasharray:none;stroke-opacity:1"
           d="m 1121.8425,297.26064 18.7158,-13.8056 -25.2211,-33.36042 -8.748,6.5235 -12.9058,-13.34497 h 62.9854 l 6.2485,53.98749 z"
           id="path19852"
           sodipodi:nodetypes="cccccccc" /></g><g
         id="g20664"
         inkscape:label="blocos"
         transform="matrix(1.965249,0,0,1.965249,-1004.4705,-289.88361)"
         style="stroke-width:1.94828;stroke-dasharray:none"><rect
           style="display:inline;fill:#c9c9c9;fill-opacity:1;stroke:#ffffff;stroke-width:1.94828;stroke-linecap:round;stroke-linejoin:round;stroke-dasharray:none;stroke-opacity:1"
           id="rect22405"
           width="42.447166"
           height="31.29579"
           x="1005.8423"
           y="379.09256"
           inkscape:label="quadra" /><rect
           style="display:inline;fill:#c9c9c9;fill-opacity:1;stroke:#ffffff;stroke-width:3.82909;stroke-linecap:round;stroke-linejoin:round;stroke-dasharray:none;stroke-opacity:1"
           id="rect18541"
           width="87.240265"
           height="46.820164"
           x="414.30209"
           y="887.18597"
           transform="matrix(0.36759461,-0.35184336,0.34593889,0.37315659,511.11615,147.50477)"
           inkscape:label="biblioteca" /><g
           id="g25148"
           inkscape:label="bloco a"
           transform="matrix(1.0550445,0,0,1.0550445,-62.629169,-16.386221)"><rect
             style="display:inline;fill:#c9c9c9;fill-opacity:1;stroke:#ffffff;stroke-width:1.94828;stroke-linecap:round;stroke-linejoin:round;stroke-dasharray:none;stroke-opacity:1"
             id="rect17370"
             width="103.21365"
             height="28.277712"
             x="1030.9364"
             y="323.63641"
             inkscape:label="bloco a"
             transform="translate(1.7369329e-5)" /><rect
             style="fill:#c9c9c9;fill-opacity:1;stroke:#ffffff;stroke-width:1.94828;stroke-linecap:round;stroke-linejoin:round;stroke-dasharray:none;stroke-opacity:1"
             id="rect18528"
             width="21.738491"
             height="33.579781"
             x="1040.5685"
             y="321.33884"
             inkscape:label="torre 1" /><rect
             style="fill:#c9c9c9;fill-opacity:1;stroke:#ffffff;stroke-width:1.94828;stroke-linecap:round;stroke-linejoin:round;stroke-dasharray:none;stroke-opacity:1"
             id="rect18530"
             width="21.738491"
             height="33.579781"
             x="1071.674"
             y="321.33884"
             inkscape:label="torre 2" /><rect
             style="fill:#c9c9c9;fill-opacity:1;stroke:#ffffff;stroke-width:1.94828;stroke-linecap:round;stroke-linejoin:round;stroke-dasharray:none;stroke-opacity:1"
             id="rect18532"
             width="21.738491"
             height="33.579781"
             x="1102.7794"
             y="321.33884"
             inkscape:label="torre 3" /></g><rect
           style="fill:#c9c9c9;fill-opacity:1;stroke:#ffffff;stroke-width:2.05552;stroke-linecap:round;stroke-linejoin:round;stroke-dasharray:none;stroke-opacity:1"
           id="rect18534"
           width="22.935076"
           height="35.428162"
           x="1141.4081"
           y="322.64053"
           inkscape:label="bloco b" /><rect
           style="fill:#c9c9c9;fill-opacity:1;stroke:#ffffff;stroke-width:2.10015;stroke-linecap:round;stroke-linejoin:round;stroke-dasharray:none;stroke-opacity:1"
           id="rect19754"
           width="22.548481"
           height="23.760891"
           x="716.1109"
           y="874.86304"
           transform="rotate(-36.542008)"
           inkscape:label="RU" /><g
           id="g25141"
           inkscape:label="Bloco L"
           transform="matrix(1.0779485,0,0,1.0779485,-88.047143,-7.6123247)"><rect
             style="fill:#c9c9c9;fill-opacity:1;stroke:#ffffff;stroke-width:1.94828;stroke-linecap:round;stroke-linejoin:round;stroke-dasharray:none;stroke-opacity:1"
             id="rect19756"
             width="13.871782"
             height="13.746811"
             x="1060.1912"
             y="237.07851" /><rect
             style="fill:#c9c9c9;fill-opacity:1;stroke:#ffffff;stroke-width:1.94828;stroke-linecap:round;stroke-linejoin:round;stroke-dasharray:none;stroke-opacity:1"
             id="rect19758"
             width="22.744724"
             height="13.121957"
             x="552.93835"
             y="917.68408"
             transform="rotate(-45)" /><rect
             style="fill:#c9c9c9;fill-opacity:1;stroke:#ffffff;stroke-width:1.94828;stroke-linecap:round;stroke-linejoin:round;stroke-dasharray:none;stroke-opacity:1"
             id="rect19760"
             width="22.744724"
             height="13.121957"
             x="-955.61279"
             y="-590.86707"
             transform="matrix(-0.70710678,-0.70710678,-0.70710678,0.70710678,0,0)" /></g><rect
           style="fill:#c9c9c9;fill-opacity:1;stroke:#ffffff;stroke-width:1.94828;stroke-linecap:round;stroke-linejoin:round;stroke-dasharray:none;stroke-opacity:1"
           id="rect19765"
           width="8.4980288"
           height="18.745651"
           x="1125.6948"
           y="379.21909"
           transform="rotate(-4.6386121)"
           inkscape:label="seila" /><rect
           style="display:inline;fill:#7171ff;fill-opacity:1;stroke:none;stroke-width:2.65297;stroke-linecap:round;stroke-linejoin:round;stroke-dasharray:none;stroke-opacity:1"
           id="rect25004"
           width="9.7966776"
           height="11.511095"
           x="965.91309"
           y="366.14258"
           inkscape:label="relogio" /></g><g
         id="g15694"
         inkscape:label="impressoras"
         transform="matrix(2.0477076,0,0,2.0477076,-5279.2346,38.530635)"
         style="display:inline;stroke-width:1.87034;stroke-dasharray:none"><g
           id="g25546"
           style="display:inline;stroke-width:1.94828;stroke-dasharray:none"
           transform="matrix(0.95973125,0,0,0.95973125,1929.9854,-159.00048)"
           inkscape:label="bloco C"><g
             id="g25528"
             inkscape:label="impressora a4"
             transform="matrix(0.50884136,0,0,0.50884136,-436.83255,344.61048)"
             style="display:inline;stroke-width:1.87034;stroke-dasharray:none"><g
               id="g25520"
               transform="matrix(0.81313759,0,0,0.81313759,2642.7825,-158.0266)"
               style="display:inline;fill:#3f3f3f;fill-opacity:1"><path
                 id="path25514"
                 style="fill:#3f3f3f;fill-opacity:1;fill-rule:nonzero;stroke:none;stroke-width:0.00171783"
                 d="m 623.34582,123.64273 c -1.12516,0 -2.03737,0.91217 -2.03737,2.03734 v 8.46456 c 0,1.12559 0.91221,2.03768 2.03737,2.03768 h 2.55288 v -5.8486 h 14.21595 v 5.8486 h 2.5613 c 1.12501,0 2.03768,-0.91209 2.03768,-2.03768 v -8.46456 c 0,-1.12517 -0.91267,-2.03734 -2.03768,-2.03734 z m 17.17693,2.5663 c 0.57873,0 1.04783,0.4691 1.04783,1.04766 0,0.57857 -0.4691,1.04767 -1.04783,1.04767 -0.57856,0 -1.04767,-0.4691 -1.04767,-1.04767 0,-0.57856 0.46911,-1.04766 1.04767,-1.04766 z" /><path
                 id="path25516"
                 style="fill:#3f3f3f;fill-opacity:1;fill-rule:nonzero;stroke:none;stroke-width:0.00176669"
                 d="m 625.90323,123.58781 h 14.21574 v -5.22092 c 0,-0.55828 -0.45263,-1.0109 -1.0109,-1.0109 h -12.1939 c -0.55833,0 -1.01094,0.45262 -1.01094,1.0109 z m 15.23494,1.01938 h -16.2542 v -6.45266 c 0,-1.00383 0.81386,-1.81775 1.81784,-1.81775 h 12.61861 c 1.00401,0 1.81775,0.81392 1.81775,1.81775 v 6.45266" /><path
                 id="path25518"
                 style="fill:#3f3f3f;fill-opacity:1;fill-rule:nonzero;stroke:none;stroke-width:0.00160981"
                 d="m 640.11918,138.3821 c 0,0.42193 -0.34225,0.7637 -0.76386,0.7637 H 626.6668 c -0.42153,0 -0.76372,-0.34177 -0.76372,-0.7637 v -7.35395 h 14.2161 z m -15.23535,-8.37312 v 8.49466 c 0,0.91776 0.74406,1.66149 1.66175,1.66149 h 12.93096 c 0.91776,0 1.66181,-0.74373 1.66181,-1.66149 v -8.49466 h -16.25452" /></g><text
               xml:space="preserve"
               style="font-style:normal;font-variant:normal;font-weight:normal;font-stretch:normal;font-size:8.53825px;font-family:'Humanst521 BT';-inkscape-font-specification:'Humanst521 BT';display:inline;fill:#3f3f3f;fill-opacity:1;stroke:none;stroke-width:3.79992;stroke-linecap:round;stroke-linejoin:miter;stroke-dasharray:none;stroke-opacity:1;paint-order:fill markers stroke"
               x="3134.9712"
               y="-56.337879"
               id="text25526"><tspan
                 sodipodi:role="line"
                 id="tspan25522"
                 style="font-size:8.53825px;fill:#3f3f3f;fill-opacity:1;stroke:none;stroke-width:3.79992"
                 x="3134.9712"
                 y="-56.337879">PB</tspan><tspan
                 sodipodi:role="line"
                 style="font-size:8.53825px;fill:#3f3f3f;fill-opacity:1;stroke:none;stroke-width:3.79992"
                 x="3134.9712"
                 y="-45.665066"
                 id="tspan25524">A4</tspan></text></g><g
             id="g25544"
             inkscape:label="impressora a4"
             transform="matrix(0.50884136,0,0,0.50884136,-451.2214,358.2799)"
             style="display:inline;stroke-width:1.87034;stroke-dasharray:none"><g
               id="g25536"
               transform="matrix(0.81313759,0,0,0.81313759,2642.7825,-158.0266)"
               style="display:inline;fill:#3f3f3f;fill-opacity:1"><path
                 id="path25530"
                 style="fill:#3f3f3f;fill-opacity:1;fill-rule:nonzero;stroke:none;stroke-width:0.00171783"
                 d="m 623.34582,123.64273 c -1.12516,0 -2.03737,0.91217 -2.03737,2.03734 v 8.46456 c 0,1.12559 0.91221,2.03768 2.03737,2.03768 h 2.55288 v -5.8486 h 14.21595 v 5.8486 h 2.5613 c 1.12501,0 2.03768,-0.91209 2.03768,-2.03768 v -8.46456 c 0,-1.12517 -0.91267,-2.03734 -2.03768,-2.03734 z m 17.17693,2.5663 c 0.57873,0 1.04783,0.4691 1.04783,1.04766 0,0.57857 -0.4691,1.04767 -1.04783,1.04767 -0.57856,0 -1.04767,-0.4691 -1.04767,-1.04767 0,-0.57856 0.46911,-1.04766 1.04767,-1.04766 z" /><path
                 id="path25532"
                 style="fill:#3f3f3f;fill-opacity:1;fill-rule:nonzero;stroke:none;stroke-width:0.00176669"
                 d="m 625.90323,123.58781 h 14.21574 v -5.22092 c 0,-0.55828 -0.45263,-1.0109 -1.0109,-1.0109 h -12.1939 c -0.55833,0 -1.01094,0.45262 -1.01094,1.0109 z m 15.23494,1.01938 h -16.2542 v -6.45266 c 0,-1.00383 0.81386,-1.81775 1.81784,-1.81775 h 12.61861 c 1.00401,0 1.81775,0.81392 1.81775,1.81775 v 6.45266" /><path
                 id="path25534"
                 style="fill:#3f3f3f;fill-opacity:1;fill-rule:nonzero;stroke:none;stroke-width:0.00160981"
                 d="m 640.11918,138.3821 c 0,0.42193 -0.34225,0.7637 -0.76386,0.7637 H 626.6668 c -0.42153,0 -0.76372,-0.34177 -0.76372,-0.7637 v -7.35395 h 14.2161 z m -15.23535,-8.37312 v 8.49466 c 0,0.91776 0.74406,1.66149 1.66175,1.66149 h 12.93096 c 0.91776,0 1.66181,-0.74373 1.66181,-1.66149 v -8.49466 h -16.25452" /></g><text
               xml:space="preserve"
               style="font-style:normal;font-variant:normal;font-weight:normal;font-stretch:normal;font-size:8.53825px;font-family:'Humanst521 BT';-inkscape-font-specification:'Humanst521 BT';display:inline;fill:#3f3f3f;fill-opacity:1;stroke:none;stroke-width:3.79992;stroke-linecap:round;stroke-linejoin:miter;stroke-dasharray:none;stroke-opacity:1;paint-order:fill markers stroke"
               x="3134.9712"
               y="-56.337879"
               id="text25542"><tspan
                 sodipodi:role="line"
                 id="tspan25538"
                 style="font-size:8.53825px;fill:#3f3f3f;fill-opacity:1;stroke:none;stroke-width:3.79992"
                 x="3134.9712"
                 y="-56.337879">PB</tspan><tspan
                 sodipodi:role="line"
                 style="font-size:8.53825px;fill:#3f3f3f;fill-opacity:1;stroke:none;stroke-width:3.79992"
                 x="3134.9712"
                 y="-45.665066"
                 id="tspan25540">A4</tspan></text></g></g><g
           id="g25495"
           style="display:inline;stroke-width:1.94828;stroke-dasharray:none"
           transform="matrix(0.95973125,0,0,0.95973125,2088.3405,-158.24515)"
           inkscape:label="bloco B"><g
             id="g25415"
             inkscape:label="impressora a4"
             transform="matrix(0.50884136,0,0,0.50884136,-451.22141,372.66876)"
             style="display:inline;stroke-width:1.87034;stroke-dasharray:none"><g
               id="g25407"
               transform="matrix(0.81313759,0,0,0.81313759,2642.7825,-158.0266)"
               style="display:inline;fill:#3f3f3f;fill-opacity:1"><path
                 id="path25401"
                 style="fill:#3f3f3f;fill-opacity:1;fill-rule:nonzero;stroke:none;stroke-width:0.00171783"
                 d="m 623.34582,123.64273 c -1.12516,0 -2.03737,0.91217 -2.03737,2.03734 v 8.46456 c 0,1.12559 0.91221,2.03768 2.03737,2.03768 h 2.55288 v -5.8486 h 14.21595 v 5.8486 h 2.5613 c 1.12501,0 2.03768,-0.91209 2.03768,-2.03768 v -8.46456 c 0,-1.12517 -0.91267,-2.03734 -2.03768,-2.03734 z m 17.17693,2.5663 c 0.57873,0 1.04783,0.4691 1.04783,1.04766 0,0.57857 -0.4691,1.04767 -1.04783,1.04767 -0.57856,0 -1.04767,-0.4691 -1.04767,-1.04767 0,-0.57856 0.46911,-1.04766 1.04767,-1.04766 z" /><path
                 id="path25403"
                 style="fill:#3f3f3f;fill-opacity:1;fill-rule:nonzero;stroke:none;stroke-width:0.00176669"
                 d="m 625.90323,123.58781 h 14.21574 v -5.22092 c 0,-0.55828 -0.45263,-1.0109 -1.0109,-1.0109 h -12.1939 c -0.55833,0 -1.01094,0.45262 -1.01094,1.0109 z m 15.23494,1.01938 h -16.2542 v -6.45266 c 0,-1.00383 0.81386,-1.81775 1.81784,-1.81775 h 12.61861 c 1.00401,0 1.81775,0.81392 1.81775,1.81775 v 6.45266" /><path
                 id="path25405"
                 style="fill:#3f3f3f;fill-opacity:1;fill-rule:nonzero;stroke:none;stroke-width:0.00160981"
                 d="m 640.11918,138.3821 c 0,0.42193 -0.34225,0.7637 -0.76386,0.7637 H 626.6668 c -0.42153,0 -0.76372,-0.34177 -0.76372,-0.7637 v -7.35395 h 14.2161 z m -15.23535,-8.37312 v 8.49466 c 0,0.91776 0.74406,1.66149 1.66175,1.66149 h 12.93096 c 0.91776,0 1.66181,-0.74373 1.66181,-1.66149 v -8.49466 h -16.25452" /></g><text
               xml:space="preserve"
               style="font-style:normal;font-variant:normal;font-weight:normal;font-stretch:normal;font-size:8.53825px;font-family:'Humanst521 BT';-inkscape-font-specification:'Humanst521 BT';display:inline;fill:#3f3f3f;fill-opacity:1;stroke:none;stroke-width:3.79992;stroke-linecap:round;stroke-linejoin:miter;stroke-dasharray:none;stroke-opacity:1;paint-order:fill markers stroke"
               x="3134.9712"
               y="-56.337879"
               id="text25413"><tspan
                 sodipodi:role="line"
                 id="tspan25409"
                 style="font-size:8.53825px;fill:#3f3f3f;fill-opacity:1;stroke:none;stroke-width:3.79992"
                 x="3134.9712"
                 y="-56.337879">PB</tspan><tspan
                 sodipodi:role="line"
                 style="font-size:8.53825px;fill:#3f3f3f;fill-opacity:1;stroke:none;stroke-width:3.79992"
                 x="3134.9712"
                 y="-45.665066"
                 id="tspan25411">A4</tspan></text></g><g
             id="g25383"
             inkscape:label="impressora a4"
             transform="matrix(0.50884136,0,0,0.50884136,-451.2214,358.2799)"
             style="display:inline;stroke-width:1.87034;stroke-dasharray:none"><g
               id="g25375"
               transform="matrix(0.81313759,0,0,0.81313759,2642.7825,-158.0266)"
               style="display:inline;fill:#3f3f3f;fill-opacity:1"><path
                 id="path25369"
                 style="fill:#3f3f3f;fill-opacity:1;fill-rule:nonzero;stroke:none;stroke-width:0.00171783"
                 d="m 623.34582,123.64273 c -1.12516,0 -2.03737,0.91217 -2.03737,2.03734 v 8.46456 c 0,1.12559 0.91221,2.03768 2.03737,2.03768 h 2.55288 v -5.8486 h 14.21595 v 5.8486 h 2.5613 c 1.12501,0 2.03768,-0.91209 2.03768,-2.03768 v -8.46456 c 0,-1.12517 -0.91267,-2.03734 -2.03768,-2.03734 z m 17.17693,2.5663 c 0.57873,0 1.04783,0.4691 1.04783,1.04766 0,0.57857 -0.4691,1.04767 -1.04783,1.04767 -0.57856,0 -1.04767,-0.4691 -1.04767,-1.04767 0,-0.57856 0.46911,-1.04766 1.04767,-1.04766 z" /><path
                 id="path25371"
                 style="fill:#3f3f3f;fill-opacity:1;fill-rule:nonzero;stroke:none;stroke-width:0.00176669"
                 d="m 625.90323,123.58781 h 14.21574 v -5.22092 c 0,-0.55828 -0.45263,-1.0109 -1.0109,-1.0109 h -12.1939 c -0.55833,0 -1.01094,0.45262 -1.01094,1.0109 z m 15.23494,1.01938 h -16.2542 v -6.45266 c 0,-1.00383 0.81386,-1.81775 1.81784,-1.81775 h 12.61861 c 1.00401,0 1.81775,0.81392 1.81775,1.81775 v 6.45266" /><path
                 id="path25373"
                 style="fill:#3f3f3f;fill-opacity:1;fill-rule:nonzero;stroke:none;stroke-width:0.00160981"
                 d="m 640.11918,138.3821 c 0,0.42193 -0.34225,0.7637 -0.76386,0.7637 H 626.6668 c -0.42153,0 -0.76372,-0.34177 -0.76372,-0.7637 v -7.35395 h 14.2161 z m -15.23535,-8.37312 v 8.49466 c 0,0.91776 0.74406,1.66149 1.66175,1.66149 h 12.93096 c 0.91776,0 1.66181,-0.74373 1.66181,-1.66149 v -8.49466 h -16.25452" /></g><text
               xml:space="preserve"
               style="font-style:normal;font-variant:normal;font-weight:normal;font-stretch:normal;font-size:8.53825px;font-family:'Humanst521 BT';-inkscape-font-specification:'Humanst521 BT';display:inline;fill:#3f3f3f;fill-opacity:1;stroke:none;stroke-width:3.79992;stroke-linecap:round;stroke-linejoin:miter;stroke-dasharray:none;stroke-opacity:1;paint-order:fill markers stroke"
               x="3134.9712"
               y="-56.337879"
               id="text25381"><tspan
                 sodipodi:role="line"
                 id="tspan25377"
                 style="font-size:8.53825px;fill:#3f3f3f;fill-opacity:1;stroke:none;stroke-width:3.79992"
                 x="3134.9712"
                 y="-56.337879">PB</tspan><tspan
                 sodipodi:role="line"
                 style="font-size:8.53825px;fill:#3f3f3f;fill-opacity:1;stroke:none;stroke-width:3.79992"
                 x="3134.9712"
                 y="-45.665066"
                 id="tspan25379">A4</tspan></text></g></g><g
           id="g25579"
           inkscape:label="bloco L"
           transform="matrix(0.48835096,0,0,0.48835096,1582.4581,121.49887)"><g
             id="g25571"
             transform="matrix(0.81313759,0,0,0.81313759,2642.7825,-158.0266)"
             style="display:inline;fill:#3f3f3f;fill-opacity:1"><path
               id="path25565"
               style="fill:#3f3f3f;fill-opacity:1;fill-rule:nonzero;stroke:none;stroke-width:0.00171783"
               d="m 623.34582,123.64273 c -1.12516,0 -2.03737,0.91217 -2.03737,2.03734 v 8.46456 c 0,1.12559 0.91221,2.03768 2.03737,2.03768 h 2.55288 v -5.8486 h 14.21595 v 5.8486 h 2.5613 c 1.12501,0 2.03768,-0.91209 2.03768,-2.03768 v -8.46456 c 0,-1.12517 -0.91267,-2.03734 -2.03768,-2.03734 z m 17.17693,2.5663 c 0.57873,0 1.04783,0.4691 1.04783,1.04766 0,0.57857 -0.4691,1.04767 -1.04783,1.04767 -0.57856,0 -1.04767,-0.4691 -1.04767,-1.04767 0,-0.57856 0.46911,-1.04766 1.04767,-1.04766 z" /><path
               id="path25567"
               style="fill:#3f3f3f;fill-opacity:1;fill-rule:nonzero;stroke:none;stroke-width:0.00176669"
               d="m 625.90323,123.58781 h 14.21574 v -5.22092 c 0,-0.55828 -0.45263,-1.0109 -1.0109,-1.0109 h -12.1939 c -0.55833,0 -1.01094,0.45262 -1.01094,1.0109 z m 15.23494,1.01938 h -16.2542 v -6.45266 c 0,-1.00383 0.81386,-1.81775 1.81784,-1.81775 h 12.61861 c 1.00401,0 1.81775,0.81392 1.81775,1.81775 v 6.45266" /><path
               id="path25569"
               style="fill:#3f3f3f;fill-opacity:1;fill-rule:nonzero;stroke:none;stroke-width:0.00160981"
               d="m 640.11918,138.3821 c 0,0.42193 -0.34225,0.7637 -0.76386,0.7637 H 626.6668 c -0.42153,0 -0.76372,-0.34177 -0.76372,-0.7637 v -7.35395 h 14.2161 z m -15.23535,-8.37312 v 8.49466 c 0,0.91776 0.74406,1.66149 1.66175,1.66149 h 12.93096 c 0.91776,0 1.66181,-0.74373 1.66181,-1.66149 v -8.49466 h -16.25452" /></g><text
             xml:space="preserve"
             style="font-style:normal;font-variant:normal;font-weight:normal;font-stretch:normal;font-size:8.53825px;font-family:'Humanst521 BT';-inkscape-font-specification:'Humanst521 BT';display:inline;fill:#3f3f3f;fill-opacity:1;stroke:none;stroke-width:3.79992;stroke-linecap:round;stroke-linejoin:miter;stroke-dasharray:none;stroke-opacity:1;paint-order:fill markers stroke"
             x="3134.9712"
             y="-56.337879"
             id="text25577"><tspan
               sodipodi:role="line"
               id="tspan25573"
               style="font-size:8.53825px;fill:#3f3f3f;fill-opacity:1;stroke:none;stroke-width:3.79992"
               x="3134.9712"
               y="-56.337879">PB</tspan><tspan
               sodipodi:role="line"
               style="font-size:8.53825px;fill:#3f3f3f;fill-opacity:1;stroke:none;stroke-width:3.79992"
               x="3134.9712"
               y="-45.665066"
               id="tspan25575">A4</tspan></text></g><g
           id="g25901"
           inkscape:label="bloco A"
           transform="translate(0,-1.3809448)"><g
             id="g25687"
             inkscape:label="torre 3"
             transform="matrix(0.48835096,0,0,0.48835096,1616.3665,193.89294)"
             style="display:inline;stroke-width:1.87034;stroke-dasharray:none"><g
               id="g25679"
               transform="matrix(0.81313759,0,0,0.81313759,2642.7825,-158.0266)"
               style="display:inline;fill:#3f3f3f;fill-opacity:1"><path
                 id="path25673"
                 style="fill:#3f3f3f;fill-opacity:1;fill-rule:nonzero;stroke:none;stroke-width:0.00171783"
                 d="m 623.34582,123.64273 c -1.12516,0 -2.03737,0.91217 -2.03737,2.03734 v 8.46456 c 0,1.12559 0.91221,2.03768 2.03737,2.03768 h 2.55288 v -5.8486 h 14.21595 v 5.8486 h 2.5613 c 1.12501,0 2.03768,-0.91209 2.03768,-2.03768 v -8.46456 c 0,-1.12517 -0.91267,-2.03734 -2.03768,-2.03734 z m 17.17693,2.5663 c 0.57873,0 1.04783,0.4691 1.04783,1.04766 0,0.57857 -0.4691,1.04767 -1.04783,1.04767 -0.57856,0 -1.04767,-0.4691 -1.04767,-1.04767 0,-0.57856 0.46911,-1.04766 1.04767,-1.04766 z" /><path
                 id="path25675"
                 style="fill:#3f3f3f;fill-opacity:1;fill-rule:nonzero;stroke:none;stroke-width:0.00176669"
                 d="m 625.90323,123.58781 h 14.21574 v -5.22092 c 0,-0.55828 -0.45263,-1.0109 -1.0109,-1.0109 h -12.1939 c -0.55833,0 -1.01094,0.45262 -1.01094,1.0109 z m 15.23494,1.01938 h -16.2542 v -6.45266 c 0,-1.00383 0.81386,-1.81775 1.81784,-1.81775 h 12.61861 c 1.00401,0 1.81775,0.81392 1.81775,1.81775 v 6.45266" /><path
                 id="path25677"
                 style="fill:#3f3f3f;fill-opacity:1;fill-rule:nonzero;stroke:none;stroke-width:0.00160981"
                 d="m 640.11918,138.3821 c 0,0.42193 -0.34225,0.7637 -0.76386,0.7637 H 626.6668 c -0.42153,0 -0.76372,-0.34177 -0.76372,-0.7637 v -7.35395 h 14.2161 z m -15.23535,-8.37312 v 8.49466 c 0,0.91776 0.74406,1.66149 1.66175,1.66149 h 12.93096 c 0.91776,0 1.66181,-0.74373 1.66181,-1.66149 v -8.49466 h -16.25452" /></g><text
               xml:space="preserve"
               style="font-style:normal;font-variant:normal;font-weight:normal;font-stretch:normal;font-size:8.53825px;font-family:'Humanst521 BT';-inkscape-font-specification:'Humanst521 BT';display:inline;fill:#3f3f3f;fill-opacity:1;stroke:none;stroke-width:3.79992;stroke-linecap:round;stroke-linejoin:miter;stroke-dasharray:none;stroke-opacity:1;paint-order:fill markers stroke"
               x="3134.9712"
               y="-56.337879"
               id="text25685"><tspan
                 sodipodi:role="line"
                 id="tspan25681"
                 style="font-size:8.53825px;fill:#3f3f3f;fill-opacity:1;stroke:none;stroke-width:3.79992"
                 x="3134.9712"
                 y="-56.337879">PB</tspan><tspan
                 sodipodi:role="line"
                 style="font-size:8.53825px;fill:#3f3f3f;fill-opacity:1;stroke:none;stroke-width:3.79992"
                 x="3134.9712"
                 y="-45.665066"
                 id="tspan25683">A4</tspan></text></g><g
             id="g25671"
             inkscape:label="torre 2"
             transform="translate(-2.9036323,4.8347051)"
             style="display:inline;stroke-width:1.87034;stroke-dasharray:none"><g
               id="g15644"
               inkscape:label="impressora a4"
               transform="matrix(0.48835096,0,0,0.48835096,1587.774,179.49853)"><g
                 id="g15636"
                 transform="matrix(0.81313759,0,0,0.81313759,2642.7825,-158.0266)"
                 style="display:inline;fill:#3f3f3f;fill-opacity:1"><path
                   id="path15630"
                   style="fill:#3f3f3f;fill-opacity:1;fill-rule:nonzero;stroke:none;stroke-width:0.00171783"
                   d="m 623.34582,123.64273 c -1.12516,0 -2.03737,0.91217 -2.03737,2.03734 v 8.46456 c 0,1.12559 0.91221,2.03768 2.03737,2.03768 h 2.55288 v -5.8486 h 14.21595 v 5.8486 h 2.5613 c 1.12501,0 2.03768,-0.91209 2.03768,-2.03768 v -8.46456 c 0,-1.12517 -0.91267,-2.03734 -2.03768,-2.03734 z m 17.17693,2.5663 c 0.57873,0 1.04783,0.4691 1.04783,1.04766 0,0.57857 -0.4691,1.04767 -1.04783,1.04767 -0.57856,0 -1.04767,-0.4691 -1.04767,-1.04767 0,-0.57856 0.46911,-1.04766 1.04767,-1.04766 z" /><path
                   id="path15632"
                   style="fill:#3f3f3f;fill-opacity:1;fill-rule:nonzero;stroke:none;stroke-width:0.00176669"
                   d="m 625.90323,123.58781 h 14.21574 v -5.22092 c 0,-0.55828 -0.45263,-1.0109 -1.0109,-1.0109 h -12.1939 c -0.55833,0 -1.01094,0.45262 -1.01094,1.0109 z m 15.23494,1.01938 h -16.2542 v -6.45266 c 0,-1.00383 0.81386,-1.81775 1.81784,-1.81775 h 12.61861 c 1.00401,0 1.81775,0.81392 1.81775,1.81775 v 6.45266" /><path
                   id="path15634"
                   style="fill:#3f3f3f;fill-opacity:1;fill-rule:nonzero;stroke:none;stroke-width:0.00160981"
                   d="m 640.11918,138.3821 c 0,0.42193 -0.34225,0.7637 -0.76386,0.7637 H 626.6668 c -0.42153,0 -0.76372,-0.34177 -0.76372,-0.7637 v -7.35395 h 14.2161 z m -15.23535,-8.37312 v 8.49466 c 0,0.91776 0.74406,1.66149 1.66175,1.66149 h 12.93096 c 0.91776,0 1.66181,-0.74373 1.66181,-1.66149 v -8.49466 h -16.25452" /></g><text
                 xml:space="preserve"
                 style="font-style:normal;font-variant:normal;font-weight:normal;font-stretch:normal;font-size:8.53825px;font-family:'Humanst521 BT';-inkscape-font-specification:'Humanst521 BT';display:inline;fill:#3f3f3f;fill-opacity:1;stroke:none;stroke-width:3.79992;stroke-linecap:round;stroke-linejoin:miter;stroke-dasharray:none;stroke-opacity:1;paint-order:fill markers stroke"
                 x="3134.9712"
                 y="-56.337879"
                 id="text15642"><tspan
                   sodipodi:role="line"
                   id="tspan15638"
                   style="font-size:8.53825px;fill:#3f3f3f;fill-opacity:1;stroke:none;stroke-width:3.79992"
                   x="3134.9712"
                   y="-56.337879">PB</tspan><tspan
                   sodipodi:role="line"
                   style="font-size:8.53825px;fill:#3f3f3f;fill-opacity:1;stroke:none;stroke-width:3.79992"
                   x="3134.9712"
                   y="-45.665066"
                   id="tspan15640">A4</tspan></text></g><g
               id="g15676"
               inkscape:label="impressora a3"
               transform="matrix(0.48835096,0,0,0.48835096,1509.4902,223.88751)"><g
                 id="g15668"
                 transform="matrix(0.81313761,0,0,0.81313761,2803.0848,-226.09667)"
                 style="display:inline;fill:#3f3f3f;fill-opacity:1"><path
                   id="path15662"
                   style="fill:#3f3f3f;fill-opacity:1;fill-rule:nonzero;stroke:none;stroke-width:0.00171783"
                   d="m 623.34582,123.64273 c -1.12516,0 -2.03737,0.91217 -2.03737,2.03734 v 8.46456 c 0,1.12559 0.91221,2.03768 2.03737,2.03768 h 2.55288 v -5.8486 h 14.21595 v 5.8486 h 2.5613 c 1.12501,0 2.03768,-0.91209 2.03768,-2.03768 v -8.46456 c 0,-1.12517 -0.91267,-2.03734 -2.03768,-2.03734 z m 17.17693,2.5663 c 0.57873,0 1.04783,0.4691 1.04783,1.04766 0,0.57857 -0.4691,1.04767 -1.04783,1.04767 -0.57856,0 -1.04767,-0.4691 -1.04767,-1.04767 0,-0.57856 0.46911,-1.04766 1.04767,-1.04766 z" /><path
                   id="path15664"
                   style="fill:#3f3f3f;fill-opacity:1;fill-rule:nonzero;stroke:none;stroke-width:0.00176669"
                   d="m 625.90323,123.58781 h 14.21574 v -5.22092 c 0,-0.55828 -0.45263,-1.0109 -1.0109,-1.0109 h -12.1939 c -0.55833,0 -1.01094,0.45262 -1.01094,1.0109 z m 15.23494,1.01938 h -16.2542 v -6.45266 c 0,-1.00383 0.81386,-1.81775 1.81784,-1.81775 h 12.61861 c 1.00401,0 1.81775,0.81392 1.81775,1.81775 v 6.45266" /><path
                   id="path15666"
                   style="fill:#3f3f3f;fill-opacity:1;fill-rule:nonzero;stroke:none;stroke-width:0.00160981"
                   d="m 640.11918,138.3821 c 0,0.42193 -0.34225,0.7637 -0.76386,0.7637 H 626.6668 c -0.42153,0 -0.76372,-0.34177 -0.76372,-0.7637 v -7.35395 h 14.2161 z m -15.23535,-8.37312 v 8.49466 c 0,0.91776 0.74406,1.66149 1.66175,1.66149 h 12.93096 c 0.91776,0 1.66181,-0.74373 1.66181,-1.66149 v -8.49466 h -16.25452" /></g><text
                 xml:space="preserve"
                 style="font-style:normal;font-variant:normal;font-weight:normal;font-stretch:normal;font-size:8.81944px;font-family:'Humanst521 BT';-inkscape-font-specification:'Humanst521 BT';display:inline;fill:#3f3f3f;fill-opacity:1;stroke:none;stroke-width:3.92506;stroke-linecap:round;stroke-linejoin:miter;stroke-dasharray:none;stroke-opacity:1;paint-order:fill markers stroke"
                 x="611.03418"
                 y="125.88823"
                 id="text15674"
                 transform="matrix(0.96811672,0,0,0.96811672,2703.7212,-246.28245)"><tspan
                   sodipodi:role="line"
                   id="tspan15670"
                   style="font-size:8.81944px;fill:#3f3f3f;fill-opacity:1;stroke:none;stroke-width:3.92506"
                   x="611.03418"
                   y="125.88823">PB</tspan><tspan
                   sodipodi:role="line"
                   style="font-size:8.81944px;fill:#3f3f3f;fill-opacity:1;stroke:none;stroke-width:3.92506"
                   x="611.03418"
                   y="136.91254"
                   id="tspan15672">A3</tspan></text></g><g
               id="g25637"
               transform="matrix(0.00187484,0,0,0.00187484,3121.6817,170.81676)"
               style="display:inline;fill:#3f3f3f;fill-opacity:1"
               inkscape:label="plotter"><path
                 id="path25631"
                 style="fill:#3f3f3f;fill-opacity:1;fill-rule:evenodd;stroke:none;stroke-width:0.286269"
                 d="m 910.32828,0.03044706 c -118.70233,0 -237.30071,68.46696894 -237.30071,205.50424294 0,32.0193 -0.94126,58.98058 -1.43345,81.96713 H 555.48488 c -33.40758,0 -60.46542,27.18817 -60.46542,60.59573 v 93.95597 h 255.54459 c 198.99973,0 360.83785,161.84667 360.83785,360.83781 V 1715.867 H 1371.768 V 1333.0063 969.95312 H 3790.3848 V 1333.0063 1715.867 H 4050.751 V 1110.5613 800.93663 c 0,-197.94912 160.9569,-358.88311 358.8831,-358.88311 h 256.5871 c -0.4867,-28.05435 -0.9122,-59.1743 -0.9122,-93.95597 0,-33.40756 -27.0865,-60.59573 -60.4654,-60.59573 h -3454.869 c -0.4844,-26.69449 -2.2153,-54.98931 -2.2153,-81.96713 0,-137.037274 -118.7287,-205.50424294 -237.43102,-205.50424294 z M 1580.2695,429.15249 a 205.55673,205.55673 0 0 1 205.5042,205.50424 205.55673,205.55673 0 0 1 -205.5042,205.63455 205.55673,205.55673 0 0 1 -205.6346,-205.63455 205.55673,205.55673 0 0 1 205.6346,-205.50424 z" /><path
                 id="path25633"
                 style="fill:#3f3f3f;fill-opacity:1;fill-rule:evenodd;stroke:none;stroke-width:0.182521"
                 d="m 4799.9688,563.10742 -390.3497,0.0195 c -121.0571,0 -221.0978,90.93531 -235.8183,208.06641 h -2.0684 v 29.75976 188.51758 121.02343 162.8711 722.8223 c 0,33.3736 27.116,60.4922 60.5078,60.4922 h 179.1504 v 1297.1152 h 388.7207 V 2056.6797 h 179.0625 c 33.3922,0 60.5684,-27.0784 60.5684,-60.4922 V 1273.3652 1110.4941 989.4707 802.88281 771.19336 h -2.3438 c -15.589,-117.24947 -115.99,-208.08594 -237.4296,-208.08594 z m -4049.36138,0.008 -390.38672,0.0195 c -131.12268,0 -237.82617,106.66508 -237.82617,237.82421 v 36.03711 152.47071 121.03115 77.3615 808.334 c 0,33.3716 27.10827,60.492 60.49414,60.492 H 362.02734 V 3353.7949 H 750.73242 V 2056.6855 h 179.11719 c 33.38483,0 60.5113,-27.0803 60.5332,-60.4921 V 1187.8594 1110.498 989.4668 836.99609 802.89453 c 0,-132.2178 -107.56672,-239.7793 -239.77539,-239.7793 z" /><path
                 style="color:#000000;fill:#3f3f3f;fill-opacity:1;fill-rule:evenodd;-inkscape-stroke:none"
                 d="m 1510.752,1101.4336 v 1958.5527 c 0,87.4942 72.9653,160.4922 160.4941,160.4922 h 1815.6191 c 87.4628,0 160.4922,-72.9876 160.4922,-160.4922 V 1101.4336 Z m 200,200 H 3447.3574 V 3020.4785 H 1710.752 Z"
                 id="path25635" /></g></g><g
             id="g25629"
             inkscape:label="torre 1"
             transform="translate(-4.2270704,4.7775269)"><g
               id="g25595"
               inkscape:label="impressora a4"
               transform="matrix(0.48835096,0,0,0.48835096,1557.6013,182.26037)"><g
                 id="g25587"
                 transform="matrix(0.81313759,0,0,0.81313759,2642.7825,-158.0266)"
                 style="display:inline;fill:#3f3f3f;fill-opacity:1"><path
                   id="path25581"
                   style="fill:#3f3f3f;fill-opacity:1;fill-rule:nonzero;stroke:none;stroke-width:0.00171783"
                   d="m 623.34582,123.64273 c -1.12516,0 -2.03737,0.91217 -2.03737,2.03734 v 8.46456 c 0,1.12559 0.91221,2.03768 2.03737,2.03768 h 2.55288 v -5.8486 h 14.21595 v 5.8486 h 2.5613 c 1.12501,0 2.03768,-0.91209 2.03768,-2.03768 v -8.46456 c 0,-1.12517 -0.91267,-2.03734 -2.03768,-2.03734 z m 17.17693,2.5663 c 0.57873,0 1.04783,0.4691 1.04783,1.04766 0,0.57857 -0.4691,1.04767 -1.04783,1.04767 -0.57856,0 -1.04767,-0.4691 -1.04767,-1.04767 0,-0.57856 0.46911,-1.04766 1.04767,-1.04766 z" /><path
                   id="path25583"
                   style="fill:#3f3f3f;fill-opacity:1;fill-rule:nonzero;stroke:none;stroke-width:0.00176669"
                   d="m 625.90323,123.58781 h 14.21574 v -5.22092 c 0,-0.55828 -0.45263,-1.0109 -1.0109,-1.0109 h -12.1939 c -0.55833,0 -1.01094,0.45262 -1.01094,1.0109 z m 15.23494,1.01938 h -16.2542 v -6.45266 c 0,-1.00383 0.81386,-1.81775 1.81784,-1.81775 h 12.61861 c 1.00401,0 1.81775,0.81392 1.81775,1.81775 v 6.45266" /><path
                   id="path25585"
                   style="fill:#3f3f3f;fill-opacity:1;fill-rule:nonzero;stroke:none;stroke-width:0.00160981"
                   d="m 640.11918,138.3821 c 0,0.42193 -0.34225,0.7637 -0.76386,0.7637 H 626.6668 c -0.42153,0 -0.76372,-0.34177 -0.76372,-0.7637 v -7.35395 h 14.2161 z m -15.23535,-8.37312 v 8.49466 c 0,0.91776 0.74406,1.66149 1.66175,1.66149 h 12.93096 c 0.91776,0 1.66181,-0.74373 1.66181,-1.66149 v -8.49466 h -16.25452" /></g><text
                 xml:space="preserve"
                 style="font-style:normal;font-variant:normal;font-weight:normal;font-stretch:normal;font-size:8.53825px;font-family:'Humanst521 BT';-inkscape-font-specification:'Humanst521 BT';display:inline;fill:#3f3f3f;fill-opacity:1;stroke:none;stroke-width:3.79992;stroke-linecap:round;stroke-linejoin:miter;stroke-dasharray:none;stroke-opacity:1;paint-order:fill markers stroke"
                 x="3134.9712"
                 y="-56.337879"
                 id="text25593"><tspan
                   sodipodi:role="line"
                   id="tspan25589"
                   style="font-size:8.53825px;fill:#3f3f3f;fill-opacity:1;stroke:none;stroke-width:3.79992"
                   x="3134.9712"
                   y="-56.337879">PB</tspan><tspan
                   sodipodi:role="line"
                   style="font-size:8.53825px;fill:#3f3f3f;fill-opacity:1;stroke:none;stroke-width:3.79992"
                   x="3134.9712"
                   y="-45.665066"
                   id="tspan25591">A4</tspan></text></g><g
               id="g25611"
               inkscape:label="impressora colorida"
               transform="matrix(0.48835096,0,0,0.48835096,1479.3175,201.719)"><g
                 id="g25603"
                 transform="matrix(0.81313761,0,0,0.81313761,2803.0848,-169.79793)"
                 style="display:inline;fill:#006633;fill-opacity:1"><path
                   id="path25597"
                   style="fill:#006633;fill-opacity:1;fill-rule:nonzero;stroke:none;stroke-width:0.00171783"
                   d="m 623.34582,123.64273 c -1.12516,0 -2.03737,0.91217 -2.03737,2.03734 v 8.46456 c 0,1.12559 0.91221,2.03768 2.03737,2.03768 h 2.55288 v -5.8486 h 14.21595 v 5.8486 h 2.5613 c 1.12501,0 2.03768,-0.91209 2.03768,-2.03768 v -8.46456 c 0,-1.12517 -0.91267,-2.03734 -2.03768,-2.03734 z m 17.17693,2.5663 c 0.57873,0 1.04783,0.4691 1.04783,1.04766 0,0.57857 -0.4691,1.04767 -1.04783,1.04767 -0.57856,0 -1.04767,-0.4691 -1.04767,-1.04767 0,-0.57856 0.46911,-1.04766 1.04767,-1.04766 z" /><path
                   id="path25599"
                   style="fill:#006633;fill-opacity:1;fill-rule:nonzero;stroke:none;stroke-width:0.00176669"
                   d="m 625.90323,123.58781 h 14.21574 v -5.22092 c 0,-0.55828 -0.45263,-1.0109 -1.0109,-1.0109 h -12.1939 c -0.55833,0 -1.01094,0.45262 -1.01094,1.0109 z m 15.23494,1.01938 h -16.2542 v -6.45266 c 0,-1.00383 0.81386,-1.81775 1.81784,-1.81775 h 12.61861 c 1.00401,0 1.81775,0.81392 1.81775,1.81775 v 6.45266" /><path
                   id="path25601"
                   style="fill:#006633;fill-opacity:1;fill-rule:nonzero;stroke:none;stroke-width:0.00160981"
                   d="m 640.11918,138.3821 c 0,0.42193 -0.34225,0.7637 -0.76386,0.7637 H 626.6668 c -0.42153,0 -0.76372,-0.34177 -0.76372,-0.7637 v -7.35395 h 14.2161 z m -15.23535,-8.37312 v 8.49466 c 0,0.91776 0.74406,1.66149 1.66175,1.66149 h 12.93096 c 0.91776,0 1.66181,-0.74373 1.66181,-1.66149 v -8.49466 h -16.25452" /></g><text
                 xml:space="preserve"
                 style="font-style:normal;font-variant:normal;font-weight:normal;font-stretch:normal;font-size:8.81944px;font-family:'Humanst521 BT';-inkscape-font-specification:'Humanst521 BT';display:inline;fill:#006633;fill-opacity:1;stroke:none;stroke-width:3.92506;stroke-linecap:round;stroke-linejoin:miter;stroke-dasharray:none;stroke-opacity:1;paint-order:fill markers stroke"
                 x="611.03418"
                 y="125.88823"
                 id="text25609"
                 transform="matrix(0.96811672,0,0,0.96811672,2703.7212,-189.98371)"><tspan
                   sodipodi:role="line"
                   id="tspan25605"
                   style="font-size:8.81944px;fill:#006633;fill-opacity:1;stroke:none;stroke-width:3.92506"
                   x="611.03418"
                   y="125.88823">CL</tspan><tspan
                   sodipodi:role="line"
                   style="font-size:8.81944px;fill:#006633;fill-opacity:1;stroke:none;stroke-width:3.92506"
                   x="611.03418"
                   y="136.91254"
                   id="tspan25607">A3</tspan></text></g></g></g></g><path
         id="path26130"
         style="display:inline;fill:#3f3f3f;fill-opacity:1;fill-rule:nonzero;stroke:none;stroke-width:0.003365;stroke-dasharray:none"
         d="m 1172.2077,245.46438 -0.8951,0.89491 5.7312,5.731 -1.09,1.09005 -5.7312,-5.73108 -0.8946,0.89466 5.7311,5.73107 -1.09,1.08999 -5.7311,-5.73102 -0.8946,0.89464 5.7311,5.73102 c 0.6018,0.60174 1.4125,0.57111 1.4125,0.57111 0.2422,-0.036 0.4937,-0.0379 0.7474,-0.0143 1.6715,0.16115 3.4571,1.45457 3.4571,1.45457 l 0.7941,0.83642 -11.1587,10.59386 0.9943,0.99426 0.9944,0.99427 10.5577,-11.12077 11.4917,12.10424 1.9883,-1.98843 -12.1408,-11.52632 1.8882,-1.98896 c 1.8253,0.64604 4.9906,-0.67625 6.9955,-2.68114 2.3316,-2.33158 2.9754,-5.46816 1.4379,-7.00566 -1.5376,-1.53752 -4.6741,-0.89374 -7.0058,1.43784 -2.0049,2.00489 -3.3271,5.17017 -2.681,6.99546 l -2.0252,1.92257 -0.8709,-0.82707 c 0,0 -0.4293,-0.59223 -0.8241,-1.41408 -0.2906,-0.60461 -0.5627,-1.33394 -0.6307,-2.043 -0.025,-0.25387 -0.023,-0.50537 0.02,-0.7476 0,0 0.031,-0.81066 -0.5713,-1.4124 z"
         inkscape:label="RU"
         transform="translate(-1.1128759e-6)" /><path
         id="path15706"
         style="display:inline;fill:#3f3f3f;fill-opacity:1;fill-rule:nonzero;stroke:none;stroke-width:0.00314099;stroke-dasharray:none"
         d="m 987.97027,560.82135 c 0.451,0 0.8808,0.0768 1.2731,0.21609 0.4076,0.14466 0.7743,0.35662 1.081,0.61963 0.3071,0.26302 0.5545,0.57723 0.7231,0.92638 0.1625,0.33616 0.2521,0.70462 0.2521,1.09096 0,0.38634 -0.089,0.75483 -0.2521,1.09096 -0.1686,0.34915 -0.416,0.66336 -0.7231,0.92638 -0.3067,0.26303 -0.6734,0.47497 -1.081,0.61963 -0.3923,0.13922 -0.8221,0.21609 -1.2731,0.21609 -0.4509,0 -0.8808,-0.0768 -1.273,-0.21609 -0.4075,-0.14466 -0.774,-0.3566 -1.081,-0.61963 -0.3067,-0.26302 -0.5541,-0.57723 -0.7231,-0.92638 -0.1626,-0.33613 -0.2521,-0.70462 -0.2521,-1.09096 0,-0.38634 0.089,-0.7548 0.2521,-1.09096 0.169,-0.34915 0.4164,-0.66336 0.7231,-0.92638 0.307,-0.26301 0.6737,-0.47497 1.081,-0.61963 0.3922,-0.13922 0.8224,-0.21609 1.273,-0.21609 z m -25.098,0 c 0.4508,0 0.8807,0.0768 1.273,0.21609 0.4074,0.14466 0.7741,0.35662 1.081,0.61963 0.307,0.26302 0.5542,0.57723 0.7231,0.92638 0.1625,0.33616 0.2521,0.70462 0.2521,1.09096 0,0.38634 -0.09,0.75483 -0.2521,1.09096 -0.1689,0.34915 -0.4161,0.66336 -0.7231,0.92638 -0.3069,0.26303 -0.6736,0.47497 -1.081,0.61963 -0.3922,0.13922 -0.8222,0.21609 -1.273,0.21609 -0.4509,0 -0.8809,-0.0768 -1.2731,-0.21609 -0.4074,-0.14466 -0.7741,-0.3566 -1.0811,-0.61963 -0.3069,-0.26302 -0.5541,-0.57723 -0.723,-0.92638 -0.1625,-0.33613 -0.2521,-0.70462 -0.2521,-1.09096 0,-0.38634 0.089,-0.7548 0.2521,-1.09093 0.1689,-0.34918 0.4161,-0.66339 0.723,-0.92641 0.307,-0.26301 0.6737,-0.47497 1.0811,-0.61963 0.3922,-0.13922 0.8222,-0.21609 1.2731,-0.21609 z m -8.112,-3.28434 v 2.1e-4 0.005 l 8.1432,-3.84176 v -5.1251 h -5.1022 c -0.055,0 -0.1045,0.009 -0.1498,0.0259 -0.048,0.018 -0.092,0.0445 -0.1307,0.0773 -0.076,0.0652 -0.1414,0.14946 -0.1975,0.24657 -0.061,0.10613 -0.1109,0.22768 -0.1499,0.3562 v 2.7e-4 l -2.4115,8.25511 v 2e-4 z m 0.016,-6.55737 h -1.8195 c 0,0.002 0,0.005 0,0.008 l -0.2514,1.72017 c -0.074,0.50128 -0.2679,0.83188 -0.5012,0.9921 -0.1097,0.0753 -0.2282,0.11311 -0.3466,0.11311 -0.1186,0 -0.237,-0.0378 -0.3468,-0.11311 -0.2333,-0.16022 -0.4277,-0.49082 -0.5011,-0.9921 l -0.2514,-1.72017 c -0.029,-0.2018 0.013,-0.37102 0.1067,-0.5071 0.1068,-0.15672 0.2788,-0.26984 0.4795,-0.33904 0.2005,-0.0692 0.4296,-0.0948 0.6512,-0.0768 0.2717,0.0224 0.5322,0.11019 0.7148,0.26342 h 2.264 l 0.4353,-1.43783 c 0.078,-0.25995 0.1882,-0.5135 0.3322,-0.74553 0.1322,-0.21284 0.2934,-0.40795 0.4865,-0.5734 0.209,-0.17911 0.4489,-0.32333 0.7217,-0.42103 0.2544,-0.091 0.5374,-0.14131 0.8509,-0.14131 h 36.8734 c 0.3274,0 0.64,0.0561 0.9253,0.15789 0.2965,0.10555 0.5636,0.25994 0.7872,0.45156 0.2237,0.19162 0.4041,0.42074 0.5273,0.67487 0.1184,0.24454 0.1839,0.51234 0.1839,0.79263 v 4.17774 0 1.60358 8.34016 c 0,0.21621 -0.1025,0.41201 -0.2678,0.55374 -0.1652,0.14171 -0.3939,0.22935 -0.646,0.22935 h -4.0007 v 0 0 c -0.01,-2.8e-4 -0.01,-0.004 -0.01,-0.008 0.01,-0.0515 0.01,-0.1029 0.011,-0.15419 0,-0.051 0,-0.1025 0,-0.15439 0,-0.4807 -0.1107,-0.94991 -0.3207,-1.38382 -0.2097,-0.43395 -0.5184,-0.83273 -0.9151,-1.17264 -0.397,-0.33993 -0.8622,-0.60471 -1.3688,-0.78446 -0.5063,-0.17975 -1.0535,-0.27457 -1.6147,-0.27457 -0.561,0 -1.1082,0.0948 -1.6148,0.27457 -0.5062,0.17975 -0.9718,0.44453 -1.3684,0.78446 -0.3966,0.33991 -0.7058,0.73869 -0.9154,1.17266 -0.2097,0.43392 -0.3203,0.9031 -0.3203,1.3838 0,0.0518 0,0.10328 0,0.15425 0,0.0513 0.01,0.10281 0.012,0.15433 v 5.6e-4 c 0,0.004 0,0.007 -0.01,0.007 h -16.6744 v 0 0 c -0.01,-2.7e-4 -0.01,-0.004 -0.01,-0.008 0.01,-0.0516 0.01,-0.10305 0.011,-0.15439 0,-0.051 0,-0.10238 0,-0.1542 0,-0.4807 -0.1105,-0.94987 -0.3203,-1.38378 -0.2098,-0.43398 -0.5188,-0.83276 -0.9155,-1.17267 -0.3967,-0.33994 -0.862,-0.60471 -1.3685,-0.78446 -0.5062,-0.17976 -1.0538,-0.27457 -1.6147,-0.27457 -0.561,0 -1.1085,0.0948 -1.6148,0.27457 -0.5063,0.17975 -0.9718,0.44452 -1.3684,0.78446 -0.3966,0.33991 -0.7057,0.73869 -0.9154,1.17263 -0.2098,0.43395 -0.3204,0.90312 -0.3204,1.38382 0,0.0519 0,0.10337 0,0.1544 0,0.0513 0.01,0.1027 0.012,0.15419 v 5.6e-4 c 0,0.004 0,0.007 -0.01,0.007 h -5.9555 c -0.2524,0 -0.4808,-0.0876 -0.6462,-0.22936 -0.1654,-0.14172 -0.2677,-0.33752 -0.2677,-0.55374 0,-0.0228 0,-0.0453 0,-0.0676 0,-0.0225 0.01,-0.0449 0.01,-0.067 l 0.5092,-3.9285 c 0,-7.8e-4 0,-0.003 0,-0.004 0,-0.0298 0.01,-0.0591 0.017,-0.0878 0.01,-0.029 0.017,-0.0574 0.028,-0.0849 z m 34.8051,-2.40435 v 4.68978 l 5.6881,0.005 v -0.006 -4.17774 c 0,-0.0683 -0.016,-0.13404 -0.045,-0.19394 -0.03,-0.0622 -0.075,-0.11863 -0.1303,-0.16603 -0.055,-0.0474 -0.1207,-0.0855 -0.1937,-0.11165 -0.07,-0.0251 -0.1463,-0.0389 -0.2262,-0.0389 z m -1.8278,4.68832 v -4.68832 h -6.456 v 4.6828 l 6.0505,0.005 z m -8.2838,-0.007 v -4.68135 h -6.4561 v 4.67582 z m -8.2836,-0.007 v -4.67437 h -6.4562 v 4.66884 l 6.4562,0.005"
         inkscape:label="fretado" /><g
         id="g15810"
         inkscape:label="legenda blocos"
         transform="translate(-1995.8327,157.68461)"
         style="display:inline"><g
           id="g15736"
           inkscape:label="biblioteca"
           transform="translate(-1.4140027,-77.056742)"><path
             style="color:#000000;display:inline;fill:#ffcc00;stroke-linecap:round;stroke-linejoin:round;-inkscape-stroke:none"
             d="m 2797.3438,75.263672 a 1.335955,1.335955 0 0 0 -0.2774,1.867187 l 28.2774,38.175781 a 1.335955,1.335955 0 0 0 1.8691,0.2793 1.335955,1.335955 0 0 0 0.2773,-1.86914 l -28.2773,-38.175784 a 1.335955,1.335955 0 0 0 -1.8691,-0.277344 z"
             id="path15710"
             transform="translate(115.93871,135.02606)" /><rect
             style="fill:#ffcc00;fill-opacity:1;stroke:none;stroke-width:1.51222;stroke-linecap:round;stroke-linejoin:round;stroke-opacity:1"
             id="rect15726"
             width="135.46555"
             height="25.149721"
             x="2815.5449"
             y="195.25305"
             ry="12.574861" /><text
             xml:space="preserve"
             style="font-style:normal;font-variant:normal;font-weight:normal;font-stretch:normal;font-size:15.0814px;font-family:'Humanst521 BT';-inkscape-font-specification:'Humanst521 BT';fill:#ffffff;fill-opacity:1;stroke:none;stroke-width:4.66255;stroke-linecap:round;stroke-linejoin:round;stroke-opacity:1"
             x="2822.2415"
             y="212.76913"
             id="text15730"><tspan
               sodipodi:role="line"
               id="tspan15728"
               style="font-style:normal;font-variant:normal;font-weight:bold;font-stretch:normal;font-size:15.0814px;font-family:'Humanst521 BT';-inkscape-font-specification:'Humanst521 BT Bold';fill:#ffffff;fill-opacity:1;stroke-width:4.66255"
               x="2822.2415"
               y="212.76913">Bloco C (Biblioteca)</tspan></text></g><g
           id="g15772"
           inkscape:label="bloco L"
           transform="translate(111.69686,-192.99535)"><path
             style="color:#000000;display:inline;fill:#ffcc00;stroke-linecap:round;stroke-linejoin:round;-inkscape-stroke:none"
             d="m 2963.5297,237.28268 a 1.335955,1.335955 0 0 0 -0.1384,-1.88477 l -36.7939,-31.71409 a 1.335955,1.335955 0 0 0 -1.884,0.14017 1.335955,1.335955 0 0 0 0.1402,1.88393 l 36.7913,31.71321 a 1.335955,1.335955 0 0 0 1.8848,-0.13845 z"
             id="path15712" /><rect
             style="fill:#ffcc00;fill-opacity:1;stroke:none;stroke-width:1.44526;stroke-linecap:round;stroke-linejoin:round;stroke-opacity:1"
             id="rect15762"
             width="129.46693"
             height="24.036055"
             x="2818.5442"
             y="195.80989"
             ry="12.018027" /><text
             xml:space="preserve"
             style="font-style:normal;font-variant:normal;font-weight:normal;font-stretch:normal;font-size:18.8518px;font-family:'Humanst521 BT';-inkscape-font-specification:'Humanst521 BT';fill:#ffffff;fill-opacity:1;stroke:none;stroke-width:4.66255;stroke-linecap:round;stroke-linejoin:round;stroke-opacity:1"
             x="2853.8354"
             y="214.18396"
             id="text15766"><tspan
               sodipodi:role="line"
               id="tspan15764"
               style="font-style:normal;font-variant:normal;font-weight:bold;font-stretch:normal;font-size:18.8518px;font-family:'Humanst521 BT';-inkscape-font-specification:'Humanst521 BT Bold';fill:#ffffff;fill-opacity:1;stroke-width:4.66255"
               x="2853.8354"
               y="214.18396">Bloco L</tspan></text></g><g
           id="g15784"
           inkscape:label="quadra"
           transform="translate(220.56615,177.44265)"><path
             style="color:#000000;display:inline;fill:#ffcc00;stroke-linecap:round;stroke-linejoin:round;-inkscape-stroke:none"
             d="m 2842.28,206.18418 a 1.335955,1.335955 0 0 0 0.049,-1.88811 l -29.8362,-31.401 a 1.335955,1.335955 0 0 0 -1.8895,-0.0468 1.335955,1.335955 0 0 0 -0.047,1.88747 l 29.8356,31.3992 a 1.335955,1.335955 0 0 0 1.8882,0.0492 z"
             id="path15718" /><rect
             style="fill:#ffcc00;fill-opacity:1;stroke:none;stroke-width:1.44526;stroke-linecap:round;stroke-linejoin:round;stroke-opacity:1"
             id="rect15774"
             width="129.46693"
             height="24.036055"
             x="2818.5442"
             y="195.80989"
             ry="12.018027" /><text
             xml:space="preserve"
             style="font-style:normal;font-variant:normal;font-weight:normal;font-stretch:normal;font-size:15.0814px;font-family:'Humanst521 BT';-inkscape-font-specification:'Humanst521 BT';fill:#ffffff;fill-opacity:1;stroke:none;stroke-width:4.66255;stroke-linecap:round;stroke-linejoin:round;stroke-opacity:1"
             x="2830.073"
             y="212.76913"
             id="text15780"><tspan
               sodipodi:role="line"
               id="tspan15778"
               style="font-style:normal;font-variant:normal;font-weight:bold;font-stretch:normal;font-size:15.0814px;font-family:'Humanst521 BT';-inkscape-font-specification:'Humanst521 BT Bold';fill:#ffffff;fill-opacity:1;stroke-width:4.66255"
               x="2830.073"
               y="212.76913">Bloco E (Quadra)</tspan></text></g><g
           id="g15796"
           inkscape:label="bloco b"
           transform="translate(447.49478,71.401223)"><path
             style="color:#000000;display:inline;fill:#ffcc00;stroke-linecap:round;stroke-linejoin:round;-inkscape-stroke:none"
             d="m 2820.0427,179.31543 a 1.335955,1.335955 0 0 1 1.8839,-0.1489 l 33.6709,28.74852 a 1.335955,1.335955 0 0 1 0.1487,1.88381 1.335955,1.335955 0 0 1 -1.8837,0.14883 l -33.6709,-28.74852 a 1.335955,1.335955 0 0 1 -0.1489,-1.88374 z"
             id="path15720" /><rect
             style="fill:#ffcc00;fill-opacity:1;stroke:none;stroke-width:1.44526;stroke-linecap:round;stroke-linejoin:round;stroke-opacity:1"
             id="rect15786"
             width="129.46693"
             height="24.036055"
             x="2818.5442"
             y="195.80989"
             ry="12.018027" /><text
             xml:space="preserve"
             style="font-style:normal;font-variant:normal;font-weight:normal;font-stretch:normal;font-size:18.8518px;font-family:'Humanst521 BT';-inkscape-font-specification:'Humanst521 BT';fill:#ffffff;fill-opacity:1;stroke:none;stroke-width:4.66255;stroke-linecap:round;stroke-linejoin:round;stroke-opacity:1"
             x="2853.4304"
             y="214.18396"
             id="text15792"><tspan
               sodipodi:role="line"
               id="tspan15790"
               style="font-style:normal;font-variant:normal;font-weight:bold;font-stretch:normal;font-size:18.8518px;font-family:'Humanst521 BT';-inkscape-font-specification:'Humanst521 BT Bold';fill:#ffffff;fill-opacity:1;stroke-width:4.66255"
               x="2853.4304"
               y="214.18396">Bloco B</tspan></text></g><g
           id="g15808"
           inkscape:label=" bloco d"
           transform="translate(384.57682,53.727655)"><path
             style="color:#000000;display:inline;fill:#ffcc00;stroke-linecap:round;stroke-linejoin:round;-inkscape-stroke:none"
             d="m 3313.7617,35.4375 a 1.335955,1.335955 0 0 0 -1.0019,0.199219 c -0.7868,0.524483 -1.5356,1.332866 -2.4942,2.451172 -0.9585,1.118305 -2.0659,2.527942 -3.2695,4.132812 -2.4073,3.20974 -5.1981,7.196227 -7.8555,11.09375 -5.3148,7.795045 -10.0937,15.230469 -10.0937,15.230469 a 1.335955,1.335955 0 0 0 0.4023,1.845703 1.335955,1.335955 0 0 0 1.8457,-0.400391 c 0,0 4.7654,-7.412241 10.0547,-15.169922 2.6447,-3.87884 5.4206,-7.843355 7.7852,-10.996093 1.1822,-1.576369 2.2629,-2.951343 3.1601,-3.998047 0.8972,-1.046705 1.6736,-1.784338 1.9473,-1.966797 a 1.335955,1.335955 0 0 0 0.3691,-1.853516 1.335955,1.335955 0 0 0 -0.8496,-0.568359 z"
             id="path15722"
             transform="translate(-490.61832,-42.416567)" /><rect
             style="fill:#ffcc00;fill-opacity:1;stroke:none;stroke-width:1.44526;stroke-linecap:round;stroke-linejoin:round;stroke-opacity:1"
             id="rect15798"
             width="129.46693"
             height="24.036055"
             x="2798.0427"
             y="-23.342381"
             ry="12.018027" /><text
             xml:space="preserve"
             style="font-style:normal;font-variant:normal;font-weight:normal;font-stretch:normal;font-size:18.8518px;font-family:'Humanst521 BT';-inkscape-font-specification:'Humanst521 BT';fill:#ffffff;fill-opacity:1;stroke:none;stroke-width:4.66255;stroke-linecap:round;stroke-linejoin:round;stroke-opacity:1"
             x="2811.0581"
             y="-5.5012817"
             id="text15804"><tspan
               sodipodi:role="line"
               id="tspan15802"
               style="font-style:normal;font-variant:normal;font-weight:bold;font-stretch:normal;font-size:18.8518px;font-family:'Humanst521 BT';-inkscape-font-specification:'Humanst521 BT Bold';fill:#ffffff;fill-opacity:1;stroke-width:4.66255"
               x="2811.0581"
               y="-5.5012817">Bloco D (RU)</tspan></text></g><g
           id="g25705"
           inkscape:label="torre 3"
           transform="translate(393.06012,164.01078)"><path
             style="color:#000000;display:inline;fill:#ffcc00;stroke-linecap:round;stroke-linejoin:round;-inkscape-stroke:none"
             d="m 3313.7617,35.4375 a 1.335955,1.335955 0 0 0 -1.0019,0.199219 c -0.7868,0.524483 -1.5356,1.332866 -2.4942,2.451172 -0.9585,1.118305 -2.0659,2.527942 -3.2695,4.132812 -2.4073,3.20974 -5.1981,7.196227 -7.8555,11.09375 -5.3148,7.795045 -10.0937,15.230469 -10.0937,15.230469 a 1.335955,1.335955 0 0 0 0.4023,1.845703 1.335955,1.335955 0 0 0 1.8457,-0.400391 c 0,0 4.7654,-7.412241 10.0547,-15.169922 2.6447,-3.87884 5.4206,-7.843355 7.7852,-10.996093 1.1822,-1.576369 2.2629,-2.951343 3.1601,-3.998047 0.8972,-1.046705 1.6736,-1.784338 1.9473,-1.966797 a 1.335955,1.335955 0 0 0 0.3691,-1.853516 1.335955,1.335955 0 0 0 -0.8496,-0.568359 z"
             id="path25697"
             transform="translate(-490.61832,-42.416567)" /><rect
             style="fill:#ffcc00;fill-opacity:1;stroke:none;stroke-width:1.44526;stroke-linecap:round;stroke-linejoin:round;stroke-opacity:1"
             id="rect25699"
             width="129.46693"
             height="24.036055"
             x="2798.0427"
             y="-23.342381"
             ry="12.018027" /><text
             xml:space="preserve"
             style="font-style:normal;font-variant:normal;font-weight:normal;font-stretch:normal;font-size:15.0814px;font-family:'Humanst521 BT';-inkscape-font-specification:'Humanst521 BT';fill:#ffffff;fill-opacity:1;stroke:none;stroke-width:4.66255;stroke-linecap:round;stroke-linejoin:round;stroke-opacity:1"
             x="2810.1165"
             y="-6.1769419"
             id="text25703"><tspan
               sodipodi:role="line"
               id="tspan25701"
               style="font-style:normal;font-variant:normal;font-weight:bold;font-stretch:normal;font-size:15.0814px;font-family:'Humanst521 BT';-inkscape-font-specification:'Humanst521 BT Bold';fill:#ffffff;fill-opacity:1;stroke-width:4.66255"
               x="2810.1165"
               y="-6.1769419">Bloco A - Torre 3</tspan></text></g><g
           id="g25911"
           inkscape:label="torre 2"
           transform="translate(322.36582,291.26052)"><path
             style="color:#000000;display:inline;fill:#ffcc00;stroke-linecap:round;stroke-linejoin:round;-inkscape-stroke:none"
             d="m 2832.5995,-9.461018 a 1.335955,1.335955 0 0 0 0.062,-1.019622 c -0.3071,-0.89432 -0.8985,-1.824095 -1.7362,-3.035594 -0.8377,-1.211402 -1.9194,-2.640902 -3.1654,-4.213093 -2.4919,-3.144479 -5.6375,-6.857399 -8.731,-10.418679 -6.187,-7.12256 -12.1625,-13.635378 -12.1625,-13.635378 a 1.335955,1.335955 0 0 0 -1.8874,-0.08035 1.335955,1.335955 0 0 0 -0.082,1.88684 c 0,0 5.9565,6.493866 12.1138,13.582261 3.0787,3.544246 6.2068,7.237168 8.6545,10.325853 1.2239,1.544246 2.2788,2.939109 3.0629,4.073016 0.7841,1.133908 1.3,2.0723812 1.4068,2.3834862 a 1.335955,1.335955 0 0 0 1.6987,0.82837 1.335955,1.335955 0 0 0 0.7658,-0.6771102 z"
             id="path25903" /><rect
             style="fill:#ffcc00;fill-opacity:1;stroke:none;stroke-width:1.44526;stroke-linecap:round;stroke-linejoin:round;stroke-opacity:1"
             id="rect25905"
             width="129.46693"
             height="24.036055"
             x="2769.7649"
             y="-23.342381"
             ry="12.018027" /><text
             xml:space="preserve"
             style="font-style:normal;font-variant:normal;font-weight:normal;font-stretch:normal;font-size:15.0814px;font-family:'Humanst521 BT';-inkscape-font-specification:'Humanst521 BT';fill:#ffffff;fill-opacity:1;stroke:none;stroke-width:4.66255;stroke-linecap:round;stroke-linejoin:round;stroke-opacity:1"
             x="2781.8386"
             y="-6.1769419"
             id="text25909"><tspan
               sodipodi:role="line"
               id="tspan25907"
               style="font-style:normal;font-variant:normal;font-weight:bold;font-stretch:normal;font-size:15.0814px;font-family:'Humanst521 BT';-inkscape-font-specification:'Humanst521 BT Bold';fill:#ffffff;fill-opacity:1;stroke-width:4.66255"
               x="2781.8386"
               y="-6.1769419">Bloco A - Torre 2</tspan></text></g><g
           id="g25921"
           inkscape:label="torre 1"
           transform="translate(195.11608,164.01078)"><path
             style="color:#000000;display:inline;fill:#ffcc00;stroke-linecap:round;stroke-linejoin:round;-inkscape-stroke:none"
             d="m 2851.9971,-13.80507 a 1.335955,1.335955 0 0 0 -0.6846,0.758222 c -0.3177,0.890605 -0.4354,1.986202 -0.5362,3.4556771 -0.1008,1.4694141 -0.1469,3.2614189 -0.1536,5.2674637 -0.014,4.01214937 0.1295,8.8763262 0.3262,13.5894717 0.3936,9.4262895 1.0021,18.2440605 1.0021,18.2440605 a 1.335955,1.335955 0 0 0 1.4251,1.239973 1.335955,1.335955 0 0 0 1.2411,-1.423575 c 0,0 -0.6055,-8.791115 -0.9972,-18.1722065 -0.1958,-4.6905755 -0.3375,-9.52823053 -0.3242,-13.4691586 0.01,-1.9704043 0.052,-3.7186608 0.1463,-5.0940351 0.094,-1.3753748 0.2764,-2.4307158 0.387,-2.7405338 a 1.335955,1.335955 0 0 0 -0.8111,-1.707006 1.335955,1.335955 0 0 0 -1.0209,0.05165 z"
             id="path25913" /><rect
             style="fill:#ffcc00;fill-opacity:1;stroke:none;stroke-width:1.44526;stroke-linecap:round;stroke-linejoin:round;stroke-opacity:1"
             id="rect25915"
             width="129.46693"
             height="24.036055"
             x="2798.0427"
             y="-23.342381"
             ry="12.018027" /><text
             xml:space="preserve"
             style="font-style:normal;font-variant:normal;font-weight:normal;font-stretch:normal;font-size:15.0814px;font-family:'Humanst521 BT';-inkscape-font-specification:'Humanst521 BT';fill:#ffffff;fill-opacity:1;stroke:none;stroke-width:4.66255;stroke-linecap:round;stroke-linejoin:round;stroke-opacity:1"
             x="2810.1165"
             y="-6.1769419"
             id="text25919"><tspan
               sodipodi:role="line"
               id="tspan25917"
               style="font-style:normal;font-variant:normal;font-weight:bold;font-stretch:normal;font-size:15.0814px;font-family:'Humanst521 BT';-inkscape-font-specification:'Humanst521 BT Bold';fill:#ffffff;fill-opacity:1;stroke-width:4.66255"
               x="2810.1165"
               y="-6.1769419">Bloco A - Torre 1</tspan></text></g></g></g><g
       id="g13248"
       transform="matrix(-0.96811672,0,0,0.96811672,657.19886,-34.101818)"
       style="display:inline"
       inkscape:label="header"><g
         id="g13228"
         inkscape:label="legenda"
         transform="matrix(-1,0,0,1,1333.975,-47.19829)"
         style="display:inline"><g
           id="g13160"
           transform="matrix(0.00396555,0,0,0.00396555,637.98483,146.89645)"
           style="display:inline;fill:#3f3f3f;fill-opacity:1"
           inkscape:label="plotter"><g
             id="g13154"
             transform="translate(0,200.847)"><path
               id="path13148"
               style="fill:#3f3f3f;fill-opacity:1;fill-rule:evenodd;stroke:none;stroke-width:0.286269"
               d="m 910.32828,0.03044706 c -118.70233,0 -237.30071,68.46696894 -237.30071,205.50424294 0,32.0193 -0.94126,58.98058 -1.43345,81.96713 H 555.48488 c -33.40758,0 -60.46542,27.18817 -60.46542,60.59573 v 93.95597 h 255.54459 c 198.99973,0 360.83785,161.84667 360.83785,360.83781 V 1715.867 H 1371.768 V 1333.0063 969.95312 H 3790.3848 V 1333.0063 1715.867 H 4050.751 V 1110.5613 800.93663 c 0,-197.94912 160.9569,-358.88311 358.8831,-358.88311 h 256.5871 c -0.4867,-28.05435 -0.9122,-59.1743 -0.9122,-93.95597 0,-33.40756 -27.0865,-60.59573 -60.4654,-60.59573 h -3454.869 c -0.4844,-26.69449 -2.2153,-54.98931 -2.2153,-81.96713 0,-137.037274 -118.7287,-205.50424294 -237.43102,-205.50424294 z M 1580.2695,429.15249 a 205.55673,205.55673 0 0 1 205.5042,205.50424 205.55673,205.55673 0 0 1 -205.5042,205.63455 205.55673,205.55673 0 0 1 -205.6346,-205.63455 205.55673,205.55673 0 0 1 205.6346,-205.50424 z" /><path
               id="path13150"
               style="fill:#3f3f3f;fill-opacity:1;fill-rule:evenodd;stroke:none;stroke-width:0.182521"
               d="m 4799.9688,563.10742 -390.3497,0.0195 c -121.0571,0 -221.0978,90.93531 -235.8183,208.06641 h -2.0684 v 29.75976 188.51758 121.02343 162.8711 722.8223 c 0,33.3736 27.116,60.4922 60.5078,60.4922 h 179.1504 v 1297.1152 h 388.7207 V 2056.6797 h 179.0625 c 33.3922,0 60.5684,-27.0784 60.5684,-60.4922 V 1273.3652 1110.4941 989.4707 802.88281 771.19336 h -2.3438 c -15.589,-117.24947 -115.99,-208.08594 -237.4296,-208.08594 z m -4049.36138,0.008 -390.38672,0.0195 c -131.12268,0 -237.82617,106.66508 -237.82617,237.82421 v 36.03711 152.47071 121.03115 77.3615 808.334 c 0,33.3716 27.10827,60.492 60.49414,60.492 H 362.02734 V 3353.7949 H 750.73242 V 2056.6855 h 179.11719 c 33.38483,0 60.5113,-27.0803 60.5332,-60.4921 V 1187.8594 1110.498 989.4668 836.99609 802.89453 c 0,-132.2178 -107.56672,-239.7793 -239.77539,-239.7793 z" /><path
               style="color:#000000;fill:#3f3f3f;fill-opacity:1;fill-rule:evenodd;-inkscape-stroke:none"
               d="m 1510.752,1101.4336 v 1958.5527 c 0,87.4942 72.9653,160.4922 160.4941,160.4922 h 1815.6191 c 87.4628,0 160.4922,-72.9876 160.4922,-160.4922 V 1101.4336 Z m 200,200 H 3447.3574 V 3020.4785 H 1710.752 Z"
               id="path13152" /></g><text
             xml:space="preserve"
             style="font-style:normal;font-variant:normal;font-weight:normal;font-stretch:normal;font-size:8.81944px;font-family:'Humanst521 BT';-inkscape-font-specification:'Humanst521 BT';text-align:center;text-anchor:middle;display:inline;fill:#3f3f3f;fill-opacity:1;stroke:none;stroke-width:2;stroke-linecap:round;stroke-linejoin:miter;stroke-dasharray:none;stroke-opacity:1;paint-order:fill markers stroke"
             x="665.35944"
             y="185.58977"
             id="text13158"
             transform="matrix(252.17182,0,0,252.17182,-160881.8,-44173.991)"><tspan
               sodipodi:role="line"
               style="text-align:start;text-anchor:start;fill:#3f3f3f;fill-opacity:1;stroke-width:2"
               x="665.35944"
               y="185.58977"
               id="tspan13156">Plotter</tspan></text></g><g
           id="g13182"
           inkscape:label="impressora"
           transform="translate(14.200399,0.76497431)"
           style="fill:#006633;fill-opacity:1"><g
             id="g13168"
             transform="matrix(0.8399169,0,0,0.8399169,102.63597,20.850568)"
             style="fill:#006633;fill-opacity:1"><path
               id="path13162"
               style="fill:#006633;fill-opacity:1;fill-rule:nonzero;stroke:none;stroke-width:0.00171783"
               d="m 623.34582,123.64273 c -1.12516,0 -2.03737,0.91217 -2.03737,2.03734 v 8.46456 c 0,1.12559 0.91221,2.03768 2.03737,2.03768 h 2.55288 v -5.8486 h 14.21595 v 5.8486 h 2.5613 c 1.12501,0 2.03768,-0.91209 2.03768,-2.03768 v -8.46456 c 0,-1.12517 -0.91267,-2.03734 -2.03768,-2.03734 z m 17.17693,2.5663 c 0.57873,0 1.04783,0.4691 1.04783,1.04766 0,0.57857 -0.4691,1.04767 -1.04783,1.04767 -0.57856,0 -1.04767,-0.4691 -1.04767,-1.04767 0,-0.57856 0.46911,-1.04766 1.04767,-1.04766 z" /><path
               id="path13164"
               style="fill:#006633;fill-opacity:1;fill-rule:nonzero;stroke:none;stroke-width:0.00176669"
               d="m 625.90323,123.58781 h 14.21574 v -5.22092 c 0,-0.55828 -0.45263,-1.0109 -1.0109,-1.0109 h -12.1939 c -0.55833,0 -1.01094,0.45262 -1.01094,1.0109 z m 15.23494,1.01938 h -16.2542 v -6.45266 c 0,-1.00383 0.81386,-1.81775 1.81784,-1.81775 h 12.61861 c 1.00401,0 1.81775,0.81392 1.81775,1.81775 v 6.45266" /><path
               id="path13166"
               style="fill:#006633;fill-opacity:1;fill-rule:nonzero;stroke:none;stroke-width:0.00160981"
               d="m 640.11918,138.3821 c 0,0.42193 -0.34225,0.7637 -0.76386,0.7637 H 626.6668 c -0.42153,0 -0.76372,-0.34177 -0.76372,-0.7637 v -7.35395 h 14.2161 z m -15.23535,-8.37312 v 8.49466 c 0,0.91776 0.74406,1.66149 1.66175,1.66149 h 12.93096 c 0.91776,0 1.66181,-0.74373 1.66181,-1.66149 v -8.49466 h -16.25452" /></g><text
             xml:space="preserve"
             style="font-style:normal;font-variant:normal;font-weight:normal;font-stretch:normal;font-size:8.81944px;font-family:'Humanst521 BT';-inkscape-font-specification:'Humanst521 BT';fill:#006633;fill-opacity:1;stroke:none;stroke-width:3.92506;stroke-linecap:round;stroke-linejoin:miter;stroke-dasharray:none;stroke-opacity:1;paint-order:fill markers stroke"
             x="611.03418"
             y="125.88823"
             id="text13174"><tspan
               sodipodi:role="line"
               id="tspan13170"
               style="font-size:8.81944px;fill:#006633;fill-opacity:1;stroke:none;stroke-width:3.92506"
               x="611.03418"
               y="125.88823">CL</tspan><tspan
               sodipodi:role="line"
               style="font-size:8.81944px;fill:#006633;fill-opacity:1;stroke:none;stroke-width:3.92506"
               x="611.03418"
               y="136.91254"
               id="tspan13172">A3</tspan></text><text
             xml:space="preserve"
             style="font-style:normal;font-variant:normal;font-weight:normal;font-stretch:normal;font-size:8.81944px;font-family:'Humanst521 BT';-inkscape-font-specification:'Humanst521 BT';text-align:center;text-anchor:middle;fill:#006633;fill-opacity:1;stroke:none;stroke-width:2;stroke-linecap:round;stroke-linejoin:miter;stroke-dasharray:none;stroke-opacity:1;paint-order:fill markers stroke"
             x="665.35944"
             y="95.311493"
             id="text13180"
             transform="translate(-14.200399,30.929539)"><tspan
               sodipodi:role="line"
               id="tspan13176"
               style="text-align:start;text-anchor:start;fill:#006633;fill-opacity:1;stroke-width:2"
               x="665.35944"
               y="95.311493">Impresso colorida</tspan><tspan
               sodipodi:role="line"
               style="text-align:start;text-anchor:start;fill:#006633;fill-opacity:1;stroke-width:2"
               x="665.35944"
               y="106.33579"
               id="tspan13178">Folha A3 e A4, c/ scanner</tspan></text></g><g
           id="g13204"
           inkscape:label="impressora"
           transform="translate(14.200399,-28.577687)"
           style="fill:#3f3f3f;fill-opacity:1"><g
             id="g13190"
             transform="matrix(0.8399169,0,0,0.8399169,102.63597,20.850568)"
             style="fill:#3f3f3f;fill-opacity:1"><path
               id="path13184"
               style="fill:#3f3f3f;fill-opacity:1;fill-rule:nonzero;stroke:none;stroke-width:0.00171783"
               d="m 623.34582,123.64273 c -1.12516,0 -2.03737,0.91217 -2.03737,2.03734 v 8.46456 c 0,1.12559 0.91221,2.03768 2.03737,2.03768 h 2.55288 v -5.8486 h 14.21595 v 5.8486 h 2.5613 c 1.12501,0 2.03768,-0.91209 2.03768,-2.03768 v -8.46456 c 0,-1.12517 -0.91267,-2.03734 -2.03768,-2.03734 z m 17.17693,2.5663 c 0.57873,0 1.04783,0.4691 1.04783,1.04766 0,0.57857 -0.4691,1.04767 -1.04783,1.04767 -0.57856,0 -1.04767,-0.4691 -1.04767,-1.04767 0,-0.57856 0.46911,-1.04766 1.04767,-1.04766 z" /><path
               id="path13186"
               style="fill:#3f3f3f;fill-opacity:1;fill-rule:nonzero;stroke:none;stroke-width:0.00176669"
               d="m 625.90323,123.58781 h 14.21574 v -5.22092 c 0,-0.55828 -0.45263,-1.0109 -1.0109,-1.0109 h -12.1939 c -0.55833,0 -1.01094,0.45262 -1.01094,1.0109 z m 15.23494,1.01938 h -16.2542 v -6.45266 c 0,-1.00383 0.81386,-1.81775 1.81784,-1.81775 h 12.61861 c 1.00401,0 1.81775,0.81392 1.81775,1.81775 v 6.45266" /><path
               id="path13188"
               style="fill:#3f3f3f;fill-opacity:1;fill-rule:nonzero;stroke:none;stroke-width:0.00160981"
               d="m 640.11918,138.3821 c 0,0.42193 -0.34225,0.7637 -0.76386,0.7637 H 626.6668 c -0.42153,0 -0.76372,-0.34177 -0.76372,-0.7637 v -7.35395 h 14.2161 z m -15.23535,-8.37312 v 8.49466 c 0,0.91776 0.74406,1.66149 1.66175,1.66149 h 12.93096 c 0.91776,0 1.66181,-0.74373 1.66181,-1.66149 v -8.49466 h -16.25452" /></g><text
             xml:space="preserve"
             style="font-style:normal;font-variant:normal;font-weight:normal;font-stretch:normal;font-size:8.81944px;font-family:'Humanst521 BT';-inkscape-font-specification:'Humanst521 BT';fill:#3f3f3f;fill-opacity:1;stroke:none;stroke-width:3.92506;stroke-linecap:round;stroke-linejoin:miter;stroke-dasharray:none;stroke-opacity:1;paint-order:fill markers stroke"
             x="611.03418"
             y="125.88823"
             id="text13196"><tspan
               sodipodi:role="line"
               id="tspan13192"
               style="font-size:8.81944px;fill:#3f3f3f;fill-opacity:1;stroke:none;stroke-width:3.92506"
               x="611.03418"
               y="125.88823">PB</tspan><tspan
               sodipodi:role="line"
               style="font-size:8.81944px;fill:#3f3f3f;fill-opacity:1;stroke:none;stroke-width:3.92506"
               x="611.03418"
               y="136.91254"
               id="tspan13194">A4</tspan></text><text
             xml:space="preserve"
             style="font-style:normal;font-variant:normal;font-weight:normal;font-stretch:normal;font-size:8.81944px;font-family:'Humanst521 BT';-inkscape-font-specification:'Humanst521 BT';text-align:center;text-anchor:middle;fill:#3f3f3f;fill-opacity:1;stroke:none;stroke-width:2;stroke-linecap:round;stroke-linejoin:miter;stroke-dasharray:none;stroke-opacity:1;paint-order:fill markers stroke"
             x="665.35944"
             y="95.311493"
             id="text13202"
             transform="translate(-14.200399,30.929539)"><tspan
               sodipodi:role="line"
               id="tspan13198"
               style="text-align:start;text-anchor:start;fill:#3f3f3f;fill-opacity:1;stroke-width:2"
               x="665.35944"
               y="95.311493">Impresso preto e branco</tspan><tspan
               sodipodi:role="line"
               style="text-align:start;text-anchor:start;fill:#3f3f3f;fill-opacity:1;stroke-width:2"
               x="665.35944"
               y="106.33579"
               id="tspan13200">Folha A4, c/ scanner</tspan></text></g><g
           id="g13226"
           inkscape:label="impressora"
           transform="translate(14.200399,-57.387874)"
           style="fill:#3f3f3f;fill-opacity:1"><g
             id="g13212"
             transform="matrix(0.8399169,0,0,0.8399169,102.63597,20.850568)"
             style="fill:#3f3f3f;fill-opacity:1"><path
               id="path13206"
               style="fill:#3f3f3f;fill-opacity:1;fill-rule:nonzero;stroke:none;stroke-width:0.00171783"
               d="m 623.34582,123.64273 c -1.12516,0 -2.03737,0.91217 -2.03737,2.03734 v 8.46456 c 0,1.12559 0.91221,2.03768 2.03737,2.03768 h 2.55288 v -5.8486 h 14.21595 v 5.8486 h 2.5613 c 1.12501,0 2.03768,-0.91209 2.03768,-2.03768 v -8.46456 c 0,-1.12517 -0.91267,-2.03734 -2.03768,-2.03734 z m 17.17693,2.5663 c 0.57873,0 1.04783,0.4691 1.04783,1.04766 0,0.57857 -0.4691,1.04767 -1.04783,1.04767 -0.57856,0 -1.04767,-0.4691 -1.04767,-1.04767 0,-0.57856 0.46911,-1.04766 1.04767,-1.04766 z" /><path
               id="path13208"
               style="fill:#3f3f3f;fill-opacity:1;fill-rule:nonzero;stroke:none;stroke-width:0.00176669"
               d="m 625.90323,123.58781 h 14.21574 v -5.22092 c 0,-0.55828 -0.45263,-1.0109 -1.0109,-1.0109 h -12.1939 c -0.55833,0 -1.01094,0.45262 -1.01094,1.0109 z m 15.23494,1.01938 h -16.2542 v -6.45266 c 0,-1.00383 0.81386,-1.81775 1.81784,-1.81775 h 12.61861 c 1.00401,0 1.81775,0.81392 1.81775,1.81775 v 6.45266" /><path
               id="path13210"
               style="fill:#3f3f3f;fill-opacity:1;fill-rule:nonzero;stroke:none;stroke-width:0.00160981"
               d="m 640.11918,138.3821 c 0,0.42193 -0.34225,0.7637 -0.76386,0.7637 H 626.6668 c -0.42153,0 -0.76372,-0.34177 -0.76372,-0.7637 v -7.35395 h 14.2161 z m -15.23535,-8.37312 v 8.49466 c 0,0.91776 0.74406,1.66149 1.66175,1.66149 h 12.93096 c 0.91776,0 1.66181,-0.74373 1.66181,-1.66149 v -8.49466 h -16.25452" /></g><text
             xml:space="preserve"
             style="font-style:normal;font-variant:normal;font-weight:normal;font-stretch:normal;font-size:8.81944px;font-family:'Humanst521 BT';-inkscape-font-specification:'Humanst521 BT';fill:#3f3f3f;fill-opacity:1;stroke:none;stroke-width:3.92506;stroke-linecap:round;stroke-linejoin:miter;stroke-dasharray:none;stroke-opacity:1;paint-order:fill markers stroke"
             x="611.03418"
             y="125.88823"
             id="text13218"><tspan
               sodipodi:role="line"
               id="tspan13214"
               style="font-size:8.81944px;fill:#3f3f3f;fill-opacity:1;stroke:none;stroke-width:3.92506"
               x="611.03418"
               y="125.88823">PB</tspan><tspan
               sodipodi:role="line"
               style="font-size:8.81944px;fill:#3f3f3f;fill-opacity:1;stroke:none;stroke-width:3.92506"
               x="611.03418"
               y="136.91254"
               id="tspan13216">A3</tspan></text><text
             xml:space="preserve"
             style="font-style:normal;font-variant:normal;font-weight:normal;font-stretch:normal;font-size:8.81944px;font-family:'Humanst521 BT';-inkscape-font-specification:'Humanst521 BT';text-align:center;text-anchor:middle;fill:#3f3f3f;fill-opacity:1;stroke:none;stroke-width:2;stroke-linecap:round;stroke-linejoin:miter;stroke-dasharray:none;stroke-opacity:1;paint-order:fill markers stroke"
             x="665.35944"
             y="95.311493"
             id="text13224"
             transform="translate(-14.200399,30.929539)"><tspan
               sodipodi:role="line"
               id="tspan13220"
               style="text-align:start;text-anchor:start;fill:#3f3f3f;fill-opacity:1;stroke-width:2"
               x="665.35944"
               y="95.311493">Impresso preto e branco</tspan><tspan
               sodipodi:role="line"
               style="text-align:start;text-anchor:start;fill:#3f3f3f;fill-opacity:1;stroke-width:2"
               x="665.35944"
               y="106.33579"
               id="tspan13222">Folha A3 e A4, c/ scanner</tspan></text></g></g><text
         xml:space="preserve"
         style="font-style:normal;font-variant:normal;font-weight:normal;font-stretch:normal;font-size:44.2983px;font-family:'Humanst521 BT';-inkscape-font-specification:'Humanst521 BT';text-align:center;text-anchor:middle;display:inline;fill:#006633;fill-opacity:1;stroke:none;stroke-width:3.13924;stroke-linecap:round;stroke-linejoin:miter;stroke-dasharray:none;stroke-opacity:1;paint-order:fill markers stroke"
         x="-51.822636"
         y="24.641186"
         id="text13234"
         transform="scale(-1,1)"><tspan
           sodipodi:role="line"
           id="tspan13230"
           style="font-size:44.2983px;text-align:end;text-anchor:end;fill:#006633;fill-opacity:1;stroke-width:3.13924"
           x="-51.822647"
           y="24.641186"
           dy="20">IMPRESSORAS</tspan><tspan
           sodipodi:role="line"
           style="font-size:28.2222px;text-align:end;text-anchor:end;fill:#006633;fill-opacity:1;stroke-width:3.13924"
           x="-51.822643"
           y="80.014061"
           id="tspan13232">Santo Andr</tspan></text><g
         id="g13246"
         transform="matrix(-1.954096,0,0,1.954096,43.467723,9.1600875)"
         inkscape:label="ufabc"><path
           id="path13240"
           style="color:#000000;display:inline;fill:#006633;stroke-linecap:round;stroke-linejoin:round;-inkscape-stroke:none;paint-order:fill markers stroke"
           d="m 8.334134,22.198336 c -0.747342,1.329005 -1.1829733,2.857 -1.205708,4.485101 -0.072752,5.209923 4.110424,9.511564 9.320346,9.584316 3.916878,0.0547 7.320048,-2.296168 8.799068,-5.680292 1.384453,3.424206 4.722063,5.868676 8.639011,5.923373 5.209923,0.07275 9.511305,-4.109976 9.584057,-9.319898 0.03329,-2.384068 -0.826142,-4.576541 -2.265776,-6.262017 l -1.095841,1.489807 c 1.000822,1.314125 1.585916,2.961165 1.560979,4.747014 -0.05917,4.23723 -3.521132,7.605931 -7.758362,7.546762 -4.237231,-0.05917 -7.605793,-3.523438 -7.546624,-7.760667 0.01803,-1.291261 0.353726,-2.500954 0.929682,-3.558456 l -1.55338,-0.896845 c -0.142328,0.256567 -0.27365,0.51991 -0.391951,0.790498 -0.203203,-0.50275 -0.449284,-0.983944 -0.732695,-1.439812 l -7.758846,-4.479572 c -0.04851,-0.0014 -0.09664,-0.0039 -0.145353,-0.0046 -3.581821,-0.05002 -6.7344558,1.911437 -8.378607,4.835245 z M 17.264688,7.141507 c -0.747344,1.3292816 -1.182783,2.8577028 -1.205518,4.485806 -0.02496,1.787138 0.450929,3.466928 1.297213,4.906211 l 8.101655,4.677493 c 0.404001,0.0022 0.802841,-0.02105 1.194118,-0.06839 -0.13808,0.171445 -0.269995,0.348192 -0.39617,0.52909 l 1.557855,0.899428 c 1.410227,-1.94959 3.715276,-3.202191 6.312111,-3.165929 0.544237,0.0076 1.073882,0.07216 1.583977,0.186525 l 0.671806,-1.684499 c -0.714577,-0.184701 -1.461337,-0.289867 -2.231173,-0.300617 -0.431616,-0.006 -0.85651,0.01838 -1.273793,0.06894 1.277961,-1.587148 2.056038,-3.594922 2.086615,-5.784533 C 35.036136,6.6810951 30.853293,2.3778595 25.643366,2.305108 22.06154,2.2550912 18.908847,4.2170864 17.264688,7.141507 Z M 9.8997456,23.068828 c 1.3270204,-2.368046 3.8745854,-3.947636 6.7876804,-3.906957 4.237227,0.05917 7.606051,3.522989 7.546882,7.76022 -0.05917,4.237231 -3.522994,7.60605 -7.76022,7.546882 -4.23723,-0.05917 -7.6060511,-3.522989 -7.5468822,-7.76022 0.01849,-1.324135 0.3693491,-2.563541 0.9725398,-3.639925 z M 18.830042,8.0124454 c 1.327019,-2.3680465 3.875029,-3.9473768 6.788128,-3.9066985 4.237234,0.059168 7.606052,3.5229855 7.546882,7.7602201 -0.05917,4.237231 -3.523554,7.603933 -7.760788,7.544764 -4.237235,-0.05917 -7.605932,-3.521129 -7.546762,-7.758361 0.01849,-1.324136 0.36935,-2.5635406 0.97254,-3.6399246 z" /><path
           id="path13242"
           style="color:#000000;display:inline;fill:#ffcc00;fill-opacity:1;stroke-linecap:square;stroke-linejoin:round;-inkscape-stroke:none;paint-order:fill markers stroke"
           d="m 10.712913,13.590589 c 1.511714,2.127594 0.841094,3.51032 0.841094,3.51032 3.540487,2.093834 9.180013,5.329539 12.209675,7.062388 0.0019,0.005 0.0037,0.01013 0.0056,0.01516 1.02033,0.586663 1.832552,1.052597 2.70982,1.556202 0.156723,-0.903913 0.471304,-1.750746 0.913301,-2.514127 -5.614219,-3.241133 -11.601255,-6.69879 -16.679481,-9.629903 z"
           sodipodi:nodetypes="ccccccc" /><path
           id="path13244"
           style="color:#000000;fill:#ffcc00;fill-opacity:1;stroke-width:1.11584;stroke-linecap:square;stroke-linejoin:round;-inkscape-stroke:none;paint-order:fill markers stroke"
           d="M 8.7029207,8.6446051 C 8.0769649,11.458628 10.302575,12.666274 10.302575,12.666274 l -0.01631,0.03444 c 6.168362,3.651995 11.994869,6.879284 17.400454,10.046157 0.536647,-0.797659 1.197482,-1.449611 1.98795,-1.994222 L 28.833311,20.26689 27.074066,19.25119 18.237119,14.149176 16.13238,12.934005 Z"
           sodipodi:nodetypes="cccccccccc" /></g></g></g></svg>
