<svg xmlns="http://www.w3.org/2000/svg" viewBox="0 0 1198.78 307.34"><defs><style>.cls-1{fill:#f88013;}.cls-2{fill:#343434;}</style></defs><g id="Layer_2" data-name="Layer 2"><g id="Layer_1-2" data-name="Layer 1"><path class="cls-1" d="M871.14,144.48V76.89q0-36.18,0-72.37c0-4.48,0-4.5,4.6-4.5h43c5.42,0,5-.51,5,5.19V227.3q0,34.44,0,68.88c0,4.95,0,5-4.88,5q-21.48,0-43,0c-4.73,0-4.73,0-4.74-5,0-3.65,0-7.31,0-11.69-2.49,2.09-4.47,4-6.66,5.56-8.94,6.45-19.18,9.95-29.83,12-24.23,4.65-47.13,1.4-67.25-13.72A83.33,83.33,0,0,1,737,243.82c-7.06-24.4-6.69-48.73,3.4-72.19,12.38-28.78,34.55-45.12,65.81-48.93a84.44,84.44,0,0,1,42.1,5.22C856.9,131.34,864.08,136.88,871.14,144.48Zm0,69.63c-.3-5,.91-11.37-.44-17.55-3.85-17.62-15.67-28.26-31.78-34.84a23.07,23.07,0,0,0-7.82-1.32c-17.36-.75-29.48,7.44-37.57,22.25-4.28,7.85-6.19,16.37-6.81,25.27-1.1,15.77,1.92,30.46,11.79,43.12,9.61,12.31,22.44,17.88,37.79,14.25,13-3.08,23.2-11.24,30.84-22.24a23,23,0,0,0,4-14.13C871,224.43,871.14,220,871.14,214.11Z"/><path class="cls-1" d="M1057.44,230.08c3.47,24.3,29,43.06,53,39.07,8.51-1.42,16.45-4,23.26-9.49a23.72,23.72,0,0,0,7.41-9.23c.62-1.48,1.33-2.45,3.22-2.45,17.81.07,35.61,0,53.63,0,.46,2.33-.93,4.3-1.87,6.31a83.79,83.79,0,0,1-45.65,43.18c-29.46,11.95-59.75,13.37-89.64,2.22-33.71-12.58-52.75-37.43-56.9-73.36-1.84-15.91-.61-31.59,4.71-46.71,9.21-26.25,27.8-43.52,53.7-52.47a113.07,113.07,0,0,1,73.52-.75c27.46,9,45.12,28.38,55.17,55.07,5.21,13.85,7.07,28.31,7.72,43,.23,5.15.12,5.17-5,5.17q-65.45,0-130.88,0C1061,229.68,1059.19,229.32,1057.44,230.08Zm44.19-33.52c13.13,0,26.26-.08,39.39.06,3,0,3.7-.76,2.91-3.63a57.15,57.15,0,0,0-9.59-20.06c-14.23-18.52-39.95-22.21-57.39-8-8.75,7.14-14.12,16.6-17.2,27.39-1.18,4.14-1.18,4.21,3,4.22C1075.71,196.58,1088.67,196.56,1101.63,196.56Z"/><path class="cls-1" d="M439.27,305.72c-27.9.36-50.59-7.47-69.32-25.5-16.17-15.55-24.6-34.75-26.42-57-1.48-18.22.36-36,8.68-52.41,14.24-28.14,37.41-44.35,68.53-48.93,18.89-2.77,37.66-1.73,55.36,6,34.41,15,53.13,41.31,55.47,79,1.09,17.39-1.13,34.29-9.34,49.8-14.22,26.89-36.71,42.7-66.68,47.91A86.83,86.83,0,0,1,439.27,305.72Zm-42.1-91.4c-.13,11.94,2.74,23.86,10.38,34.33,14.14,19.36,43.12,20,58.24,1.4,8.91-11,12.22-23.71,12-37.56-.17-11.85-2.83-23-9.59-32.93-14.08-20.8-48.83-21.15-62.19,1.25A62.51,62.51,0,0,0,397.17,214.32Z"/><path class="cls-1" d="M631.23,305.73c-28.64.27-53.05-9.37-72.28-31-12.34-13.89-19-30.31-20.93-48.64-2-19.16-.42-38,8.46-55.41,14.12-27.74,37-44,67.62-48.7,20.94-3.24,41.63-1.65,60.91,7.89,29.66,14.67,46.81,38.45,50.39,71.6,2.29,21.21-.47,41.59-11.64,60.06C698.94,286,677,300.21,648.65,304.65A112.82,112.82,0,0,1,631.23,305.73ZM591.3,218.24c0,5.57,1.93,15.71,7.07,25.13,13.87,25.41,47.17,27.36,63.89,3.74,6.14-8.66,9-18.44,9.7-28.87.87-13.38-1.56-26.05-8.78-37.63-13.79-22.1-50.28-22.64-63.56,1.2C594.14,191.65,591.35,202,591.3,218.24Z"/><path class="cls-1" d="M191.85,133.26c3.43,1.41,5.54,6.22,8.7,5.93,2.81-.26,5.11-4.37,7.93-6.36,7.19-5.08,15.37-7.86,24-9.25,19.64-3.16,39.16-2.81,58.23,3.33,16.75,5.4,30.32,15,38.33,31.26a63.66,63.66,0,0,1,6.53,28.42q.07,55.16,0,110.32c0,4.61,0,4.63-4.47,4.64H286.64c-4.85,0-4.87,0-4.87-4.81q0-48.67,0-97.34c0-6.33-.17-12.62-2.07-18.75-3.24-10.45-10.52-16.33-21.43-17.15a37.54,37.54,0,0,0-11.92.61c-10,2.48-15.29,9.41-17.6,19A54.51,54.51,0,0,0,227.5,196q0,50.17,0,100.34c0,5.19,0,5.21-5,5.21H178.08c-4.49,0-4.52,0-4.52-4.62q0-49.92,0-99.84a73.13,73.13,0,0,0-1.14-12.4c-1.32-7.85-5.14-14.29-11.94-18.74A117,117,0,0,0,191.85,133.26Z"/><path class="cls-1" d="M993.67,150.29q0,72.63,0,145.27c0,5.6,0,5.61-5.76,5.61h-43c-5.45,0-5.46,0-5.46-5.41q0-91.11,0-182.22,0-54.16,0-108.33c0-5.7-.42-5.19,5-5.19Q966.23,0,988,0c6.39,0,5.7-.87,5.71,6Q993.68,78.15,993.67,150.29Z"/><path class="cls-2" d="M191.85,133.26A117,117,0,0,1,160.5,166c-12.11,7.8-25.51,12.31-39.4,15.59-4.78.3-9.55.79-14.34.85a116.14,116.14,0,0,1-39.86-6.61C65.38,166.24,65.25,156.6,65,147c-.06-2.53-.67-3.39-3.34-3.41-15.62-.09-31.25-.29-46.87-.68-3.38-.08-4.72.91-4.82,4.31-.43,13.63-.87,27.29.17,40.88.56,7.38,3.18,14.55,4.15,22a204,204,0,0,1,.63,43.49C6.42,236.24-.43,218.61,4.45,198.82c1.48-6,2.48-11.86,2-18.11-1-11.1-.47-22.24.37-33.35.21-2.7.37-5.07-3.6-4.46-1.17.18-2.88.31-3.15-1.56-.22-1.55,1.32-1.78,2.23-2.31,42.69-25,87.44-44.68,136.32-54.12,26-5,52.13-8.52,78.32-11.9a5.41,5.41,0,0,1,1.49-.11c1.52.22,3.6-1.4,4.47.7,1,2.4-1.6,3-2.9,3.92-16.32,12-32.7,23.91-49.45,36.12C177.82,120.25,185.6,126,191.85,133.26Z"/><path class="cls-1" d="M66.9,175.78a116.14,116.14,0,0,0,39.86,6.61c4.79-.06,9.56-.55,14.34-.85-1.53,6.86-1.52,13.83-1.51,20.81q0,46.86,0,93.71c0,6.17.75,5.47-5.67,5.48-14.8,0-29.6-.06-44.39.08-3,0-4-.66-4-3.83q.24-56.57.21-113.14A32.36,32.36,0,0,1,66.9,175.78Z"/></g></g></svg>