<?xml version="1.0" encoding="UTF-8" standalone="no"?>
<!-- Created with Inkscape (http://www.inkscape.org/) -->

<svg
   width="50mm"
   height="40mm"
   viewBox="0 0 50 40.000002"
   version="1.1"
   id="svg11168"
   xml:space="preserve"
   inkscape:version="1.2.2 (732a01da63, 2022-12-09)"
   sodipodi:docname="acesso.svg"
   xmlns:inkscape="http://www.inkscape.org/namespaces/inkscape"
   xmlns:sodipodi="http://sodipodi.sourceforge.net/DTD/sodipodi-0.dtd"
   xmlns="http://www.w3.org/2000/svg"
   xmlns:svg="http://www.w3.org/2000/svg"><sodipodi:namedview
     id="namedview11170"
     pagecolor="#ffffff"
     bordercolor="#000000"
     borderopacity="0.25"
     inkscape:showpageshadow="2"
     inkscape:pageopacity="0.0"
     inkscape:pagecheckerboard="0"
     inkscape:deskcolor="#d1d1d1"
     inkscape:document-units="mm"
     showgrid="false"
     inkscape:zoom="3.6203867"
     inkscape:cx="129.68228"
     inkscape:cy="55.518931"
     inkscape:window-width="1920"
     inkscape:window-height="1017"
     inkscape:window-x="-8"
     inkscape:window-y="-8"
     inkscape:window-maximized="1"
     inkscape:current-layer="layer1"
     showguides="true"><sodipodi:guide
       position="1.2641127,48.73387"
       orientation="1,0"
       id="guide5791"
       inkscape:locked="false" /></sodipodi:namedview><defs
     id="defs11165" /><g
     inkscape:label="Camada 1"
     inkscape:groupmode="layer"
     id="layer1"
     transform="translate(-1.767243,-50.88482)"><g
       id="g680"
       transform="translate(0,-0.287825)"><path
         id="rect650"
         style="display:inline;fill:#ffcc00;fill-opacity:1;stroke-width:0.103411;stroke-linecap:round;stroke-linejoin:bevel"
         d="m 4.0619167,63.88482 c -1.271031,0 -2.2946737,1.023098 -2.2946737,2.294129 v 8.059169 c 0,1.271029 1.0236427,2.294128 2.2946737,2.294128 h 6.1456683 l 0.929758,1.928224 0.930302,-1.928224 h 0.477148 c 1.271032,0 2.294129,-1.023099 2.294129,-2.294128 v -8.059169 c 0,-1.271031 -1.023097,-2.294129 -2.294129,-2.294129 z" /><g
         aria-label="acesso"
         id="text924"
         style="font-weight:bold;font-size:16.6018px;font-family:'Futura LT Pro';-inkscape-font-specification:'Futura LT Pro Bold';fill:#f67f12;stroke-width:0.196084;stroke-linecap:round;stroke-linejoin:bevel"
         transform="matrix(1.0552435,0,0,1.0552435,-1.3698421,0.16337789)"><path
           d="m 12.458106,70.180329 q 0,0.113488 -0.08106,0.178339 -0.08106,0.06485 -0.259403,0.08917 -0.170233,0.03242 -0.5107,0.03242 -0.364786,0 -0.535019,-0.03242 -0.162127,-0.02432 -0.235084,-0.08917 -0.06485,-0.06485 -0.06485,-0.178339 v -0.575551 q -0.445849,0.478274 -1.0213996,0.745784 -0.5674443,0.267509 -1.2645903,0.267509 -0.5755507,0 -1.0619316,-0.15402 Q 6.945789,70.318136 6.5891097,70.026308 6.2405367,69.726373 6.0459844,69.28863 5.851432,68.850887 5.851432,68.26723 q 0,-0.632295 0.2431904,-1.094357 Q 6.3459192,66.702705 6.8323001,66.40277 7.3267874,66.094729 8.0563587,65.948815 8.78593,65.802901 9.7505854,65.802901 h 0.7052526 v -0.437743 q 0,-0.340467 -0.07296,-0.591764 -0.06485,-0.259403 -0.226978,-0.429636 -0.154021,-0.170233 -0.4215303,-0.251297 -0.2594031,-0.08106 -0.6485078,-0.08106 -0.5106999,0 -0.9160173,0.113489 -0.3972111,0.113488 -0.7052523,0.251296 -0.3080412,0.137808 -0.5188063,0.251297 -0.2026587,0.113489 -0.3323603,0.113489 -0.08917,0 -0.1621269,-0.05674 -0.064851,-0.05674 -0.1134889,-0.162127 -0.040532,-0.105383 -0.064851,-0.259404 -0.024319,-0.15402 -0.024319,-0.340466 0,-0.251297 0.040532,-0.397211 0.040532,-0.145914 0.1540206,-0.259403 0.1134889,-0.121596 0.3972111,-0.259403 0.2837222,-0.145915 0.6647205,-0.26751 0.3809984,-0.121595 0.8268475,-0.194552 0.4539555,-0.08106 0.9322301,-0.08106 0.8511663,0 1.4510363,0.170233 0.607976,0.162127 0.997081,0.5107 0.389104,0.340467 0.567444,0.883592 0.17834,0.543126 0.17834,1.28891 z M 10.455838,67.083704 H 9.6776283 q -0.4944872,0 -0.8430602,0.07296 -0.348573,0.07296 -0.5674444,0.218871 -0.2188714,0.145914 -0.3242539,0.356679 -0.097276,0.202659 -0.097276,0.470169 0,0.453955 0.2837222,0.713358 0.2918286,0.259403 0.8025285,0.259403 0.4296364,0 0.7863158,-0.218871 0.3647857,-0.218871 0.7376777,-0.640401 z"
           style="font-family:Calibri;-inkscape-font-specification:'Calibri Bold';fill:#ffffff;fill-opacity:1"
           id="path976" /><path
           d="m 19.964584,69.004908 q 0,0.210765 -0.01621,0.356679 -0.0081,0.137808 -0.03242,0.235085 -0.01621,0.09728 -0.04864,0.162126 -0.02432,0.05675 -0.121595,0.154021 -0.09728,0.08917 -0.33236,0.226978 -0.235084,0.129701 -0.535019,0.235084 -0.299935,0.105382 -0.656614,0.170233 -0.348573,0.06485 -0.721465,0.06485 -0.834954,0 -1.483462,-0.259403 -0.640401,-0.259403 -1.078144,-0.761997 -0.437743,-0.5107 -0.664721,-1.240271 -0.218871,-0.729571 -0.218871,-1.669908 0,-1.08625 0.267509,-1.872566 0.275616,-0.794422 0.761997,-1.313229 0.486381,-0.518806 1.151102,-0.770103 0.66472,-0.251296 1.459142,-0.251296 0.324254,0 0.632295,0.05674 0.316148,0.05674 0.583657,0.154021 0.275616,0.09728 0.486381,0.218871 0.218872,0.121595 0.308042,0.210765 0.08917,0.08917 0.121595,0.154021 0.04053,0.05674 0.05674,0.15402 0.02432,0.09728 0.03243,0.243191 0.01621,0.137808 0.01621,0.340466 0,0.470169 -0.08106,0.664721 -0.08106,0.186446 -0.210765,0.186446 -0.137808,0 -0.291829,-0.113489 -0.15402,-0.113489 -0.364785,-0.251297 -0.210766,-0.137808 -0.502594,-0.251297 -0.291829,-0.113488 -0.697146,-0.113488 -0.794422,0 -1.215952,0.616082 -0.42153,0.607976 -0.42153,1.791503 0,0.583657 0.105382,1.029506 0.105383,0.445849 0.308041,0.745784 0.210766,0.299935 0.518807,0.453956 0.316147,0.145914 0.729571,0.145914 0.42153,0 0.721465,-0.121595 0.308041,-0.129702 0.535019,-0.283722 0.226978,-0.154021 0.380998,-0.275616 0.154021,-0.129702 0.259404,-0.129702 0.07296,0 0.121595,0.04053 0.04864,0.04053 0.07296,0.15402 0.03242,0.105383 0.04864,0.275616 0.01621,0.170234 0.01621,0.437743 z"
           style="font-family:Calibri;-inkscape-font-specification:'Calibri Bold';fill:#ffcc00;fill-opacity:1"
           id="path978" /><path
           d="m 28.11957,66.329813 q 0,0.372892 -0.170233,0.551232 -0.162127,0.17834 -0.453956,0.17834 h -4.401747 q 0,0.462061 0.105383,0.84306 0.113489,0.372892 0.348573,0.640401 0.24319,0.259403 0.616082,0.397211 0.380999,0.137808 0.907911,0.137808 0.535019,0 0.940337,-0.07296 0.405317,-0.08106 0.697146,-0.170233 0.299935,-0.09728 0.494487,-0.170234 0.194552,-0.08106 0.316147,-0.08106 0.07296,0 0.121596,0.03243 0.04864,0.02432 0.08106,0.09728 0.03243,0.07296 0.04053,0.210765 0.01621,0.129701 0.01621,0.33236 0,0.17834 -0.0081,0.308041 -0.0081,0.121595 -0.02432,0.210765 -0.01621,0.08917 -0.04864,0.154021 -0.03242,0.05674 -0.08917,0.113489 -0.04864,0.05674 -0.283722,0.15402 -0.235084,0.09728 -0.59987,0.194553 -0.364785,0.08917 -0.834954,0.15402 -0.470168,0.07296 -1.005187,0.07296 -0.964655,0 -1.694226,-0.24319 -0.721465,-0.243191 -1.207846,-0.737678 -0.486381,-0.494487 -0.729572,-1.248377 -0.235084,-0.753891 -0.235084,-1.767184 0,-0.964656 0.251297,-1.734759 0.251297,-0.778209 0.729571,-1.313228 0.478275,-0.543125 1.159208,-0.826848 0.68904,-0.283722 1.548313,-0.283722 0.907911,0 1.548312,0.26751 0.648508,0.267509 1.061932,0.745784 0.413424,0.470168 0.607976,1.118676 0.194552,0.648508 0.194552,1.410504 z m -1.977949,-0.583657 q 0.02432,-0.859273 -0.348573,-1.345654 -0.364785,-0.494487 -1.134888,-0.494487 -0.389105,0 -0.680934,0.145914 -0.283722,0.145915 -0.478274,0.397211 -0.186446,0.243191 -0.291829,0.583658 -0.09728,0.33236 -0.113489,0.713358 z"
           style="font-family:Calibri;-inkscape-font-specification:'Calibri Bold';fill:#ffcc00;fill-opacity:1"
           id="path980" /><path
           d="m 34.888371,68.11321 q 0,0.616082 -0.235084,1.08625 -0.226978,0.470169 -0.648508,0.786316 -0.42153,0.316148 -0.997081,0.470168 -0.57555,0.162127 -1.248377,0.162127 -0.405318,0 -0.77821,-0.06485 -0.364785,-0.05674 -0.656614,-0.145915 -0.291828,-0.09728 -0.486381,-0.194552 -0.194552,-0.09728 -0.283722,-0.17834 -0.08917,-0.08917 -0.137808,-0.267509 -0.04864,-0.186446 -0.04864,-0.543126 0,-0.235084 0.01621,-0.372892 0.01621,-0.145914 0.04864,-0.226977 0.03242,-0.08917 0.08106,-0.113489 0.04864,-0.03243 0.121595,-0.03243 0.08917,0 0.259404,0.105383 0.178339,0.09728 0.437742,0.218871 0.259404,0.121596 0.59987,0.226978 0.348573,0.105383 0.786316,0.105383 0.275616,0 0.486381,-0.05674 0.218871,-0.05674 0.372892,-0.162127 0.162127,-0.105382 0.24319,-0.267509 0.08106,-0.162127 0.08106,-0.372892 0,-0.243191 -0.154021,-0.413424 -0.145914,-0.17834 -0.397211,-0.308041 -0.24319,-0.129702 -0.559338,-0.243191 -0.308041,-0.113489 -0.640401,-0.251296 -0.324254,-0.137808 -0.640402,-0.316148 -0.308041,-0.17834 -0.559338,-0.437743 -0.24319,-0.259403 -0.397211,-0.624189 -0.145914,-0.364785 -0.145914,-0.875485 0,-0.518806 0.202658,-0.948443 0.202659,-0.437743 0.583657,-0.745784 0.380999,-0.308041 0.924124,-0.478275 0.551232,-0.170233 1.232165,-0.170233 0.340467,0 0.656614,0.04864 0.324254,0.04864 0.583657,0.121595 0.259403,0.07296 0.437743,0.162127 0.17834,0.08106 0.251297,0.145915 0.08106,0.05674 0.113489,0.121595 0.03243,0.05674 0.04864,0.145914 0.01621,0.08106 0.02432,0.210765 0.01621,0.121595 0.01621,0.308041 0,0.218872 -0.01621,0.35668 -0.0081,0.137808 -0.04053,0.218871 -0.02432,0.08106 -0.07296,0.113489 -0.04864,0.02432 -0.113489,0.02432 -0.07296,0 -0.226978,-0.08106 -0.15402,-0.08917 -0.389104,-0.186446 -0.226978,-0.09728 -0.535019,-0.17834 -0.299935,-0.08917 -0.68904,-0.08917 -0.275616,0 -0.478274,0.05675 -0.202659,0.05674 -0.332361,0.162127 -0.129701,0.105382 -0.194552,0.251296 -0.06485,0.137808 -0.06485,0.299935 0,0.251297 0.154021,0.42153 0.15402,0.170234 0.405317,0.299935 0.251297,0.129702 0.567445,0.243191 0.324254,0.113489 0.648507,0.251296 0.332361,0.129702 0.648508,0.308042 0.324254,0.178339 0.575551,0.437742 0.251297,0.259404 0.405317,0.624189 0.154021,0.35668 0.154021,0.851167 z"
           style="font-family:Calibri;-inkscape-font-specification:'Calibri Bold';fill:#ffcc00;fill-opacity:1"
           id="path982" /><path
           d="m 41.511256,68.11321 q 0,0.616082 -0.235084,1.08625 -0.226978,0.470169 -0.648508,0.786316 -0.42153,0.316148 -0.997081,0.470168 -0.575551,0.162127 -1.248378,0.162127 -0.405317,0 -0.778209,-0.06485 -0.364786,-0.05674 -0.656614,-0.145915 -0.291829,-0.09728 -0.486381,-0.194552 -0.194552,-0.09728 -0.283722,-0.17834 -0.08917,-0.08917 -0.137808,-0.267509 -0.04864,-0.186446 -0.04864,-0.543126 0,-0.235084 0.01621,-0.372892 0.01621,-0.145914 0.04864,-0.226977 0.03243,-0.08917 0.08106,-0.113489 0.04864,-0.03243 0.121595,-0.03243 0.08917,0 0.259403,0.105383 0.17834,0.09728 0.437743,0.218871 0.259403,0.121596 0.59987,0.226978 0.348573,0.105383 0.786316,0.105383 0.275616,0 0.486381,-0.05674 0.218871,-0.05674 0.372892,-0.162127 0.162127,-0.105382 0.24319,-0.267509 0.08106,-0.162127 0.08106,-0.372892 0,-0.243191 -0.15402,-0.413424 -0.145914,-0.17834 -0.397211,-0.308041 -0.243191,-0.129702 -0.559338,-0.243191 -0.308041,-0.113489 -0.640402,-0.251296 -0.324254,-0.137808 -0.640401,-0.316148 -0.308041,-0.17834 -0.559338,-0.437743 -0.243191,-0.259403 -0.397211,-0.624189 -0.145915,-0.364785 -0.145915,-0.875485 0,-0.518806 0.202659,-0.948443 0.202659,-0.437743 0.583657,-0.745784 0.380999,-0.308041 0.924124,-0.478275 0.551232,-0.170233 1.232165,-0.170233 0.340466,0 0.656614,0.04864 0.324254,0.04864 0.583657,0.121595 0.259403,0.07296 0.437743,0.162127 0.17834,0.08106 0.251297,0.145915 0.08106,0.05674 0.113489,0.121595 0.03243,0.05674 0.04864,0.145914 0.01621,0.08106 0.02432,0.210765 0.01621,0.121595 0.01621,0.308041 0,0.218872 -0.01621,0.35668 -0.0081,0.137808 -0.04053,0.218871 -0.02432,0.08106 -0.07296,0.113489 -0.04864,0.02432 -0.113489,0.02432 -0.07296,0 -0.226978,-0.08106 -0.15402,-0.08917 -0.389105,-0.186446 -0.226977,-0.09728 -0.535018,-0.17834 -0.299935,-0.08917 -0.68904,-0.08917 -0.275616,0 -0.478275,0.05675 -0.202658,0.05674 -0.33236,0.162127 -0.129701,0.105382 -0.194552,0.251296 -0.06485,0.137808 -0.06485,0.299935 0,0.251297 0.154021,0.42153 0.15402,0.170234 0.405317,0.299935 0.251297,0.129702 0.567444,0.243191 0.324254,0.113489 0.648508,0.251296 0.33236,0.129702 0.648508,0.308042 0.324254,0.178339 0.575551,0.437742 0.251297,0.259404 0.405317,0.624189 0.154021,0.35668 0.154021,0.851167 z"
           style="font-family:Calibri;-inkscape-font-specification:'Calibri Bold';fill:#ffcc00;fill-opacity:1"
           id="path984" /><path
           d="m 50.355282,66.467621 q 0,0.924124 -0.243191,1.686121 -0.24319,0.761996 -0.737677,1.313228 -0.494488,0.551232 -1.240272,0.851166 -0.745784,0.299935 -1.742864,0.299935 -0.964656,0 -1.678014,-0.267509 -0.713359,-0.26751 -1.183527,-0.77821 -0.470168,-0.510699 -0.697146,-1.256483 -0.226978,-0.745785 -0.226978,-1.702334 0,-0.924123 0.24319,-1.68612 0.251297,-0.770103 0.745784,-1.313228 0.494488,-0.551232 1.232165,-0.851167 0.745784,-0.299935 1.742865,-0.299935 0.972762,0 1.686121,0.26751 0.713358,0.259403 1.17542,0.770103 0.470168,0.5107 0.697146,1.256484 0.226978,0.745784 0.226978,1.710439 z m -2.099544,0.08106 q 0,-0.535019 -0.08917,-0.980868 -0.08106,-0.453956 -0.283722,-0.786316 -0.202659,-0.332361 -0.543126,-0.518807 -0.33236,-0.186446 -0.84306,-0.186446 -0.453955,0 -0.794422,0.170234 -0.340467,0.162127 -0.559338,0.486381 -0.218871,0.316147 -0.33236,0.770103 -0.105383,0.445849 -0.105383,1.0214 0,0.535019 0.08917,0.988974 0.08917,0.445849 0.283722,0.778209 0.202659,0.332361 0.543126,0.518807 0.340466,0.178339 0.84306,0.178339 0.462062,0 0.802528,-0.162127 0.340467,-0.170233 0.559338,-0.48638 0.218872,-0.316148 0.324254,-0.761997 0.105383,-0.453956 0.105383,-1.029506 z"
           style="font-family:Calibri;-inkscape-font-specification:'Calibri Bold';fill:#ffcc00;fill-opacity:1"
           id="path986" /></g></g></g></svg>
