<?xml version="1.0" encoding="UTF-8" standalone="no"?>
<!-- Created with Inkscape (http://www.inkscape.org/) -->

<svg
   width="50mm"
   height="40mm"
   viewBox="0 0 50 40"
   version="1.1"
   id="svg275"
   xml:space="preserve"
   inkscape:version="1.2.2 (732a01da63, 2022-12-09)"
   sodipodi:docname="aval-prograd.svg"
   xmlns:inkscape="http://www.inkscape.org/namespaces/inkscape"
   xmlns:sodipodi="http://sodipodi.sourceforge.net/DTD/sodipodi-0.dtd"
   xmlns="http://www.w3.org/2000/svg"
   xmlns:svg="http://www.w3.org/2000/svg"><sodipodi:namedview
     id="namedview277"
     pagecolor="#ffffff"
     bordercolor="#000000"
     borderopacity="0.25"
     inkscape:showpageshadow="2"
     inkscape:pageopacity="0.0"
     inkscape:pagecheckerboard="0"
     inkscape:deskcolor="#d1d1d1"
     inkscape:document-units="mm"
     showgrid="false"
     showguides="true"
     inkscape:zoom="4.2179991"
     inkscape:cx="139.28405"
     inkscape:cy="76.813672"
     inkscape:window-width="1920"
     inkscape:window-height="1017"
     inkscape:window-x="-8"
     inkscape:window-y="-8"
     inkscape:window-maximized="1"
     inkscape:current-layer="layer1" /><defs
     id="defs272" /><g
     inkscape:label="Camada 1"
     inkscape:groupmode="layer"
     id="layer1"
     transform="matrix(1.1716272,0,0,1.1716272,-4.5718521,0)"><g
       id="g513"
       transform="translate(0.94374127)"><path
         id="rect626"
         style="color:#000000;fill:#236349;stroke-width:0.75;stroke-linecap:round;stroke-linejoin:bevel;-inkscape-stroke:none;paint-order:fill markers stroke"
         d="m 14.094152,4.2675691 c -0.905481,0 -1.656875,0.751393 -1.656875,1.6568757 V 27.397553 c 0,0.905482 0.751394,1.656875 1.656875,1.656875 h 9.224631 C 22.88434,28.62384 22.498289,28.144496 22.16459,27.630484 h -8.070438 c -0.141592,0 -0.232931,-0.09134 -0.232931,-0.232931 V 5.9244448 c 0,-0.1415917 0.09134,-0.2329316 0.232931,-0.2329316 h 19.394554 c 0.141591,0 0.232931,0.09134 0.232931,0.2329316 v 9.8207182 c 0.511556,0.318737 0.989852,0.690339 1.423944,1.108072 V 5.9244448 c 0,-0.9054824 -0.751393,-1.6568757 -1.656875,-1.6568757 z" /><g
         id="g3905"
         style="display:inline"
         transform="matrix(0.75000001,0,0,0.75000001,5.6698606,2.8219209)"><path
           id="rect1626"
           style="opacity:1;fill:#5f9077;stroke-width:2.59196;stroke-linecap:round;stroke-linejoin:bevel;paint-order:fill markers stroke"
           d="M 14.979939,8.0725803 H 32.94365 c 0.675746,0 1.219758,0.5440121 1.219758,1.2197581 0,0.6757459 -0.544012,1.2197576 -1.219758,1.2197576 H 14.979939 c -0.675745,0 -1.219758,-0.5440117 -1.219758,-1.2197576 0,-0.675746 0.544013,-1.2197581 1.219758,-1.2197581 z" /><path
           id="rect1626-2"
           style="opacity:1;fill:#5f9077;stroke-width:2.59196;stroke-linecap:round;stroke-linejoin:bevel;paint-order:fill markers stroke"
           d="M 14.979939,14.211137 H 32.94365 c 0.675746,0 1.219758,0.544012 1.219758,1.219758 0,0.675746 -0.544012,1.219758 -1.219758,1.219758 H 14.979939 c -0.675745,0 -1.219758,-0.544012 -1.219758,-1.219758 0,-0.675746 0.544013,-1.219758 1.219758,-1.219758 z" /><path
           id="rect1626-2-2"
           style="opacity:1;fill:#5f9077;fill-opacity:1;stroke:none;stroke-width:2.59196;stroke-linecap:round;stroke-linejoin:bevel;stroke-dasharray:none;stroke-opacity:1;paint-order:fill markers stroke"
           d="m 14.979964,20.232874 c -0.675745,0 -1.219564,0.544335 -1.219564,1.22008 0,0.675745 0.543819,1.219564 1.219564,1.219564 h 5.932455 C 21.25283,21.811346 21.694036,20.990154 22.225,20.232874 Z" /><path
           id="rect1626-2-2-3"
           style="opacity:1;fill:#5f9077;fill-opacity:1;stroke:none;stroke-width:2.59196;stroke-linecap:round;stroke-linejoin:bevel;stroke-dasharray:none;stroke-opacity:1;paint-order:fill markers stroke"
           d="m 14.979964,26.317257 c -0.675745,0 -1.219564,0.544335 -1.219564,1.22008 0,0.675746 0.543819,1.219564 1.219564,1.219564 h 5.296835 c -0.144253,-0.803844 -0.201745,-1.622607 -0.165365,-2.439644 z" /></g><path
         id="path3735"
         style="display:inline;opacity:1;fill:#236349;fill-opacity:1;stroke:none;stroke-width:1.4535;stroke-linecap:round;stroke-linejoin:bevel;stroke-dasharray:none;stroke-opacity:1;paint-order:fill markers stroke"
         d="m 29.23974,16.041656 a 6.9156755,6.9156755 0 0 0 -6.915857,6.915858 6.9156755,6.9156755 0 0 0 6.915857,6.915469 6.9156755,6.9156755 0 0 0 6.915469,-6.915469 6.9156755,6.9156755 0 0 0 -6.915469,-6.915858 z m 3.49126,3.079658 a 0.82500001,0.82500001 0 0 1 0.527875,0.199212 0.82500001,0.82500001 0 0 1 0.08759,1.164658 l -4.939233,5.739184 a 0.82508251,0.82508251 0 0 1 -1.260001,-0.01202 l -2.7758,-3.339719 a 0.82500001,0.82500001 0 0 1 0.106971,-1.161556 0.82500001,0.82500001 0 0 1 1.161557,0.10697 l 2.151806,2.589764 4.304001,-4.999307 a 0.82500001,0.82500001 0 0 1 0.635233,-0.287192 z" /></g></g></svg>
