<?xml version="1.0" encoding="UTF-8" standalone="no"?>
<!-- Created with Inkscape (http://www.inkscape.org/) -->

<svg
   width="50mm"
   height="40mm"
   viewBox="0 0 50 40"
   version="1.1"
   id="svg275"
   xml:space="preserve"
   inkscape:version="1.2.2 (732a01da63, 2022-12-09)"
   sodipodi:docname="central.svg"
   xmlns:inkscape="http://www.inkscape.org/namespaces/inkscape"
   xmlns:sodipodi="http://sodipodi.sourceforge.net/DTD/sodipodi-0.dtd"
   xmlns="http://www.w3.org/2000/svg"
   xmlns:svg="http://www.w3.org/2000/svg"><sodipodi:namedview
     id="namedview277"
     pagecolor="#ffffff"
     bordercolor="#000000"
     borderopacity="0.25"
     inkscape:showpageshadow="2"
     inkscape:pageopacity="0.0"
     inkscape:pagecheckerboard="0"
     inkscape:deskcolor="#d1d1d1"
     inkscape:document-units="mm"
     showgrid="false"
     showguides="true"
     inkscape:zoom="2.9825758"
     inkscape:cx="30.00762"
     inkscape:cy="86.167133"
     inkscape:window-width="1920"
     inkscape:window-height="1017"
     inkscape:window-x="-8"
     inkscape:window-y="-8"
     inkscape:window-maximized="1"
     inkscape:current-layer="layer1" /><defs
     id="defs272" /><g
     inkscape:label="Camada 1"
     inkscape:groupmode="layer"
     id="layer1"
     transform="matrix(1.1716272,0,0,1.1716272,-4.5718521,0)"><g
       id="g2190"
       transform="matrix(0.81282437,0,0,0.81282437,4.9441966,2.6112605)"><path
         id="path362"
         style="display:inline;opacity:1;fill:#007338;fill-opacity:1;stroke:none;stroke-width:0.299856;stroke-linecap:round;stroke-linejoin:round;paint-order:fill markers stroke"
         d="M 24.969242,2.0377201 11.328851,9.9129445 V 25.664275 L 24.969242,33.5395 38.610074,25.664275 V 9.9129445 Z m 4.41e-4,3.3979686 3.60527,2.0721256 v 4.1438097 l -3.60527,2.072126 -3.60571,-2.072126 V 7.5078143 Z m -7.226858,4.1790955 3.60571,2.0456618 v 4.090441 l -3.588949,2.035958 3.588949,2.062422 v 4.143811 l -3.60571,2.072125 -3.605269,-2.072125 v -4.143811 l 3.588509,-2.062422 -3.588509,-2.035958 v -4.090441 z m 14.452834,0 3.60571,2.0456618 v 4.090441 l -3.58895,2.035958 3.58895,2.062422 v 4.143811 l -3.60571,2.072125 -3.605269,-2.072125 v -4.143811 l 3.588508,-2.062422 -3.588508,-2.035958 v -4.090441 z m -7.225976,12.2386848 3.60527,2.072126 v 4.14381 l -3.60527,2.072126 -3.60571,-2.072126 v -4.14381 z" /><path
         sodipodi:type="star"
         style="opacity:1;fill:#00b357;fill-opacity:1;stroke:none;stroke-width:1.87773;stroke-linecap:round;stroke-linejoin:round;paint-order:fill markers stroke"
         id="path940"
         inkscape:flatsided="true"
         sodipodi:sides="6"
         sodipodi:cx="30.583221"
         sodipodi:cy="16.595547"
         sodipodi:r1="98.634079"
         sodipodi:r2="85.419617"
         sodipodi:arg1="0.52359878"
         sodipodi:arg2="1.0471976"
         inkscape:rounded="0"
         inkscape:randomized="0"
         d="m 116.00284,65.912587 -85.419619,49.317043 -85.419618,-49.317044 10e-7,-98.634079 85.419618,-49.317039 85.419618,49.31704 z"
         transform="matrix(0.04221296,0,0,0.04106808,23.678454,17.107063)" /></g></g></svg>
