<?xml version="1.0" encoding="UTF-8" standalone="no"?>
<svg
   height="40mm"
   width="50mm"
   viewBox="1.5 1.5 37.568504 29.517451"
   version="1.1"
   id="svg28584"
   sodipodi:docname="g-suite.svg"
   xml:space="preserve"
   inkscape:version="1.2.2 (732a01da63, 2022-12-09)"
   xmlns:inkscape="http://www.inkscape.org/namespaces/inkscape"
   xmlns:sodipodi="http://sodipodi.sourceforge.net/DTD/sodipodi-0.dtd"
   xmlns:xlink="http://www.w3.org/1999/xlink"
   xmlns="http://www.w3.org/2000/svg"
   xmlns:svg="http://www.w3.org/2000/svg"><defs
     id="defs28588"><clipPath
       id="B"><use
         xlink:href="#A"
         id="use28730" /></clipPath><clipPath
       id="clipPath28901"><use
         xlink:href="#A"
         id="use28899" /></clipPath><clipPath
       id="clipPath28905"><use
         xlink:href="#A"
         id="use28903" /></clipPath><clipPath
       id="clipPath28909"><use
         xlink:href="#A"
         id="use28907" /></clipPath><clipPath
       id="B-7"><use
         xlink:href="#A"
         id="use29087" /></clipPath><clipPath
       id="clipPath29285"><use
         xlink:href="#A"
         id="use29283" /></clipPath><clipPath
       id="clipPath29289"><use
         xlink:href="#A"
         id="use29287" /></clipPath><clipPath
       id="clipPath29293"><use
         xlink:href="#A"
         id="use29291" /></clipPath><path
       id="A"
       d="M44.5 20H24v8.5h11.8C34.7 33.9 30.1 37 24 37c-7.2 0-13-5.8-13-13s5.8-13 13-13c3.1 0 5.9 1.1 8.1 2.9l6.4-6.4C34.6 4.1 29.6 2 24 2 11.8 2 2 11.8 2 24s9.8 22 22 22c11 0 21-8 21-22 0-1.3-.2-2.7-.5-4z" /></defs><sodipodi:namedview
     id="namedview28586"
     pagecolor="#ffffff"
     bordercolor="#000000"
     borderopacity="0.25"
     inkscape:showpageshadow="2"
     inkscape:pageopacity="0.0"
     inkscape:pagecheckerboard="0"
     inkscape:deskcolor="#d1d1d1"
     showgrid="false"
     showguides="true"
     inkscape:zoom="3.6203867"
     inkscape:cx="85.626212"
     inkscape:cy="88.664562"
     inkscape:window-width="1920"
     inkscape:window-height="1017"
     inkscape:window-x="-8"
     inkscape:window-y="-8"
     inkscape:window-maximized="1"
     inkscape:current-layer="svg28584"
     inkscape:document-units="mm"><sodipodi:guide
       position="13.672904,19.324775"
       orientation="0,-1"
       id="guide29401"
       inkscape:locked="false" /><sodipodi:guide
       position="14.222017,10.21069"
       orientation="0,-1"
       id="guide29403"
       inkscape:locked="false" /></sodipodi:namedview><g
     id="g29579"
     transform="matrix(1.008283,0,0,1.008283,-0.32360419,-0.17218606)"><path
       d="m 19.668038,18.329603 c 0,0.78138 -0.285808,1.410293 -0.857575,1.886741 -0.578041,0.463672 -1.28315,0.698759 -2.115326,0.698759 -0.736932,0 -1.391244,-0.216038 -1.956586,-0.647963 -0.565342,-0.431924 -0.952894,-1.02274 -1.168856,-1.766022 L 14.66228,18.05007 c 0.07627,0.266834 0.17794,0.508195 0.311282,0.724157 0.133342,0.215962 0.285884,0.400252 0.463748,0.552718 0.177865,0.152466 0.374778,0.273184 0.590816,0.362079 0.216038,0.08889 0.444624,0.133417 0.68606,0.133417 0.520819,0 0.952819,-0.133417 1.283149,-0.406526 0.330331,-0.266834 0.495496,-0.628913 0.495496,-1.073612 0,-0.374778 -0.139766,-0.69241 -0.412875,-0.959244 -0.254136,-0.25406 -0.736932,-0.508196 -1.442041,-0.749556 -0.711458,-0.254136 -1.156158,-0.432 -1.334022,-0.520895 -0.946469,-0.482797 -1.416567,-1.187905 -1.416567,-2.128101 0,-0.654311 0.260409,-1.213304 0.78138,-1.677052 0.533593,-0.463748 1.18148,-0.698759 1.95651,-0.698759 0.67971,0 1.270526,0.171591 1.766022,0.520895 0.495496,0.34303 0.832176,0.76868 0.997341,1.283225 l -1.060913,0.438274 c -0.101594,-0.330331 -0.298583,-0.609789 -0.59074,-0.825827 -0.292233,-0.222236 -0.654312,-0.33033 -1.073613,-0.33033 -0.450973,0 -0.825826,0.127067 -1.130683,0.374853 -0.304932,0.228662 -0.457398,0.533594 -0.457398,0.902022 0,0.304932 0.120718,0.571767 0.362078,0.794079 0.266835,0.222312 0.844876,0.489071 1.727849,0.794079 0.902098,0.304856 1.55006,0.686059 1.937537,1.130683 0.374778,0.444699 0.565417,0.990992 0.565417,1.638954 z m 6.346129,2.382161 h -1.092586 v -0.844876 h -0.05087 c -0.171515,0.298583 -0.444624,0.546369 -0.800353,0.749632 -0.362079,0.196913 -0.736932,0.298583 -1.12441,0.298583 -0.749631,0 -1.321322,-0.216038 -1.721499,-0.641613 -0.400176,-0.425575 -0.603515,-1.035439 -0.603515,-1.823244 v -3.83675 h 1.143458 v 3.76063 c 0.0254,0.997342 0.527245,1.492914 1.505537,1.492914 0.457323,0 0.838526,-0.18429 1.143459,-0.552718 0.304932,-0.368429 0.457323,-0.813128 0.457323,-1.327673 v -3.373228 h 1.143458 z m 2.610897,-8.201046 c 0,0.222388 -0.07627,0.412952 -0.235086,0.571767 -0.158816,0.158816 -0.34938,0.235087 -0.571692,0.235087 -0.222311,0 -0.412951,-0.07635 -0.571691,-0.235087 -0.15874,-0.15874 -0.235087,-0.349379 -0.235087,-0.571767 0,-0.222387 0.07627,-0.412875 0.235087,-0.571691 0.158816,-0.158816 0.34938,-0.235086 0.571691,-0.235086 0.222312,0 0.412876,0.07635 0.571692,0.235086 0.158816,0.15874 0.235086,0.34938 0.235086,0.571691 z m -0.235086,2.102703 v 6.098343 h -1.143383 v -6.098343 z m 3.512919,6.200012 c -0.495496,0 -0.908371,-0.152466 -1.238702,-0.457323 -0.330331,-0.304856 -0.495496,-0.737007 -0.501921,-1.283225 V 15.661559 H 29.088737 V 14.613421 H 30.156 v -1.867616 h 1.143458 v 1.867616 h 1.492838 v 1.048138 h -1.492914 v 3.036473 c 0,0.406601 0.07635,0.67971 0.235087,0.825827 0.15874,0.146116 0.33668,0.216037 0.533669,0.216037 0.0889,0 0.177789,-0.01277 0.266759,-0.03175 0.08897,-0.01897 0.165166,-0.05087 0.241361,-0.08262 l 0.362079,1.02274 c -0.285808,0.108019 -0.635188,0.165165 -1.03544,0.165165 z m 4.2816,0.09524 c -0.895748,0 -1.632604,-0.304856 -2.217071,-0.92107 -0.57804,-0.616215 -0.870274,-1.391169 -0.870274,-2.325015 0,-0.927496 0.279534,-1.70245 0.844876,-2.318664 0.565342,-0.616214 1.283225,-0.927496 2.166198,-0.927496 0.902098,0 1.626256,0.292308 2.159849,0.876699 0.533594,0.584391 0.800429,1.403868 0.800429,2.458431 l -0.0127,0.126993 h -4.789795 c 0.01905,0.597165 0.216038,1.079962 0.597166,1.442041 0.381127,0.362078 0.838525,0.546292 1.372119,0.546292 0.730507,0 1.302274,-0.362078 1.71515,-1.092585 l 1.02274,0.495496 c -0.273109,0.514545 -0.654236,0.914721 -1.137033,1.206954 -0.489147,0.285883 -1.041865,0.431924 -1.651654,0.431924 z M 34.354979,16.925736 H 37.8552 c -0.03175,-0.425575 -0.203339,-0.77503 -0.514545,-1.054488 -0.311207,-0.279459 -0.730583,-0.419301 -1.251477,-0.419301 -0.431925,0 -0.800429,0.133417 -1.111635,0.400176 -0.317631,0.273184 -0.520894,0.628914 -0.622564,1.073613 z"
       id="path28580"
       sodipodi:nodetypes="ccssccsssscscccscsccccscsccccccccccssscccssscccssssssssscccccsscccccccccccssssccsscsssscccsscccsccsscc"
       style="fill:#737373;stroke-width:0.0755906" /><path
       d="M 0,37 V 11 l 17,13 z"
       clip-path="url(#B-7)"
       fill="#fbbc05"
       id="path29090"
       transform="matrix(0.21178878,0,0,0.21178878,1.3850453,11.240884)" /><path
       d="M 0,11 17,24 24,17.9 48,14 V 0 H 0 Z"
       clip-path="url(#B-7)"
       fill="#ea4335"
       id="path29092"
       transform="matrix(0.21178878,0,0,0.21178878,1.3850453,11.240884)" /><path
       d="M 0,37 30,14 37.9,15 48,0 V 48 H 0 Z"
       clip-path="url(#B-7)"
       fill="#34a853"
       id="path29094"
       transform="matrix(0.21178878,0,0,0.21178878,1.3850453,11.240884)" /><path
       d="M 48,48 17,24 13,21 48,11 Z"
       clip-path="url(#B-7)"
       fill="#4285f4"
       id="path29096"
       transform="matrix(0.21178878,0,0,0.21178878,1.3850453,11.240884)" /></g></svg>
