<?xml version="1.0" encoding="UTF-8" standalone="no"?>
<!-- Created with Inkscape (http://www.inkscape.org/) -->

<svg
   width="50mm"
   height="40mm"
   viewBox="0 0 50 40"
   version="1.1"
   id="svg5"
   xml:space="preserve"
   inkscape:version="1.2.2 (732a01da63, 2022-12-09)"
   sodipodi:docname="levantamento-ufabc.svg"
   xmlns:inkscape="http://www.inkscape.org/namespaces/inkscape"
   xmlns:sodipodi="http://sodipodi.sourceforge.net/DTD/sodipodi-0.dtd"
   xmlns="http://www.w3.org/2000/svg"
   xmlns:svg="http://www.w3.org/2000/svg"><sodipodi:namedview
     id="namedview7"
     pagecolor="#ffffff"
     bordercolor="#000000"
     borderopacity="0.25"
     inkscape:showpageshadow="2"
     inkscape:pageopacity="0.0"
     inkscape:pagecheckerboard="0"
     inkscape:deskcolor="#d1d1d1"
     inkscape:document-units="mm"
     showgrid="false"
     showguides="true"
     inkscape:zoom="2.1089996"
     inkscape:cx="-67.80466"
     inkscape:cy="87.719316"
     inkscape:window-width="1920"
     inkscape:window-height="1017"
     inkscape:window-x="-8"
     inkscape:window-y="-8"
     inkscape:window-maximized="1"
     inkscape:current-layer="layer1"><sodipodi:guide
       position="10.067718,26.639103"
       orientation="0,-1"
       id="guide354"
       inkscape:locked="false" /><sodipodi:guide
       position="5.3631768,28.897283"
       orientation="1,0"
       id="guide356"
       inkscape:locked="false" /><sodipodi:guide
       position="10.161809,16.477294"
       orientation="0,-1"
       id="guide358"
       inkscape:locked="false" /></sodipodi:namedview><defs
     id="defs2" /><g
     inkscape:label="Camada 1"
     inkscape:groupmode="layer"
     id="layer1"><g
       id="g1513"
       style="display:inline"
       transform="matrix(1.2575401,0,0,1.2575401,-6.3610014,-3.1711182)"><path
         id="rect360"
         style="color:#000000;opacity:1;fill:#54a572;fill-opacity:1;stroke-linecap:round;stroke-linejoin:round;-inkscape-stroke:none;paint-order:fill markers stroke"
         d="m 6.7344727,13.329936 c -0.7727954,0 -1.4024983,0.629704 -1.4024984,1.402498 v 7.386629 c 0,0.772796 0.629703,1.402499 1.4024984,1.402499 h 7.5762813 c 0.772797,0 1.401982,-0.629703 1.401982,-1.402499 V 19.657198 H 44.818453 V 19.233451 H 15.712736 v -4.501017 c 0,-0.772794 -0.629185,-1.402498 -1.401982,-1.402498 z m 0,0.480591 h 7.5762813 c 0.51469,0 0.919841,0.40722 0.919841,0.921907 v 7.386629 c 0,0.51469 -0.405151,0.921908 -0.919841,0.921908 H 6.7344727 c -0.5146885,0 -0.9198405,-0.407218 -0.9198405,-0.921908 v -7.386629 c 0,-0.514687 0.405152,-0.921907 0.9198405,-0.921907 z" /><path
         style="color:#000000;fill:#fbcb09;stroke-linecap:round;stroke-linejoin:round;-inkscape-stroke:none;paint-order:fill markers stroke"
         d="m 14.826172,14.099609 c -2.913823,1.524155 -4.055866,3.760908 -4.681641,5.472657 C 9.6086889,18.876435 8.996957,18.28315 8.4023438,17.837891 7.3198251,17.027278 6.3261719,16.585937 6.3261719,16.585937 a 0.89999998,0.89999998 0 0 0 -1.1894532,0.453125 0.89999998,0.89999998 0 0 0 0.4550782,1.189454 c 0,0 0.8187015,0.366568 1.7324218,1.050781 C 8.2379391,19.96351 9.1665456,20.94505 9.4492188,22 a 0.90008998,0.90008998 0 0 0 1.7558592,-0.07617 c 0,0 0.817338,-4.325697 4.455078,-6.228515 a 0.89999998,0.89999998 0 0 0 0.38086,-1.214844 0.89999998,0.89999998 0 0 0 -1.214844,-0.38086 z"
         id="path1022" /><text
         xml:space="preserve"
         style="font-weight:bold;font-size:6.37991px;font-family:Calibri;-inkscape-font-specification:'Calibri Bold';opacity:1;fill:#318b40;fill-opacity:1;stroke:#318b40;stroke-width:0.452119;stroke-linecap:butt;stroke-linejoin:round;stroke-dasharray:none;stroke-opacity:1;paint-order:fill markers stroke"
         x="15.937814"
         y="18.632608"
         id="text4126"><tspan
           sodipodi:role="line"
           id="tspan4124"
           style="font-style:normal;font-variant:normal;font-weight:normal;font-stretch:normal;font-family:Teko;-inkscape-font-specification:Teko;fill:#318b40;fill-opacity:1;stroke:none;stroke-width:0.452119"
           x="15.937814"
           y="18.632608">LEVANTAMENTO</tspan></text><text
         xml:space="preserve"
         style="font-style:normal;font-variant:normal;font-weight:normal;font-stretch:normal;font-size:4.22129px;font-family:Oswald;-inkscape-font-specification:Oswald;opacity:1;fill:#318b40;fill-opacity:1;stroke-width:0.299147;stroke-linejoin:round;paint-order:fill markers stroke"
         x="39.220886"
         y="21.643984"
         id="text400"
         transform="scale(0.93844568,1.0655918)"><tspan
           sodipodi:role="line"
           id="tspan398"
           style="font-style:normal;font-variant:normal;font-weight:normal;font-stretch:normal;font-family:Teko;-inkscape-font-specification:Teko;fill:#318b40;fill-opacity:1;stroke-width:0.299147"
           x="39.220886"
           y="21.643984">UFABC</tspan></text></g></g></svg>
