<?xml version="1.0" encoding="UTF-8" standalone="no"?>
<!-- Created with Inkscape (http://www.inkscape.org/) -->

<svg
   width="50mm"
   height="40mm"
   viewBox="0 0 50 40"
   version="1.1"
   id="svg3999"
   xml:space="preserve"
   inkscape:version="1.2.2 (732a01da63, 2022-12-09)"
   sodipodi:docname="limesurvey.svg"
   xmlns:inkscape="http://www.inkscape.org/namespaces/inkscape"
   xmlns:sodipodi="http://sodipodi.sourceforge.net/DTD/sodipodi-0.dtd"
   xmlns:xlink="http://www.w3.org/1999/xlink"
   xmlns="http://www.w3.org/2000/svg"
   xmlns:svg="http://www.w3.org/2000/svg"><sodipodi:namedview
     id="namedview4001"
     pagecolor="#ffffff"
     bordercolor="#000000"
     borderopacity="0.25"
     inkscape:showpageshadow="2"
     inkscape:pageopacity="0.0"
     inkscape:pagecheckerboard="0"
     inkscape:deskcolor="#d1d1d1"
     inkscape:document-units="mm"
     showgrid="false"
     inkscape:zoom="4.2179991"
     inkscape:cx="60.218126"
     inkscape:cy="75.865355"
     inkscape:window-width="1920"
     inkscape:window-height="1017"
     inkscape:window-x="-8"
     inkscape:window-y="-8"
     inkscape:window-maximized="1"
     inkscape:current-layer="layer1" /><defs
     id="defs3996"><linearGradient
       inkscape:collect="always"
       id="linearGradient6193"><stop
         style="stop-color:#309100;stop-opacity:1;"
         offset="0"
         id="stop6191" /><stop
         style="stop-color:#4aca00;stop-opacity:1;"
         offset="1"
         id="stop6189" /></linearGradient><linearGradient
       inkscape:collect="always"
       id="linearGradient5285"><stop
         style="stop-color:#3aaf01;stop-opacity:1;"
         offset="0"
         id="stop5281" /><stop
         style="stop-color:#50d400;stop-opacity:1;"
         offset="1"
         id="stop5283" /></linearGradient><linearGradient
       inkscape:collect="always"
       xlink:href="#linearGradient5285"
       id="linearGradient5287"
       x1="8.0506714"
       y1="21.668961"
       x2="35.087781"
       y2="21.668961"
       gradientUnits="userSpaceOnUse" /><linearGradient
       inkscape:collect="always"
       xlink:href="#linearGradient6193"
       id="linearGradient6195"
       x1="12.325898"
       y1="8.0643547"
       x2="38.734055"
       y2="8.0643547"
       gradientUnits="userSpaceOnUse" /></defs><g
     inkscape:label="Camada 1"
     inkscape:groupmode="layer"
     id="layer1"><g
       id="g6891"
       transform="matrix(0.89926409,0,0,0.89926409,3.9640878,3.3571305)"><path
         style="fill:url(#linearGradient6195);fill-opacity:1;stroke:none;stroke-width:0.600001;stroke-linejoin:round;stroke-opacity:1;paint-order:fill markers stroke"
         d="m 12.325898,5.0181771 c 0,0 4.422268,3.0422699 8.844537,9.2836279 0,0 11.604535,-9.8481728 17.56362,-12.4513522 v 0 c 0,0 -9.722718,-0.8154538 -17.344075,7.1509025 0,0 -4.359541,-4.0459055 -9.064082,-3.9831782 z"
         id="path4186" /><path
         id="path4657"
         style="color:#000000;opacity:1;fill:url(#linearGradient5287);fill-opacity:1;stroke-linejoin:round;-inkscape-stroke:none;paint-order:fill markers stroke"
         d="m 13.875122,10.570931 c -3.513499,2.44813 -5.824451,6.5168 -5.8244506,11.099064 0,1.633819 0.2942165,3.201997 0.8314738,4.655013 l 4.8710208,-2.089795 c -0.260895,-0.805998 -0.403593,-1.667361 -0.403593,-2.565218 0,-3.028327 1.601982,-5.651929 4.012158,-7.078121 z m 15.788184,0.290938 -4.507219,3.398759 c 1.56464,0.752612 2.847541,1.985124 3.662826,3.511931 l 4.862752,-2.085661 C 32.734119,13.783022 31.35009,12.130645 29.663306,10.861869 Z m 4.468978,5.829619 -4.861719,2.08566 c 0.33341,0.898364 0.516764,1.872313 0.516764,2.892847 0,3.141213 -1.723555,5.846609 -4.28501,7.2316 l 2.093413,4.858101 c 4.431753,-2.225274 7.492049,-6.816982 7.492049,-12.089701 0,-1.755554 -0.339348,-3.435854 -0.955497,-4.978507 z m -19.971908,8.566919 -4.8539673,2.08256 c 2.1541263,4.622314 6.8491343,7.846549 12.2617843,7.846549 1.773687,10e-7 3.470341,-0.347017 5.026049,-0.975134 L 24.50083,29.356864 c -0.909264,0.342942 -1.896919,0.531751 -2.932637,0.531751 -3.280566,0 -6.085562,-1.879259 -7.407817,-4.630208 z" /></g></g></svg>
