<?xml version="1.0" encoding="UTF-8" standalone="no"?>
<!-- Created with Inkscape (http://www.inkscape.org/) -->

<svg
   width="50mm"
   height="40mm"
   viewBox="0 0 50 40"
   version="1.1"
   id="svg919"
   xml:space="preserve"
   inkscape:version="1.2.2 (732a01da63, 2022-12-09)"
   sodipodi:docname="logo-biblioteca.svg"
   xmlns:inkscape="http://www.inkscape.org/namespaces/inkscape"
   xmlns:sodipodi="http://sodipodi.sourceforge.net/DTD/sodipodi-0.dtd"
   xmlns="http://www.w3.org/2000/svg"
   xmlns:svg="http://www.w3.org/2000/svg"><sodipodi:namedview
     id="namedview921"
     pagecolor="#ffffff"
     bordercolor="#000000"
     borderopacity="0.25"
     inkscape:showpageshadow="2"
     inkscape:pageopacity="0.0"
     inkscape:pagecheckerboard="0"
     inkscape:deskcolor="#d1d1d1"
     inkscape:document-units="mm"
     showgrid="false"
     inkscape:zoom="4.2179991"
     inkscape:cx="102.65531"
     inkscape:cy="81.792337"
     inkscape:window-width="1920"
     inkscape:window-height="1017"
     inkscape:window-x="-8"
     inkscape:window-y="-8"
     inkscape:window-maximized="1"
     inkscape:current-layer="layer1" /><defs
     id="defs916" /><g
     inkscape:label="Camada 1"
     inkscape:groupmode="layer"
     id="layer1"><g
       id="g4263"
       transform="translate(0,-0.00508478)"><g
         id="g4199"
         inkscape:label="livros"><path
           style="color:#000000;fill:#005b3c;fill-opacity:1;stroke-width:1.80111;stroke-linecap:round;stroke-linejoin:round;-inkscape-stroke:none;paint-order:fill markers stroke"
           d="m 23.026939,23.277988 a 0.4502783,0.4502783 0 0 0 -0.450278,0.450278 0.4502783,0.4502783 0 0 0 0.450278,0.450278 h 24.322064 c 0.917788,0 1.642811,0.725026 1.642811,1.642812 v 0.450278 c 0,0.91779 -0.725023,1.642814 -1.642811,1.642814 H 23.026939 a 0.4502783,0.4502783 0 0 0 -0.450278,0.450278 0.4502783,0.4502783 0 0 0 0.450278,0.450278 h 24.322064 c 1.401118,0 2.543368,-1.14225 2.543368,-2.54337 v -0.450278 c 0,-1.401118 -1.14225,-2.543368 -2.543368,-2.543368 z"
           id="path3589" /><path
           style="color:#000000;fill:#005b3c;fill-opacity:1;stroke-width:1.80111;stroke-linecap:round;stroke-linejoin:round;-inkscape-stroke:none;paint-order:fill markers stroke"
           d="m 37.169903,25.276098 a 0.45027738,0.45027738 0 0 0 -0.450278,0.450278 0.45027738,0.45027738 0 0 0 0.450278,0.450278 h 6.02951 a 0.45027738,0.45027738 0 0 0 0.450278,-0.450278 0.45027738,0.45027738 0 0 0 -0.450278,-0.450278 z"
           id="path3591" /><path
           style="color:#000000;fill:#005b3c;fill-opacity:1;stroke-width:1.80111;stroke-linecap:round;stroke-linejoin:round;-inkscape-stroke:none;paint-order:fill markers stroke"
           d="m 40.842487,26.313849 a 0.45027738,0.45027738 0 0 0 -0.450279,0.450278 0.45027738,0.45027738 0 0 0 0.450279,0.450278 h 5.712906 a 0.45027738,0.45027738 0 0 0 0.450278,-0.450278 0.45027738,0.45027738 0 0 0 -0.450278,-0.450278 z"
           id="path3593" /><path
           style="color:#000000;fill:#fdd50b;fill-opacity:1;stroke-width:1.80111;stroke-linecap:round;stroke-linejoin:round;-inkscape-stroke:none;paint-order:fill markers stroke"
           d="m 23.026939,17.814846 a 0.4502783,0.4502783 0 0 0 -0.450278,0.450278 0.4502783,0.4502783 0 0 0 0.450278,0.450278 h 24.322064 c 0.917788,0 1.642811,0.725026 1.642811,1.642812 v 0.450278 c 0,0.91779 -0.725023,1.642814 -1.642811,1.642814 H 23.026939 a 0.4502783,0.4502783 0 0 0 -0.450278,0.450278 0.4502783,0.4502783 0 0 0 0.450278,0.450278 h 24.322064 c 1.401118,0 2.543368,-1.14225 2.543368,-2.54337 v -0.450278 c 0,-1.401118 -1.14225,-2.543368 -2.543368,-2.543368 z"
           id="rect4349" /><path
           style="color:#000000;fill:#ffd200;fill-opacity:1;stroke-width:1.80111;stroke-linecap:round;stroke-linejoin:round;-inkscape-stroke:none;paint-order:fill markers stroke"
           d="m 28.592096,19.812956 a 0.45027738,0.45027738 0 0 0 -0.450278,0.450278 0.45027738,0.45027738 0 0 0 0.450278,0.450278 h 6.02951 a 0.45027738,0.45027738 0 0 0 0.450278,-0.450278 0.45027738,0.45027738 0 0 0 -0.450278,-0.450278 z"
           id="path2611" /><path
           style="color:#000000;fill:#ffd200;fill-opacity:1;stroke-width:1.80111;stroke-linecap:round;stroke-linejoin:round;-inkscape-stroke:none;paint-order:fill markers stroke"
           d="m 32.26468,20.850707 a 0.45027738,0.45027738 0 0 0 -0.450279,0.450278 0.45027738,0.45027738 0 0 0 0.450279,0.450278 h 5.712906 a 0.45027738,0.45027738 0 0 0 0.450278,-0.450278 0.45027738,0.45027738 0 0 0 -0.450278,-0.450278 z"
           id="path2617" /></g><g
         id="g1271"
         style="display:inline;fill:#005b3c;fill-opacity:1"
         transform="matrix(1.8147489,0,0,1.8147489,-18.257227,-15.804875)"
         inkscape:label="UFABC"><path
           d="m 10.060474,25.282551 h 0.219322 v 0.885006 q 0,0.147685 0.01543,0.209403 0.01653,0.06172 0.054,0.106907 0.06833,0.08046 0.162012,0.120131 0.09368,0.03968 0.21271,0.03968 0.200587,0 0.322923,-0.1036 0.122335,-0.1036 0.122335,-0.273327 v -0.984197 h 0.219323 v 0.99081 q 0,0.257897 -0.184055,0.418807 -0.184054,0.159808 -0.480526,0.159808 -0.175237,0 -0.316309,-0.06172 -0.141072,-0.06282 -0.238059,-0.182953 -0.05952,-0.07164 -0.08486,-0.159808 -0.02425,-0.08817 -0.02425,-0.271122 z"
           style="font-size:2.25715px;font-family:'Humanst521 BT';-inkscape-font-specification:'Humanst521 BT';letter-spacing:0.026918px;fill:#005b3c;fill-opacity:1;stroke:none;stroke-width:0.133295;stroke-linecap:round;stroke-linejoin:round;paint-order:fill markers stroke"
           id="path1121" /><path
           d="M 11.702003,26.824423 V 25.80606 h 0.202791 v 0.12454 q 0.07605,-0.07274 0.150991,-0.105804 0.07605,-0.03416 0.163114,-0.03416 0.165319,0 0.260102,0.09588 0.09588,0.09588 0.09588,0.263408 v 0.6745 h -0.20279 v -0.6227 q 0,-0.123438 -0.0529,-0.181851 -0.0518,-0.05951 -0.162012,-0.05951 -0.07825,0 -0.137766,0.03086 -0.05841,0.02976 -0.114621,0.09919 v 0.734015 z"
           style="font-size:2.25715px;font-family:'Humanst521 BT';-inkscape-font-specification:'Humanst521 BT';letter-spacing:0.026918px;fill:#005b3c;fill-opacity:1;stroke:none;stroke-width:0.133295;stroke-linecap:round;stroke-linejoin:round;paint-order:fill markers stroke"
           id="path1118" /><path
           d="m 12.848679,25.506283 q 0,-0.04849 0.03306,-0.08156 0.03306,-0.03306 0.08156,-0.03306 0.04849,0 0.08156,0.03306 0.03306,0.03306 0.03306,0.08156 0,0.04849 -0.03306,0.08156 -0.03306,0.03306 -0.08156,0.03306 -0.04849,0 -0.08156,-0.03306 -0.03306,-0.03306 -0.03306,-0.08156 z m 0.01323,1.31814 V 25.80606 h 0.20279 v 1.018363 z"
           style="font-size:2.25715px;font-family:'Humanst521 BT';-inkscape-font-specification:'Humanst521 BT';letter-spacing:0.026918px;fill:#005b3c;fill-opacity:1;stroke:none;stroke-width:0.133295;stroke-linecap:round;stroke-linejoin:round;paint-order:fill markers stroke"
           id="path1115" /><path
           d="M 13.687863,26.844261 13.197417,25.80606 h 0.225936 l 0.314105,0.675602 0.293165,-0.675602 h 0.221527 l -0.469505,1.038201 z"
           style="font-size:2.25715px;font-family:'Humanst521 BT';-inkscape-font-specification:'Humanst521 BT';letter-spacing:0.026918px;fill:#005b3c;fill-opacity:1;stroke:none;stroke-width:0.133295;stroke-linecap:round;stroke-linejoin:round;paint-order:fill markers stroke"
           id="path1112" /><path
           d="m 15.280899,26.716415 q -0.101396,0.06502 -0.209404,0.09809 -0.106906,0.03196 -0.221527,0.03196 -0.241365,0 -0.385743,-0.148786 -0.143276,-0.149889 -0.143276,-0.398969 0,-0.22814 0.137765,-0.370314 0.138868,-0.142174 0.361497,-0.142174 0.220425,0 0.349373,0.144378 0.128949,0.144379 0.128949,0.390152 v 0.02976 h -0.76267 q 0.0088,0.144378 0.09478,0.225935 0.08596,0.08046 0.230344,0.08046 0.09699,0 0.201688,-0.03527 0.105804,-0.03637 0.218221,-0.10911 z m -0.745036,-0.510284 h 0.538939 q -0.0099,-0.111314 -0.08046,-0.178544 -0.07054,-0.06723 -0.17634,-0.06723 -0.116825,0 -0.188464,0.06282 -0.07164,0.06172 -0.09368,0.182952 z"
           style="font-size:2.25715px;font-family:'Humanst521 BT';-inkscape-font-specification:'Humanst521 BT';letter-spacing:0.026918px;fill:#005b3c;fill-opacity:1;stroke:none;stroke-width:0.133295;stroke-linecap:round;stroke-linejoin:round;paint-order:fill markers stroke"
           id="path1109" /><path
           d="M 15.51722,26.824423 V 25.80606 h 0.202791 v 0.221527 q 0.08486,-0.133357 0.152093,-0.186259 0.06833,-0.0529 0.147685,-0.0529 0.05511,0 0.111314,0.02425 0.05731,0.02425 0.121234,0.07494 l -0.110213,0.180749 q -0.0496,-0.04298 -0.09478,-0.06172 -0.04519,-0.01984 -0.09478,-0.01984 -0.08266,0 -0.144378,0.06943 -0.06172,0.06943 -0.08817,0.192872 v 0.575309 z"
           style="font-size:2.25715px;font-family:'Humanst521 BT';-inkscape-font-specification:'Humanst521 BT';letter-spacing:0.026918px;fill:#005b3c;fill-opacity:1;stroke:none;stroke-width:0.133295;stroke-linecap:round;stroke-linejoin:round;paint-order:fill markers stroke"
           id="path1106" /><path
           d="m 16.322238,26.754989 v -0.217118 q 0.09148,0.06062 0.176339,0.09258 0.08486,0.03196 0.1554,0.03196 0.07825,0 0.122336,-0.02866 0.04519,-0.02976 0.04519,-0.08046 0,-0.06392 -0.166421,-0.146582 -0.04849,-0.02425 -0.07494,-0.03857 -0.142174,-0.07274 -0.195076,-0.13997 -0.0529,-0.06833 -0.0529,-0.166421 0,-0.127846 0.09148,-0.202791 0.09148,-0.07494 0.251284,-0.07494 0.08597,0 0.165319,0.02094 0.07935,0.01984 0.155399,0.06282 v 0.198383 q -0.09368,-0.0518 -0.171931,-0.07605 -0.07715,-0.02535 -0.146582,-0.02535 -0.06392,0 -0.09919,0.02204 -0.03416,0.02204 -0.03416,0.06392 0,0.07715 0.21271,0.18185 l 0.01874,0.0088 q 0.16642,0.08376 0.217118,0.147685 0.0507,0.06282 0.0507,0.159808 0,0.134459 -0.101396,0.214914 -0.100293,0.08046 -0.266714,0.08046 -0.09588,0 -0.182952,-0.02204 -0.08597,-0.02204 -0.169727,-0.06723 z"
           style="font-size:2.25715px;font-family:'Humanst521 BT';-inkscape-font-specification:'Humanst521 BT';letter-spacing:0.026918px;fill:#005b3c;fill-opacity:1;stroke:none;stroke-width:0.133295;stroke-linecap:round;stroke-linejoin:round;paint-order:fill markers stroke"
           id="path1103" /><path
           d="m 17.257306,25.506283 q 0,-0.04849 0.03306,-0.08156 0.03306,-0.03306 0.08156,-0.03306 0.04849,0 0.08156,0.03306 0.03306,0.03306 0.03306,0.08156 0,0.04849 -0.03306,0.08156 -0.03306,0.03306 -0.08156,0.03306 -0.04849,0 -0.08156,-0.03306 -0.03306,-0.03306 -0.03306,-0.08156 z m 0.01322,1.31814 V 25.80606 h 0.202791 v 1.018363 z"
           style="font-size:2.25715px;font-family:'Humanst521 BT';-inkscape-font-specification:'Humanst521 BT';letter-spacing:0.026918px;fill:#005b3c;fill-opacity:1;stroke:none;stroke-width:0.133295;stroke-linecap:round;stroke-linejoin:round;paint-order:fill markers stroke"
           id="path1100" /><path
           d="m 18.469007,26.598487 v -0.573104 q -0.0496,-0.03527 -0.101395,-0.0518 -0.0518,-0.01763 -0.111315,-0.01763 -0.155399,0 -0.244671,0.09478 -0.08927,0.09478 -0.08927,0.261203 0,0.166421 0.08927,0.262306 0.08927,0.09478 0.244671,0.09478 0.05952,0 0.111315,-0.01653 0.0518,-0.01763 0.101395,-0.054 z m 0,0.169728 q -0.05621,0.03857 -0.121233,0.05731 -0.06392,0.01874 -0.143277,0.01874 -0.220424,0 -0.360394,-0.147685 -0.138868,-0.147684 -0.138868,-0.382437 0,-0.234752 0.138868,-0.382437 0.13997,-0.147684 0.360394,-0.147684 0.07715,0 0.142174,0.01984 0.06503,0.01874 0.122336,0.05952 v -0.58082 h 0.202791 v 1.541872 h -0.202791 z"
           style="font-size:2.25715px;font-family:'Humanst521 BT';-inkscape-font-specification:'Humanst521 BT';letter-spacing:0.026918px;fill:#005b3c;fill-opacity:1;stroke:none;stroke-width:0.133295;stroke-linecap:round;stroke-linejoin:round;paint-order:fill markers stroke"
           id="path1097" /><path
           d="m 19.461386,26.617224 v -0.298676 q -0.204995,0.06392 -0.283246,0.117927 -0.07715,0.054 -0.07715,0.125642 0,0.06282 0.03968,0.09699 0.04078,0.03417 0.113519,0.03417 0.054,0 0.105804,-0.01874 0.0518,-0.01984 0.101395,-0.05731 z m 0.0077,0.123437 q -0.07715,0.054 -0.146583,0.07825 -0.06833,0.02314 -0.147684,0.02314 -0.136664,0 -0.213812,-0.06503 -0.07715,-0.06613 -0.07715,-0.180749 0,-0.108008 0.08376,-0.189565 0.08376,-0.08156 0.252387,-0.137766 l 0.241365,-0.08045 q 0.0011,-0.0088 0.0011,-0.01763 0.0011,-0.0088 0.0011,-0.02535 0,-0.09148 -0.04519,-0.131152 -0.04409,-0.04078 -0.146582,-0.04078 -0.08486,0 -0.175238,0.03637 -0.09037,0.03527 -0.180748,0.105804 v -0.200586 q 0.07825,-0.06392 0.175237,-0.09588 0.09699,-0.03306 0.206098,-0.03306 0.196178,0 0.28545,0.08707 0.08927,0.08597 0.08927,0.278837 v 0.430931 q 0,0.054 0.0088,0.07715 0.0099,0.02204 0.03196,0.02204 0.01874,0 0.03858,-0.0099 0.02094,-0.0099 0.06723,-0.04629 v 0.123437 q -0.05511,0.04739 -0.111314,0.07054 -0.05621,0.02204 -0.116825,0.02204 -0.05841,0 -0.08817,-0.02425 -0.02866,-0.02425 -0.03306,-0.07715 z"
           style="font-size:2.25715px;font-family:'Humanst521 BT';-inkscape-font-specification:'Humanst521 BT';letter-spacing:0.026918px;fill:#005b3c;fill-opacity:1;stroke:none;stroke-width:0.133295;stroke-linecap:round;stroke-linejoin:round;paint-order:fill markers stroke"
           id="path1094" /><path
           d="m 20.667577,26.598487 v -0.573104 q -0.0496,-0.03527 -0.101395,-0.0518 -0.0518,-0.01763 -0.111315,-0.01763 -0.155399,0 -0.244671,0.09478 -0.08927,0.09478 -0.08927,0.261203 0,0.166421 0.08927,0.262306 0.08927,0.09478 0.244671,0.09478 0.05952,0 0.111315,-0.01653 0.0518,-0.01763 0.101395,-0.054 z m 0,0.169728 q -0.05621,0.03857 -0.121234,0.05731 -0.06392,0.01874 -0.143276,0.01874 -0.220425,0 -0.360394,-0.147685 -0.138868,-0.147684 -0.138868,-0.382437 0,-0.234752 0.138868,-0.382437 0.139969,-0.147684 0.360394,-0.147684 0.07715,0 0.142174,0.01984 0.06503,0.01874 0.122336,0.05952 v -0.58082 h 0.202791 v 1.541872 h -0.202791 z"
           style="font-size:2.25715px;font-family:'Humanst521 BT';-inkscape-font-specification:'Humanst521 BT';letter-spacing:0.026918px;fill:#005b3c;fill-opacity:1;stroke:none;stroke-width:0.133295;stroke-linecap:round;stroke-linejoin:round;paint-order:fill markers stroke"
           id="path1091" /><path
           d="m 22.053414,26.716415 q -0.101396,0.06502 -0.209404,0.09809 -0.106906,0.03196 -0.221527,0.03196 -0.241365,0 -0.385743,-0.148786 -0.143276,-0.149889 -0.143276,-0.398969 0,-0.22814 0.137765,-0.370314 0.138868,-0.142174 0.361497,-0.142174 0.220425,0 0.349373,0.144378 0.128949,0.144379 0.128949,0.390152 v 0.02976 h -0.76267 q 0.0088,0.144378 0.09478,0.225935 0.08597,0.08046 0.230344,0.08046 0.09699,0 0.201689,-0.03527 0.105804,-0.03637 0.218221,-0.10911 z m -0.745036,-0.510284 h 0.538938 q -0.0099,-0.111314 -0.08046,-0.178544 -0.07054,-0.06723 -0.17634,-0.06723 -0.116825,0 -0.188463,0.06282 -0.07164,0.06172 -0.09368,0.182952 z"
           style="font-size:2.25715px;font-family:'Humanst521 BT';-inkscape-font-specification:'Humanst521 BT';letter-spacing:0.026918px;fill:#005b3c;fill-opacity:1;stroke:none;stroke-width:0.133295;stroke-linecap:round;stroke-linejoin:round;paint-order:fill markers stroke"
           id="path1088" /><path
           d="m 22.919515,26.824423 v -1.541872 h 0.87729 v 0.196178 h -0.65907 v 0.45628 h 0.639232 v 0.198382 h -0.639232 v 0.691032 z"
           style="font-size:2.25715px;font-family:'Humanst521 BT';-inkscape-font-specification:'Humanst521 BT';letter-spacing:0.026918px;fill:#005b3c;fill-opacity:1;stroke:none;stroke-width:0.133295;stroke-linecap:round;stroke-linejoin:round;paint-order:fill markers stroke"
           id="path1085" /><path
           d="m 24.939073,26.716415 q -0.101396,0.06502 -0.209404,0.09809 -0.106906,0.03196 -0.221527,0.03196 -0.241365,0 -0.385743,-0.148786 -0.143276,-0.149889 -0.143276,-0.398969 0,-0.22814 0.137765,-0.370314 0.138868,-0.142174 0.361497,-0.142174 0.220425,0 0.349373,0.144378 0.128949,0.144379 0.128949,0.390152 v 0.02976 h -0.76267 q 0.0088,0.144378 0.09478,0.225935 0.08596,0.08046 0.230344,0.08046 0.09699,0 0.201688,-0.03527 0.105804,-0.03637 0.218221,-0.10911 z m -0.745036,-0.510284 h 0.538939 q -0.0099,-0.111314 -0.08046,-0.178544 -0.07054,-0.06723 -0.17634,-0.06723 -0.116825,0 -0.188463,0.06282 -0.07164,0.06172 -0.09368,0.182952 z"
           style="font-size:2.25715px;font-family:'Humanst521 BT';-inkscape-font-specification:'Humanst521 BT';letter-spacing:0.026918px;fill:#005b3c;fill-opacity:1;stroke:none;stroke-width:0.133295;stroke-linecap:round;stroke-linejoin:round;paint-order:fill markers stroke"
           id="path1082" /><path
           d="m 25.875243,26.598487 v -0.573104 q -0.0496,-0.03527 -0.101395,-0.0518 -0.0518,-0.01763 -0.111315,-0.01763 -0.155399,0 -0.244671,0.09478 -0.08927,0.09478 -0.08927,0.261203 0,0.166421 0.08927,0.262306 0.08927,0.09478 0.244671,0.09478 0.05952,0 0.111315,-0.01653 0.0518,-0.01763 0.101395,-0.054 z m 0,0.169728 q -0.05621,0.03857 -0.121233,0.05731 -0.06392,0.01874 -0.143276,0.01874 -0.220425,0 -0.360395,-0.147685 -0.138868,-0.147684 -0.138868,-0.382437 0,-0.234752 0.138868,-0.382437 0.13997,-0.147684 0.360395,-0.147684 0.07715,0 0.142174,0.01984 0.06502,0.01874 0.122335,0.05952 v -0.58082 h 0.202791 v 1.541872 h -0.202791 z"
           style="font-size:2.25715px;font-family:'Humanst521 BT';-inkscape-font-specification:'Humanst521 BT';letter-spacing:0.026918px;fill:#005b3c;fill-opacity:1;stroke:none;stroke-width:0.133295;stroke-linecap:round;stroke-linejoin:round;paint-order:fill markers stroke"
           id="path1079" /><path
           d="m 27.26108,26.716415 q -0.101395,0.06502 -0.209404,0.09809 -0.106906,0.03196 -0.221527,0.03196 -0.241365,0 -0.385743,-0.148786 -0.143276,-0.149889 -0.143276,-0.398969 0,-0.22814 0.137765,-0.370314 0.138868,-0.142174 0.361497,-0.142174 0.220425,0 0.349373,0.144378 0.128949,0.144379 0.128949,0.390152 v 0.02976 h -0.76267 q 0.0088,0.144378 0.09478,0.225935 0.08596,0.08046 0.230344,0.08046 0.09699,0 0.201688,-0.03527 0.105804,-0.03637 0.218221,-0.10911 z m -0.745036,-0.510284 h 0.538939 q -0.0099,-0.111314 -0.08046,-0.178544 -0.07054,-0.06723 -0.17634,-0.06723 -0.116825,0 -0.188463,0.06282 -0.07164,0.06172 -0.09368,0.182952 z"
           style="font-size:2.25715px;font-family:'Humanst521 BT';-inkscape-font-specification:'Humanst521 BT';letter-spacing:0.026918px;fill:#005b3c;fill-opacity:1;stroke:none;stroke-width:0.133295;stroke-linecap:round;stroke-linejoin:round;paint-order:fill markers stroke"
           id="path1076" /><path
           d="M 27.497403,26.824423 V 25.80606 h 0.202791 v 0.221527 q 0.08486,-0.133357 0.152093,-0.186259 0.06833,-0.0529 0.147684,-0.0529 0.05511,0 0.111315,0.02425 0.05731,0.02425 0.121233,0.07494 l -0.110212,0.180749 q -0.0496,-0.04298 -0.09478,-0.06172 -0.04519,-0.01984 -0.09478,-0.01984 -0.08266,0 -0.144378,0.06943 -0.06172,0.06943 -0.08817,0.192872 v 0.575309 z"
           style="font-size:2.25715px;font-family:'Humanst521 BT';-inkscape-font-specification:'Humanst521 BT';letter-spacing:0.026918px;fill:#005b3c;fill-opacity:1;stroke:none;stroke-width:0.133295;stroke-linecap:round;stroke-linejoin:round;paint-order:fill markers stroke"
           id="path1073" /><path
           d="m 28.868911,26.617224 v -0.298676 q -0.204995,0.06392 -0.283246,0.117927 -0.07715,0.054 -0.07715,0.125642 0,0.06282 0.03968,0.09699 0.04078,0.03417 0.113519,0.03417 0.054,0 0.105804,-0.01874 0.0518,-0.01984 0.101395,-0.05731 z m 0.0077,0.123437 q -0.07715,0.054 -0.146583,0.07825 -0.06833,0.02314 -0.147684,0.02314 -0.136664,0 -0.213812,-0.06503 -0.07715,-0.06613 -0.07715,-0.180749 0,-0.108008 0.08376,-0.189565 0.08376,-0.08156 0.252386,-0.137766 l 0.241365,-0.08045 q 0.0011,-0.0088 0.0011,-0.01763 0.0011,-0.0088 0.0011,-0.02535 0,-0.09148 -0.04519,-0.131152 -0.04409,-0.04078 -0.146582,-0.04078 -0.08486,0 -0.175238,0.03637 -0.09037,0.03527 -0.180748,0.105804 v -0.200586 q 0.07825,-0.06392 0.175237,-0.09588 0.09699,-0.03306 0.206098,-0.03306 0.196178,0 0.28545,0.08707 0.08927,0.08597 0.08927,0.278837 v 0.430931 q 0,0.054 0.0088,0.07715 0.0099,0.02204 0.03196,0.02204 0.01874,0 0.03858,-0.0099 0.02094,-0.0099 0.06723,-0.04629 v 0.123437 q -0.05511,0.04739 -0.111314,0.07054 -0.05621,0.02204 -0.116825,0.02204 -0.05841,0 -0.08817,-0.02425 -0.02866,-0.02425 -0.03306,-0.07715 z"
           style="font-size:2.25715px;font-family:'Humanst521 BT';-inkscape-font-specification:'Humanst521 BT';letter-spacing:0.026918px;fill:#005b3c;fill-opacity:1;stroke:none;stroke-width:0.133295;stroke-linecap:round;stroke-linejoin:round;paint-order:fill markers stroke"
           id="path1070" /><path
           d="m 29.379661,26.824423 v -1.541872 h 0.202791 v 1.541872 z"
           style="font-size:2.25715px;font-family:'Humanst521 BT';-inkscape-font-specification:'Humanst521 BT';letter-spacing:0.026918px;fill:#005b3c;fill-opacity:1;stroke:none;stroke-width:0.133295;stroke-linecap:round;stroke-linejoin:round;paint-order:fill markers stroke"
           id="path1067" /><path
           d="m 31.173751,26.598487 v -0.573104 q -0.0496,-0.03527 -0.101395,-0.0518 -0.0518,-0.01763 -0.111315,-0.01763 -0.155399,0 -0.244671,0.09478 -0.08927,0.09478 -0.08927,0.261203 0,0.166421 0.08927,0.262306 0.08927,0.09478 0.244671,0.09478 0.05951,0 0.111315,-0.01653 0.0518,-0.01763 0.101395,-0.054 z m 0,0.169728 q -0.05621,0.03857 -0.121234,0.05731 -0.06392,0.01874 -0.143276,0.01874 -0.220424,0 -0.360394,-0.147685 -0.138868,-0.147684 -0.138868,-0.382437 0,-0.234752 0.138868,-0.382437 0.13997,-0.147684 0.360394,-0.147684 0.07715,0 0.142174,0.01984 0.06503,0.01874 0.122336,0.05952 v -0.58082 h 0.202791 v 1.541872 h -0.202791 z"
           style="font-size:2.25715px;font-family:'Humanst521 BT';-inkscape-font-specification:'Humanst521 BT';letter-spacing:0.026918px;fill:#005b3c;fill-opacity:1;stroke:none;stroke-width:0.133295;stroke-linecap:round;stroke-linejoin:round;paint-order:fill markers stroke"
           id="path1064" /><path
           d="m 31.812348,26.314139 q 0,0.142174 0.09588,0.242468 0.09588,0.100293 0.231446,0.100293 0.13446,0 0.230344,-0.100293 0.09699,-0.101396 0.09699,-0.242468 0,-0.139969 -0.09588,-0.240263 -0.09588,-0.100293 -0.231446,-0.100293 -0.135561,0 -0.231446,0.100293 -0.09588,0.100294 -0.09588,0.240263 z m -0.21271,0 q 0,-0.221526 0.157603,-0.375824 0.157604,-0.154297 0.384642,-0.154297 0.106906,0 0.203893,0.04078 0.09809,0.03968 0.175237,0.114621 0.07825,0.07935 0.11903,0.174136 0.04078,0.09478 0.04078,0.200586 0,0.104702 -0.04188,0.203893 -0.04188,0.09919 -0.117928,0.173034 -0.07715,0.07605 -0.174135,0.114621 -0.09588,0.03857 -0.204995,0.03857 -0.227038,0 -0.384642,-0.154297 -0.157603,-0.154298 -0.157603,-0.375825 z"
           style="font-size:2.25715px;font-family:'Humanst521 BT';-inkscape-font-specification:'Humanst521 BT';letter-spacing:0.026918px;fill:#005b3c;fill-opacity:1;stroke:none;stroke-width:0.133295;stroke-linecap:round;stroke-linejoin:round;paint-order:fill markers stroke"
           id="path1061" /><path
           d="m 33.82576,26.171965 h 0.480526 l -0.24357,-0.55547 z m -0.508079,0.652458 0.667887,-1.541872 h 0.16091 l 0.676704,1.541872 h -0.22814 L 34.39666,26.370348 h -0.656866 l -0.196178,0.454075 z"
           style="font-size:2.25715px;font-family:'Humanst521 BT';-inkscape-font-specification:'Humanst521 BT';letter-spacing:0.026918px;fill:#005b3c;fill-opacity:1;stroke:none;stroke-width:0.133295;stroke-linecap:round;stroke-linejoin:round;paint-order:fill markers stroke"
           id="path1058" /><path
           d="m 35.184045,26.145514 v 0.478322 h 0.293165 q 0.16091,0 0.234752,-0.05621 0.07494,-0.05731 0.07494,-0.178544 0,-0.125642 -0.08376,-0.184055 -0.08266,-0.05952 -0.261203,-0.05952 z m -0.218221,0.678909 v -1.541872 h 0.450769 q 0.230344,0 0.354884,0.104702 0.125642,0.104702 0.125642,0.297574 0,0.119029 -0.05621,0.198382 -0.05621,0.07935 -0.171932,0.122336 0.168625,0.03968 0.260102,0.144378 0.09258,0.104702 0.09258,0.254591 0,0.191769 -0.141072,0.30639 -0.13997,0.113519 -0.380233,0.113519 z m 0.218221,-0.880597 h 0.148787 q 0.168624,0 0.250182,-0.06062 0.08156,-0.06062 0.08156,-0.185157 0,-0.113519 -0.06503,-0.165318 -0.06392,-0.0518 -0.204996,-0.0518 h -0.210505 z"
           style="font-size:2.25715px;font-family:'Humanst521 BT';-inkscape-font-specification:'Humanst521 BT';letter-spacing:0.026918px;fill:#005b3c;fill-opacity:1;stroke:none;stroke-width:0.133295;stroke-linecap:round;stroke-linejoin:round;paint-order:fill markers stroke"
           id="path1055" /><path
           d="m 37.61249,26.458518 v 0.24908 q -0.135561,0.07054 -0.276633,0.108008 -0.13997,0.03637 -0.277736,0.03637 -0.132254,0 -0.252386,-0.03417 -0.120131,-0.03527 -0.227038,-0.1036 -0.171931,-0.112416 -0.267816,-0.286552 -0.09478,-0.175238 -0.09478,-0.380233 0,-0.155399 0.06282,-0.300879 0.06282,-0.146583 0.178544,-0.255693 0.123438,-0.116825 0.276633,-0.174136 0.153195,-0.05841 0.339454,-0.05841 0.130051,0 0.257897,0.02976 0.127847,0.02976 0.267816,0.09368 v 0.23916 q -0.146582,-0.07935 -0.275531,-0.116825 -0.128948,-0.03857 -0.250182,-0.03857 -0.27002,0 -0.44636,0.168625 -0.17634,0.167523 -0.17634,0.421011 0,0.250182 0.173034,0.418807 0.174135,0.167523 0.436441,0.167523 0.134459,0 0.272224,-0.04519 0.137766,-0.04519 0.27994,-0.137765 z"
           style="font-size:2.25715px;font-family:'Humanst521 BT';-inkscape-font-specification:'Humanst521 BT';letter-spacing:0.026918px;fill:#005b3c;fill-opacity:1;stroke:none;stroke-width:0.133295;stroke-linecap:round;stroke-linejoin:round;paint-order:fill markers stroke"
           id="path1052" /></g><g
         id="g4164"
         style="display:inline;fill:#005b3c;fill-opacity:1"
         transform="matrix(1.8011132,0,0,1.8011132,-17.744354,-15.445946)"
         inkscape:label="Sistema"><path
           d="m 22.692962,14.943881 v -0.433559 q 0.156016,0.179008 0.297251,0.257836 0.142878,0.07883 0.30382,0.07883 0.170796,0 0.269333,-0.07883 0.09854,-0.08047 0.09854,-0.216779 0,-0.111675 -0.06733,-0.19543 -0.06569,-0.0854 -0.316958,-0.244699 -0.389219,-0.251267 -0.489397,-0.389218 -0.09854,-0.137951 -0.09854,-0.328454 0,-0.26769 0.188861,-0.438486 0.190503,-0.172439 0.489396,-0.172439 0.133024,0 0.261121,0.03941 0.12974,0.03777 0.261121,0.118243 v 0.372796 q -0.151088,-0.121528 -0.279186,-0.175723 -0.128097,-0.05584 -0.256194,-0.05584 -0.154373,0 -0.252909,0.07719 -0.09689,0.07554 -0.09689,0.195431 0,0.170796 0.40564,0.423705 l 0.04927,0.02956 q 0.330096,0.205284 0.431917,0.362942 0.10182,0.156016 0.10182,0.387576 0,0.262763 -0.190503,0.435202 -0.190503,0.170796 -0.487754,0.170796 -0.185577,0 -0.335023,-0.05255 -0.149447,-0.05255 -0.287398,-0.167512 z"
           style="font-size:3.36337px;font-family:'Humanst521 BT';-inkscape-font-specification:'Humanst521 BT';fill:#005b3c;fill-opacity:1;stroke-width:0.198624;stroke-linecap:round;stroke-linejoin:round;paint-order:fill markers stroke"
           id="path1181" /><path
           d="m 24.29746,13.158733 q 0,-0.07226 0.04927,-0.121528 0.04927,-0.04927 0.121528,-0.04927 0.07226,0 0.121528,0.04927 0.04927,0.04927 0.04927,0.121528 0,0.07226 -0.04927,0.121528 -0.04927,0.04927 -0.121528,0.04927 -0.07226,0 -0.121528,-0.04927 -0.04927,-0.04927 -0.04927,-0.121528 z m 0.01971,1.964156 v -1.517458 h 0.302177 v 1.517458 z"
           style="font-size:3.36337px;font-family:'Humanst521 BT';-inkscape-font-specification:'Humanst521 BT';fill:#005b3c;fill-opacity:1;stroke-width:0.198624;stroke-linecap:round;stroke-linejoin:round;paint-order:fill markers stroke"
           id="path1178" /><path
           d="m 24.918239,15.019426 v -0.323527 q 0.136308,0.09032 0.262763,0.13795 0.126455,0.04763 0.23156,0.04763 0.116601,0 0.182292,-0.0427 0.06733,-0.04434 0.06733,-0.119886 0,-0.09525 -0.247983,-0.218422 -0.07226,-0.03613 -0.111674,-0.05748 -0.211853,-0.10839 -0.290682,-0.208568 -0.07883,-0.101821 -0.07883,-0.247983 0,-0.190504 0.136309,-0.302178 0.136308,-0.111674 0.374437,-0.111674 0.128097,0 0.246341,0.0312 0.118243,0.02956 0.23156,0.09361 v 0.295609 q -0.139593,-0.07719 -0.256194,-0.113317 -0.114959,-0.03777 -0.218422,-0.03777 -0.09525,0 -0.147805,0.03285 -0.05091,0.03285 -0.05091,0.09525 0,0.114959 0.316958,0.270975 l 0.02792,0.01314 q 0.247983,0.124812 0.323527,0.220064 0.07555,0.09361 0.07555,0.238129 0,0.200357 -0.151089,0.320243 -0.149447,0.119886 -0.39743,0.119886 -0.142877,0 -0.272617,-0.03285 -0.128097,-0.03285 -0.252909,-0.100178 z"
           style="font-size:3.36337px;font-family:'Humanst521 BT';-inkscape-font-specification:'Humanst521 BT';fill:#005b3c;fill-opacity:1;stroke-width:0.198624;stroke-linecap:round;stroke-linejoin:round;paint-order:fill markers stroke"
           id="path1175" /><path
           d="m 27.118881,15.075263 q -0.07062,0.03941 -0.152731,0.05748 -0.08047,0.01971 -0.174081,0.01971 -0.256194,0 -0.361299,-0.121528 -0.103463,-0.121528 -0.103463,-0.443413 V 13.868194 H 26.06947 v -0.02956 l 0.530454,-0.58629 h 0.03449 v 0.353088 h 0.474617 v 0.262763 h -0.474617 v 0.696323 q 0,0.188861 0.04598,0.244698 0.04763,0.05419 0.175723,0.05419 0.06898,0 0.134666,-0.01807 0.06569,-0.01807 0.128097,-0.05584 z"
           style="font-size:3.36337px;font-family:'Humanst521 BT';-inkscape-font-specification:'Humanst521 BT';fill:#005b3c;fill-opacity:1;stroke-width:0.198624;stroke-linecap:round;stroke-linejoin:round;paint-order:fill markers stroke"
           id="path1172" /><path
           d="m 28.695461,14.961946 q -0.151089,0.09689 -0.312031,0.146162 -0.159301,0.04763 -0.330097,0.04763 -0.359657,0 -0.574794,-0.221706 -0.213496,-0.223349 -0.213496,-0.594502 0,-0.33995 0.205284,-0.551803 0.206926,-0.211853 0.538665,-0.211853 0.328454,0 0.5206,0.215138 0.192145,0.215137 0.192145,0.581363 v 0.04434 h -1.136451 q 0.01314,0.215137 0.141235,0.336665 0.128097,0.119886 0.343235,0.119886 0.14452,0 0.300535,-0.05255 0.157658,-0.05419 0.32517,-0.162585 z m -1.110175,-0.760371 h 0.80307 q -0.01478,-0.165869 -0.119885,-0.266048 -0.105106,-0.100178 -0.262764,-0.100178 -0.17408,0 -0.280828,0.09361 -0.106748,0.09197 -0.139593,0.272617 z"
           style="font-size:3.36337px;font-family:'Humanst521 BT';-inkscape-font-specification:'Humanst521 BT';fill:#005b3c;fill-opacity:1;stroke-width:0.198624;stroke-linecap:round;stroke-linejoin:round;paint-order:fill markers stroke"
           id="path1169" /><path
           d="m 29.004208,15.122889 v -1.517458 h 0.302178 v 0.185577 q 0.113316,-0.10839 0.224991,-0.157658 0.113316,-0.05091 0.243056,-0.05091 0.167511,0 0.279186,0.06241 0.113316,0.06076 0.190503,0.193788 0.139593,-0.13795 0.261121,-0.197072 0.12317,-0.05912 0.261121,-0.05912 0.247983,0 0.390861,0.142878 0.144519,0.142877 0.144519,0.392502 v 1.00507 H 30.99464 v -0.927883 q 0,-0.185576 -0.07719,-0.272617 -0.07554,-0.08704 -0.238129,-0.08704 -0.119886,0 -0.208569,0.04598 -0.08868,0.04434 -0.172438,0.147805 v 1.093752 H 30.002705 V 14.19501 q 0,-0.183934 -0.07883,-0.270975 -0.07719,-0.08868 -0.241413,-0.08868 -0.116602,0 -0.205284,0.04598 -0.08704,0.04434 -0.170796,0.147805 v 1.093752 z"
           style="font-size:3.36337px;font-family:'Humanst521 BT';-inkscape-font-specification:'Humanst521 BT';fill:#005b3c;fill-opacity:1;stroke-width:0.198624;stroke-linecap:round;stroke-linejoin:round;paint-order:fill markers stroke"
           id="path1166" /><path
           d="m 32.42013,14.814142 v -0.445055 q -0.305463,0.09525 -0.422064,0.175723 -0.114959,0.08047 -0.114959,0.187219 0,0.09361 0.05912,0.144519 0.06076,0.05091 0.169154,0.05091 0.08047,0 0.157658,-0.02792 0.07719,-0.02956 0.151089,-0.0854 z m 0.0115,0.183934 q -0.114959,0.08047 -0.218422,0.116602 -0.101821,0.03449 -0.220065,0.03449 -0.203641,0 -0.3186,-0.09689 -0.114959,-0.09854 -0.114959,-0.269332 0,-0.160943 0.124813,-0.282471 0.124812,-0.121528 0.376079,-0.205283 l 0.359658,-0.119886 q 0.0016,-0.01314 0.0016,-0.02628 0.0016,-0.01314 0.0016,-0.03777 0,-0.136308 -0.06733,-0.19543 -0.06569,-0.06076 -0.218422,-0.06076 -0.126455,0 -0.261121,0.05419 -0.134666,0.05255 -0.269332,0.157658 v -0.298893 q 0.116601,-0.09525 0.261121,-0.142878 0.14452,-0.04927 0.307104,-0.04927 0.292325,0 0.425348,0.129739 0.133024,0.128098 0.133024,0.415495 v 0.642128 q 0,0.08047 0.01314,0.114959 0.01478,0.03285 0.04763,0.03285 0.02792,0 0.05748,-0.01478 0.0312,-0.01478 0.100178,-0.06898 v 0.183935 q -0.08211,0.07062 -0.165869,0.105105 -0.08376,0.03285 -0.174081,0.03285 -0.08704,0 -0.131381,-0.03613 -0.0427,-0.03613 -0.04927,-0.114959 z"
           style="font-size:3.36337px;font-family:'Humanst521 BT';-inkscape-font-specification:'Humanst521 BT';fill:#005b3c;fill-opacity:1;stroke-width:0.198624;stroke-linecap:round;stroke-linejoin:round;paint-order:fill markers stroke"
           id="path1163" /><path
           d="m 35.024771,14.786223 v -0.85398 q -0.0739,-0.05255 -0.151089,-0.07719 -0.07719,-0.02628 -0.165869,-0.02628 -0.23156,0 -0.364584,0.141235 -0.133024,0.141235 -0.133024,0.389218 0,0.247983 0.133024,0.390861 0.133024,0.141235 0.364584,0.141235 0.08868,0 0.165869,-0.02463 0.07719,-0.02628 0.151089,-0.08047 z m 0,0.25291 q -0.08376,0.05748 -0.18065,0.0854 -0.09525,0.02792 -0.213495,0.02792 -0.328454,0 -0.537022,-0.220064 -0.206926,-0.220065 -0.206926,-0.569868 0,-0.349804 0.206926,-0.569868 0.208568,-0.220064 0.537022,-0.220064 0.114959,0 0.211853,0.02956 0.09689,0.02792 0.182292,0.08868 v -0.865476 h 0.302178 v 2.297536 h -0.302178 z"
           style="font-size:3.36337px;font-family:'Humanst521 BT';-inkscape-font-specification:'Humanst521 BT';fill:#005b3c;fill-opacity:1;stroke-width:0.198624;stroke-linecap:round;stroke-linejoin:round;paint-order:fill markers stroke"
           id="path1160" /><path
           d="m 37.04969,14.961946 q -0.151089,0.09689 -0.312031,0.146162 -0.1593,0.04763 -0.330096,0.04763 -0.359658,0 -0.574795,-0.221706 -0.213495,-0.223349 -0.213495,-0.594502 0,-0.33995 0.205284,-0.551803 0.206926,-0.211853 0.538664,-0.211853 0.328454,0 0.5206,0.215138 0.192146,0.215137 0.192146,0.581363 v 0.04434 h -1.136451 q 0.01314,0.215137 0.141235,0.336665 0.128097,0.119886 0.343234,0.119886 0.14452,0 0.300536,-0.05255 0.157658,-0.05419 0.325169,-0.162585 z m -1.110174,-0.760371 h 0.80307 q -0.01478,-0.165869 -0.119886,-0.266048 -0.105105,-0.100178 -0.262763,-0.100178 -0.174081,0 -0.280828,0.09361 -0.106748,0.09197 -0.139593,0.272617 z"
           style="font-size:3.36337px;font-family:'Humanst521 BT';-inkscape-font-specification:'Humanst521 BT';fill:#005b3c;fill-opacity:1;stroke-width:0.198624;stroke-linecap:round;stroke-linejoin:round;paint-order:fill markers stroke"
           id="path1157" /><path
           d="m 23.136375,16.745463 v 0.712745 h 0.436844 q 0.239772,0 0.349804,-0.08376 0.111674,-0.0854 0.111674,-0.266048 0,-0.187218 -0.124812,-0.274259 -0.123171,-0.08868 -0.389218,-0.08868 z m -0.325169,1.011638 v -2.297536 h 0.671688 q 0.343235,0 0.528811,0.156016 0.187219,0.156015 0.187219,0.443413 0,0.177365 -0.08376,0.295608 -0.08376,0.118244 -0.256194,0.182292 0.251268,0.05912 0.387576,0.215138 0.137951,0.156015 0.137951,0.379364 0,0.285755 -0.210211,0.456551 -0.208568,0.169154 -0.566583,0.169154 z m 0.325169,-1.312174 h 0.221707 q 0.251267,0 0.372795,-0.09032 0.121528,-0.09032 0.121528,-0.275901 0,-0.169154 -0.09689,-0.246341 -0.09525,-0.07719 -0.305462,-0.07719 h -0.313674 z"
           style="font-size:3.36337px;font-family:'Humanst521 BT';-inkscape-font-specification:'Humanst521 BT';fill:#005b3c;fill-opacity:1;stroke-width:0.198624;stroke-linecap:round;stroke-linejoin:round;paint-order:fill markers stroke"
           id="path1154" /><path
           d="m 24.69489,15.792946 q 0,-0.07226 0.04927,-0.121528 0.04927,-0.04927 0.121528,-0.04927 0.07226,0 0.121528,0.04927 0.04927,0.04927 0.04927,0.121528 0,0.07226 -0.04927,0.121528 -0.04927,0.04927 -0.121528,0.04927 -0.07226,0 -0.121528,-0.04927 -0.04927,-0.04927 -0.04927,-0.121528 z m 0.01971,1.964155 v -1.517458 h 0.302178 v 1.517458 z"
           style="font-size:3.36337px;font-family:'Humanst521 BT';-inkscape-font-specification:'Humanst521 BT';fill:#005b3c;fill-opacity:1;stroke-width:0.198624;stroke-linecap:round;stroke-linejoin:round;paint-order:fill markers stroke"
           id="path1151" /><path
           d="m 25.726236,17.451639 q 0.08211,0.02956 0.157658,0.04434 0.07554,0.01478 0.149446,0.01478 0.239772,0 0.371154,-0.133024 0.133023,-0.133024 0.133023,-0.377722 0,-0.23813 -0.128097,-0.37608 -0.128097,-0.137951 -0.346519,-0.137951 -0.08704,0 -0.170796,0.02792 -0.08211,0.02792 -0.165869,0.0854 z m -0.305462,0.234845 v -2.226919 h 0.305462 v 0.865476 q 0.0854,-0.06076 0.182292,-0.08868 0.09854,-0.02956 0.218422,-0.02956 0.331738,0 0.532095,0.21678 0.200357,0.215137 0.200357,0.573152 0,0.379365 -0.224991,0.586291 -0.224991,0.206926 -0.635558,0.206926 -0.137951,0 -0.280829,-0.02628 -0.141235,-0.02463 -0.29725,-0.07719 z"
           style="font-size:3.36337px;font-family:'Humanst521 BT';-inkscape-font-specification:'Humanst521 BT';fill:#005b3c;fill-opacity:1;stroke-width:0.198624;stroke-linecap:round;stroke-linejoin:round;paint-order:fill markers stroke"
           id="path1148" /><path
           d="M 27.163222,17.757101 V 15.459565 H 27.4654 v 2.297536 z"
           style="font-size:3.36337px;font-family:'Humanst521 BT';-inkscape-font-specification:'Humanst521 BT';fill:#005b3c;fill-opacity:1;stroke-width:0.198624;stroke-linecap:round;stroke-linejoin:round;paint-order:fill markers stroke"
           id="path1145" /><path
           d="m 27.852976,15.792946 q 0,-0.07226 0.04927,-0.121528 0.04927,-0.04927 0.121528,-0.04927 0.07226,0 0.121528,0.04927 0.04927,0.04927 0.04927,0.121528 0,0.07226 -0.04927,0.121528 -0.04927,0.04927 -0.121528,0.04927 -0.07226,0 -0.121528,-0.04927 -0.04927,-0.04927 -0.04927,-0.121528 z m 0.01971,1.964155 v -1.517458 h 0.302178 v 1.517458 z"
           style="font-size:3.36337px;font-family:'Humanst521 BT';-inkscape-font-specification:'Humanst521 BT';fill:#005b3c;fill-opacity:1;stroke-width:0.198624;stroke-linecap:round;stroke-linejoin:round;paint-order:fill markers stroke"
           id="path1142" /><path
           d="m 28.790713,16.99673 q 0,0.211853 0.142877,0.3613 0.142878,0.149446 0.344877,0.149446 0.200357,0 0.343235,-0.149446 0.144519,-0.151089 0.144519,-0.3613 0,-0.208568 -0.142877,-0.358015 -0.142878,-0.149447 -0.344877,-0.149447 -0.201999,0 -0.344877,0.149447 -0.142877,0.149447 -0.142877,0.358015 z m -0.316959,0 q 0,-0.330096 0.234845,-0.560014 0.234845,-0.229918 0.573153,-0.229918 0.1593,0 0.30382,0.06076 0.146162,0.05912 0.261121,0.170796 0.116601,0.118244 0.177365,0.259479 0.06076,0.141235 0.06076,0.298893 0,0.156016 -0.06241,0.30382 -0.06241,0.147804 -0.175723,0.257837 -0.114959,0.113316 -0.259479,0.170796 -0.142878,0.05748 -0.305462,0.05748 -0.338308,0 -0.573153,-0.229918 -0.234845,-0.229918 -0.234845,-0.560014 z"
           style="font-size:3.36337px;font-family:'Humanst521 BT';-inkscape-font-specification:'Humanst521 BT';fill:#005b3c;fill-opacity:1;stroke-width:0.198624;stroke-linecap:round;stroke-linejoin:round;paint-order:fill markers stroke"
           id="path1139" /><path
           d="m 31.209777,17.709475 q -0.07062,0.03941 -0.152731,0.05748 -0.08047,0.01971 -0.174081,0.01971 -0.256194,0 -0.361299,-0.121528 -0.103464,-0.121528 -0.103464,-0.443413 V 16.50241 h -0.257836 v -0.02956 l 0.530453,-0.586291 h 0.03449 v 0.353088 h 0.474616 v 0.262764 h -0.474616 v 0.696322 q 0,0.188861 0.04598,0.244699 0.04763,0.05419 0.175723,0.05419 0.06898,0 0.134666,-0.01807 0.06569,-0.01807 0.128097,-0.05584 z"
           style="font-size:3.36337px;font-family:'Humanst521 BT';-inkscape-font-specification:'Humanst521 BT';fill:#005b3c;fill-opacity:1;stroke-width:0.198624;stroke-linecap:round;stroke-linejoin:round;paint-order:fill markers stroke"
           id="path1136" /><path
           d="m 32.786356,17.596159 q -0.151089,0.09689 -0.312031,0.146162 -0.159301,0.04763 -0.330097,0.04763 -0.359657,0 -0.574794,-0.221707 -0.213495,-0.223349 -0.213495,-0.594502 0,-0.33995 0.205283,-0.551803 0.206926,-0.211852 0.538665,-0.211852 0.328454,0 0.5206,0.215137 0.192145,0.215137 0.192145,0.581364 v 0.04434 h -1.136451 q 0.01314,0.215137 0.141236,0.336665 0.128097,0.119886 0.343234,0.119886 0.14452,0 0.300536,-0.05255 0.157658,-0.05419 0.325169,-0.162585 z m -1.110175,-0.760371 h 0.803071 q -0.01478,-0.16587 -0.119886,-0.266048 -0.105106,-0.100179 -0.262763,-0.100179 -0.174081,0 -0.280829,0.09361 -0.106747,0.09197 -0.139593,0.272617 z"
           style="font-size:3.36337px;font-family:'Humanst521 BT';-inkscape-font-specification:'Humanst521 BT';fill:#005b3c;fill-opacity:1;stroke-width:0.198624;stroke-linecap:round;stroke-linejoin:round;paint-order:fill markers stroke"
           id="path1133" /><path
           d="m 34.282465,17.397444 v 0.308747 q -0.114959,0.04106 -0.223349,0.06076 -0.10839,0.01971 -0.215137,0.01971 -0.371153,0 -0.609282,-0.221706 -0.23813,-0.223349 -0.23813,-0.568226 0,-0.336665 0.23813,-0.563299 0.238129,-0.226633 0.596144,-0.226633 0.110032,0 0.216779,0.02299 0.106748,0.02299 0.210211,0.07062 v 0.323528 q -0.105105,-0.06405 -0.208568,-0.09361 -0.101821,-0.0312 -0.208569,-0.0312 -0.233202,0 -0.381006,0.139593 -0.146162,0.139593 -0.146162,0.358015 0,0.223349 0.149446,0.364584 0.149447,0.139593 0.392503,0.139593 0.111674,0 0.216779,-0.02463 0.106748,-0.02628 0.210211,-0.07883 z"
           style="font-size:3.36337px;font-family:'Humanst521 BT';-inkscape-font-specification:'Humanst521 BT';fill:#005b3c;fill-opacity:1;stroke-width:0.198624;stroke-linecap:round;stroke-linejoin:round;paint-order:fill markers stroke"
           id="path1130" /><path
           d="m 35.32038,17.448354 v -0.445055 q -0.305462,0.09525 -0.422063,0.175723 -0.114959,0.08047 -0.114959,0.187219 0,0.09361 0.05912,0.14452 0.06076,0.05091 0.169154,0.05091 0.08047,0 0.157658,-0.02792 0.07719,-0.02956 0.151089,-0.0854 z m 0.0115,0.183935 q -0.114959,0.08047 -0.218422,0.116601 -0.101821,0.03449 -0.220064,0.03449 -0.203642,0 -0.318601,-0.09689 -0.114959,-0.09854 -0.114959,-0.269333 0,-0.160942 0.124813,-0.28247 0.124813,-0.121528 0.37608,-0.205284 l 0.359657,-0.119886 q 0.0016,-0.01314 0.0016,-0.02628 0.0016,-0.01314 0.0016,-0.03777 0,-0.136309 -0.06733,-0.195431 -0.06569,-0.06076 -0.218422,-0.06076 -0.126455,0 -0.261121,0.05419 -0.134667,0.05255 -0.269333,0.157658 v -0.298893 q 0.116601,-0.09525 0.261121,-0.142877 0.14452,-0.04927 0.307105,-0.04927 0.292324,0 0.425348,0.129739 0.133024,0.128097 0.133024,0.415494 v 0.642128 q 0,0.08047 0.01314,0.114959 0.01478,0.03285 0.04763,0.03285 0.02792,0 0.05748,-0.01478 0.0312,-0.01478 0.100179,-0.06897 v 0.183934 q -0.08211,0.07062 -0.16587,0.105105 -0.08375,0.03285 -0.17408,0.03285 -0.08704,0 -0.131382,-0.03613 -0.0427,-0.03613 -0.04927,-0.114959 z"
           style="font-size:3.36337px;font-family:'Humanst521 BT';-inkscape-font-specification:'Humanst521 BT';fill:#005b3c;fill-opacity:1;stroke-width:0.198624;stroke-linecap:round;stroke-linejoin:round;paint-order:fill markers stroke"
           id="path1127" /><path
           d="m 35.932947,17.653638 v -0.323527 q 0.136308,0.09032 0.262763,0.137951 0.126455,0.04763 0.23156,0.04763 0.116601,0 0.182292,-0.0427 0.06733,-0.04434 0.06733,-0.119886 0,-0.09525 -0.247983,-0.218422 -0.07226,-0.03613 -0.111674,-0.05748 -0.211853,-0.10839 -0.290682,-0.208568 -0.07883,-0.101821 -0.07883,-0.247983 0,-0.190503 0.136309,-0.302178 0.136308,-0.111674 0.374437,-0.111674 0.128097,0 0.246341,0.0312 0.118243,0.02956 0.23156,0.09361 v 0.295608 q -0.139593,-0.07719 -0.256194,-0.113316 -0.114959,-0.03777 -0.218422,-0.03777 -0.09525,0 -0.147804,0.03285 -0.05091,0.03284 -0.05091,0.09525 0,0.114959 0.316958,0.270975 l 0.02792,0.01314 q 0.247983,0.124813 0.323527,0.220064 0.07554,0.09361 0.07554,0.23813 0,0.200357 -0.151089,0.320242 -0.149447,0.119886 -0.39743,0.119886 -0.142877,0 -0.272617,-0.03284 -0.128097,-0.03285 -0.252909,-0.100179 z"
           style="font-size:3.36337px;font-family:'Humanst521 BT';-inkscape-font-specification:'Humanst521 BT';fill:#005b3c;fill-opacity:1;stroke-width:0.198624;stroke-linecap:round;stroke-linejoin:round;paint-order:fill markers stroke"
           id="path1124" /></g><g
         id="g4204"
         inkscape:label="barras"
         transform="translate(0,0.002952)"><path
           id="path512"
           style="fill:#005b3c;fill-opacity:1;stroke-width:0.900555;stroke-linecap:round;stroke-linejoin:round;paint-order:fill markers stroke"
           d="m 17.406404,7.0824932 h 1.278208 c 1.194967,0 2.156979,0.9620124 2.156979,2.1569789 V 26.655075 c 0,1.194965 -0.962012,2.156977 -2.156979,2.156977 h -1.278208 c -1.194967,0 -2.156979,-0.962012 -2.156979,-2.156977 V 9.2394721 c 0,-1.1949665 0.962012,-2.1569789 2.156979,-2.1569789 z" /><path
           id="path3609"
           style="display:inline;fill:#fdd50b;fill-opacity:1;stroke-width:0.900555;stroke-linecap:round;stroke-linejoin:round;paint-order:fill markers stroke"
           d="M 9.7816916,11.847938 H 11.0599 c 1.194967,0 2.156979,0.962012 2.156979,2.156979 v 12.650158 c 0,1.194965 -0.962012,2.156977 -2.156979,2.156977 H 9.7816916 c -1.1949666,0 -2.1569789,-0.962012 -2.1569789,-2.156977 V 14.004917 c 0,-1.194967 0.9620123,-2.156979 2.1569789,-2.156979 z"
           sodipodi:nodetypes="sssssssss" /><path
           id="path3614"
           style="fill:#005b3c;fill-opacity:1;stroke-width:0.900555;stroke-linecap:round;stroke-linejoin:round;paint-order:fill markers stroke"
           d="m 2.1569797,17.566472 h 1.2782086 c 1.1949665,0 2.1569789,0.962013 2.1569789,2.156979 v 6.931624 c 0,1.194965 -0.9620124,2.156977 -2.1569789,2.156977 H 2.1569797 C 0.9620131,28.812052 1.7470844e-7,27.85004 1.7470844e-7,26.655075 V 19.723451 C 1.7470844e-7,18.528485 0.9620131,17.566472 2.1569797,17.566472 Z"
           sodipodi:nodetypes="sssssssss" /></g></g></g></svg>
