<?xml version="1.0" encoding="UTF-8" standalone="no"?>
<!-- Created with Inkscape (http://www.inkscape.org/) -->

<svg
   width="50mm"
   height="40mm"
   viewBox="0 0 50 40"
   version="1.1"
   id="svg9198"
   xml:space="preserve"
   inkscape:version="1.2.2 (732a01da63, 2022-12-09)"
   sodipodi:docname="logo-ufabc.svg"
   xmlns:inkscape="http://www.inkscape.org/namespaces/inkscape"
   xmlns:sodipodi="http://sodipodi.sourceforge.net/DTD/sodipodi-0.dtd"
   xmlns="http://www.w3.org/2000/svg"
   xmlns:svg="http://www.w3.org/2000/svg"><sodipodi:namedview
     id="namedview9200"
     pagecolor="#ffffff"
     bordercolor="#000000"
     borderopacity="0.25"
     inkscape:showpageshadow="2"
     inkscape:pageopacity="0.0"
     inkscape:pagecheckerboard="0"
     inkscape:deskcolor="#d1d1d1"
     inkscape:document-units="mm"
     showgrid="false"
     inkscape:zoom="2.9825758"
     inkscape:cx="56.997714"
     inkscape:cy="62.697485"
     inkscape:window-width="1920"
     inkscape:window-height="1017"
     inkscape:window-x="-8"
     inkscape:window-y="-8"
     inkscape:window-maximized="1"
     inkscape:current-layer="layer1" /><defs
     id="defs9195" /><g
     inkscape:label="Camada 1"
     inkscape:groupmode="layer"
     id="layer1"><g
       id="g11436"
       transform="matrix(0.87699821,0,0,0.87699821,2.8122381,2.9792441)"><path
         id="path9388"
         style="color:#000000;display:inline;fill:#006633;stroke-linecap:round;stroke-linejoin:round;-inkscape-stroke:none;paint-order:fill markers stroke"
         d="m 8.334134,22.198336 c -0.747342,1.329005 -1.1829733,2.857 -1.205708,4.485101 -0.072752,5.209923 4.110424,9.511564 9.320346,9.584316 3.916878,0.0547 7.320048,-2.296168 8.799068,-5.680292 1.384453,3.424206 4.722063,5.868676 8.639011,5.923373 5.209923,0.07275 9.511305,-4.109976 9.584057,-9.319898 0.03329,-2.384068 -0.826142,-4.576541 -2.265776,-6.262017 l -1.095841,1.489807 c 1.000822,1.314125 1.585916,2.961165 1.560979,4.747014 -0.05917,4.23723 -3.521132,7.605931 -7.758362,7.546762 -4.237231,-0.05917 -7.605793,-3.523438 -7.546624,-7.760667 0.01803,-1.291261 0.353726,-2.500954 0.929682,-3.558456 l -1.55338,-0.896845 c -0.142328,0.256567 -0.27365,0.51991 -0.391951,0.790498 -0.203203,-0.50275 -0.449284,-0.983944 -0.732695,-1.439812 l -7.758846,-4.479572 c -0.04851,-0.0014 -0.09664,-0.0039 -0.145353,-0.0046 -3.581821,-0.05002 -6.7344558,1.911437 -8.378607,4.835245 z M 17.264688,7.141507 c -0.747344,1.3292816 -1.182783,2.8577028 -1.205518,4.485806 -0.02496,1.787138 0.450929,3.466928 1.297213,4.906211 l 8.101655,4.677493 c 0.404001,0.0022 0.802841,-0.02105 1.194118,-0.06839 -0.13808,0.171445 -0.269995,0.348192 -0.39617,0.52909 l 1.557855,0.899428 c 1.410227,-1.94959 3.715276,-3.202191 6.312111,-3.165929 0.544237,0.0076 1.073882,0.07216 1.583977,0.186525 l 0.671806,-1.684499 c -0.714577,-0.184701 -1.461337,-0.289867 -2.231173,-0.300617 -0.431616,-0.006 -0.85651,0.01838 -1.273793,0.06894 1.277961,-1.587148 2.056038,-3.594922 2.086615,-5.784533 C 35.036136,6.6810951 30.853293,2.3778595 25.643366,2.305108 22.06154,2.2550912 18.908847,4.2170864 17.264688,7.141507 Z M 9.8997456,23.068828 c 1.3270204,-2.368046 3.8745854,-3.947636 6.7876804,-3.906957 4.237227,0.05917 7.606051,3.522989 7.546882,7.76022 -0.05917,4.237231 -3.522994,7.60605 -7.76022,7.546882 -4.23723,-0.05917 -7.6060511,-3.522989 -7.5468822,-7.76022 0.01849,-1.324135 0.3693491,-2.563541 0.9725398,-3.639925 z M 18.830042,8.0124454 c 1.327019,-2.3680465 3.875029,-3.9473768 6.788128,-3.9066985 4.237234,0.059168 7.606052,3.5229855 7.546882,7.7602201 -0.05917,4.237231 -3.523554,7.603933 -7.760788,7.544764 -4.237235,-0.05917 -7.605932,-3.521129 -7.546762,-7.758361 0.01849,-1.324136 0.36935,-2.5635406 0.97254,-3.6399246 z" /><path
         id="path11362"
         style="color:#000000;display:inline;fill:#ffcc00;fill-opacity:1;stroke-linecap:square;stroke-linejoin:round;-inkscape-stroke:none;paint-order:fill markers stroke"
         d="m 10.712913,13.590589 c 1.511714,2.127594 0.841094,3.51032 0.841094,3.51032 3.540487,2.093834 9.180013,5.329539 12.209675,7.062388 0.0019,0.005 0.0037,0.01013 0.0056,0.01516 1.02033,0.586663 1.832552,1.052597 2.70982,1.556202 0.156723,-0.903913 0.471304,-1.750746 0.913301,-2.514127 -5.614219,-3.241133 -11.601255,-6.69879 -16.679481,-9.629903 z"
         sodipodi:nodetypes="ccccccc" /><path
         id="path10752"
         style="color:#000000;fill:#ffcc00;fill-opacity:1;stroke-width:1.11584;stroke-linecap:square;stroke-linejoin:round;-inkscape-stroke:none;paint-order:fill markers stroke"
         d="M 8.7029207,8.6446051 C 8.0769649,11.458628 10.302575,12.666274 10.302575,12.666274 l -0.01631,0.03444 c 6.168362,3.651995 11.994869,6.879284 17.400454,10.046157 0.536647,-0.797659 1.197482,-1.449611 1.98795,-1.994222 L 28.833311,20.26689 27.074066,19.25119 18.237119,14.149176 16.13238,12.934005 Z"
         sodipodi:nodetypes="cccccccccc" /></g></g></svg>
