<?xml version="1.0" encoding="UTF-8" standalone="no"?>
<!-- Created with Inkscape (http://www.inkscape.org/) -->

<svg
   width="50mm"
   height="40mm"
   viewBox="0 0 50 40"
   version="1.1"
   id="svg29920"
   xml:space="preserve"
   inkscape:version="1.2.2 (732a01da63, 2022-12-09)"
   sodipodi:docname="logo-nti.svg"
   xmlns:inkscape="http://www.inkscape.org/namespaces/inkscape"
   xmlns:sodipodi="http://sodipodi.sourceforge.net/DTD/sodipodi-0.dtd"
   xmlns="http://www.w3.org/2000/svg"
   xmlns:svg="http://www.w3.org/2000/svg"><sodipodi:namedview
     id="namedview29922"
     pagecolor="#ffffff"
     bordercolor="#000000"
     borderopacity="0.25"
     inkscape:showpageshadow="2"
     inkscape:pageopacity="0.0"
     inkscape:pagecheckerboard="0"
     inkscape:deskcolor="#d1d1d1"
     inkscape:document-units="mm"
     showgrid="false"
     inkscape:zoom="2.1089995"
     inkscape:cx="109.05645"
     inkscape:cy="88.193476"
     inkscape:window-width="1920"
     inkscape:window-height="1017"
     inkscape:window-x="-8"
     inkscape:window-y="-8"
     inkscape:window-maximized="1"
     inkscape:current-layer="layer1" /><defs
     id="defs29917" /><g
     inkscape:label="Camada 1"
     inkscape:groupmode="layer"
     id="layer1"><g
       id="g30802"
       transform="matrix(1.132985,0,0,1.132985,-3.7509489,0.09623903)"><path
         id="rect30519"
         style="fill:#006f4f;fill-opacity:1;stroke:none;stroke-width:0.306776;stroke-linecap:round;stroke-linejoin:round;stroke-opacity:1;paint-order:fill markers stroke"
         d="m 33.25,10.90321 -0.826656,0.762228 V 25.792224 L 33.25,26.395288 h 3.653174 l 0.887284,-0.603064 V 16.810343 L 35.927523,15.258065 V 11.665438 L 35.181315,10.90321 Z"
         sodipodi:nodetypes="ccccccccccc" /><path
         id="path30528"
         style="fill:#006f4f;fill-opacity:1;stroke:none;stroke-width:0.306776;stroke-linecap:round;stroke-linejoin:round;stroke-opacity:1;paint-order:fill markers stroke"
         d="m 23.979932,10.90321 -0.0088,0.0083 h -4.277775 v 1.640726 h 3.460253 v 13.240019 l 0.826307,0.603064 h 3.653523 l 0.887285,-0.603064 v -8.981881 l -1.862936,-1.55236 v -2.705778 h 3.414779 V 10.91151 H 25.91985 l -0.0083,-0.0083 z" /><path
         id="path30532"
         style="fill:#006f4f;fill-opacity:1;stroke:none;stroke-width:0.306776;stroke-linecap:round;stroke-linejoin:round;stroke-opacity:1;paint-order:fill markers stroke"
         d="m 6.2802368,10.90321 -0.8268229,0.762228 v 14.126786 l 0.8268229,0.603064 h 3.653007 L 10.820528,25.792224 V 16.810343 L 8.9575928,15.257983 V 12.419397 H 15.923576 V 26.38702 h 1.862935 V 12.419397 11.743469 l -0.83199,-0.83199 H 8.2196533 l -0.00827,-0.0083 z" /><path
         id="ellipse30545"
         style="fill:#006f4f;fill-opacity:1;stroke:none;stroke-width:0.45897;stroke-linecap:round;stroke-linejoin:round;stroke-opacity:1;paint-order:fill markers stroke"
         d="M 27.194677,14.285359 A 21.554228,13.608141 -180 0 0 16.864864,12.620761 21.554228,13.608141 -180 0 0 9.3095094,13.485043 13.794854,24.119268 87.359119 0 1 10.203772,13.393501 13.794854,24.119268 87.359119 0 1 36.406042,25.067166 13.794854,24.119268 87.359119 0 1 21.973174,39.441237 21.554228,13.608141 -180 0 0 38.419395,26.228763 21.554228,13.608141 -180 0 0 27.194677,14.285359 Z"
         transform="matrix(0.95326998,-0.30211975,0.31407524,0.94939809,0,0)" /><circle
         style="fill:#fed300;fill-opacity:1;stroke:none;stroke-width:0.389652;stroke-linecap:round;stroke-linejoin:round;stroke-opacity:1;paint-order:fill markers stroke"
         id="path30674"
         cx="34.183636"
         cy="6.711812"
         r="2.3836343" /></g></g></svg>
