<?xml version="1.0" encoding="UTF-8" standalone="no"?>
<!-- Created with Inkscape (http://www.inkscape.org/) -->

<svg
   width="50mm"
   height="40mm"
   viewBox="0 0 50 40"
   version="1.1"
   id="svg4330"
   xml:space="preserve"
   inkscape:version="1.2.2 (732a01da63, 2022-12-09)"
   sodipodi:docname="matriculas-ufabc.svg"
   xmlns:inkscape="http://www.inkscape.org/namespaces/inkscape"
   xmlns:sodipodi="http://sodipodi.sourceforge.net/DTD/sodipodi-0.dtd"
   xmlns="http://www.w3.org/2000/svg"
   xmlns:svg="http://www.w3.org/2000/svg"><sodipodi:namedview
     id="namedview4332"
     pagecolor="#ffffff"
     bordercolor="#000000"
     borderopacity="0.25"
     inkscape:showpageshadow="2"
     inkscape:pageopacity="0.0"
     inkscape:pagecheckerboard="0"
     inkscape:deskcolor="#d1d1d1"
     inkscape:document-units="mm"
     showgrid="false"
     inkscape:zoom="2.9825758"
     inkscape:cx="153.89383"
     inkscape:cy="35.875032"
     inkscape:window-width="1920"
     inkscape:window-height="1017"
     inkscape:window-x="-8"
     inkscape:window-y="-8"
     inkscape:window-maximized="1"
     inkscape:current-layer="layer1" /><defs
     id="defs4327" /><g
     inkscape:label="Camada 1"
     inkscape:groupmode="layer"
     id="layer1"><g
       id="g5897"
       style="display:inline"
       transform="matrix(0.95261881,0,0,0.95261881,3.2190975,0.3986643)"><path
         id="path5600"
         style="display:inline;opacity:1;fill:#2d8e3f;stroke-width:0.499999;stroke-linecap:round;stroke-linejoin:round;paint-order:fill markers stroke"
         d="M 7.5902344,4.8301961 V 11.980664 H 38.138241 V 4.8301961 Z" /><path
         id="path5597"
         style="display:inline;opacity:1;fill:#2d8e3f;stroke-width:0.499999;stroke-linecap:round;stroke-linejoin:round;paint-order:fill markers stroke"
         d="m 7.5902344,21.057629 v 7.150985 h 9.5394696 l -0.851628,-0.930176 2.084627,-1.99626 2.75022,2.17351 v -6.398059 z m 22.4379066,0 v 0.498678 h 2.75022 v 6.652307 h 5.35988 v -7.150985 z" /><path
         id="path5594"
         style="display:inline;opacity:1;fill:#2d8e3f;stroke-width:0.499999;stroke-linecap:round;stroke-linejoin:round;paint-order:fill markers stroke"
         d="m 7.5902344,29.171863 v 7.150468 H 38.138241 v -7.150468 h -5.35988 v 1.344104 c 0,0 0.480689,3.584033 -3.060795,3.584033 h -5.366598 c -2.306448,0 -3.282487,-1.587773 -3.282487,-1.587773 l -3.057177,-3.340364 z"
         sodipodi:nodetypes="ccccccccccc" /><path
         id="path5591"
         style="display:inline;opacity:1;fill:#136d24;stroke-width:0.510163;stroke-linecap:round;stroke-linejoin:round;paint-order:fill markers stroke"
         d="m 6.9628825,12.943913 v 7.150984 H 21.112923 v -4.171321 h 3.504179 v 4.171321 h 14.14849 v -7.150984 z" /><path
         id="path4696"
         style="display:inline;fill:#2d8e3f;fill-opacity:1;stroke-width:0.499999;stroke-linecap:round;stroke-linejoin:round;paint-order:fill markers stroke"
         d="m 22.199679,16.899227 v 8.294067 h 0.02222 v 4.196643 l -3.770312,-2.976562 -0.842843,0.931209 4.927865,5.230172 c 0.421494,0.304078 0.722758,0.602547 1.222148,0.602547 h 6.484875 c 0.851395,0 1.536857,-0.685463 1.536857,-1.536857 V 24.388692 22.5764 h -1.530656 v 1.812292 H 29.096932 V 21.80022 h -1.530656 v 2.588472 H 26.413375 V 21.02404 h -1.530139 v 3.364652 h -1.153418 v -7.489465 z"
         inkscape:label="clicker"
         sodipodi:nodetypes="cccccccsssccccccccccccccc" /></g></g></svg>
