<?xml version="1.0" encoding="UTF-8" standalone="no"?>
<!-- Created with Inkscape (http://www.inkscape.org/) -->

<svg
   width="50mm"
   height="40mm"
   viewBox="0 0 50 40.000004"
   version="1.1"
   id="svg11168"
   xml:space="preserve"
   inkscape:version="1.2.2 (732a01da63, 2022-12-09)"
   sodipodi:docname="moodle.svg"
   xmlns:inkscape="http://www.inkscape.org/namespaces/inkscape"
   xmlns:sodipodi="http://sodipodi.sourceforge.net/DTD/sodipodi-0.dtd"
   xmlns="http://www.w3.org/2000/svg"
   xmlns:svg="http://www.w3.org/2000/svg"><sodipodi:namedview
     id="namedview11170"
     pagecolor="#ffffff"
     bordercolor="#000000"
     borderopacity="0.25"
     inkscape:showpageshadow="2"
     inkscape:pageopacity="0.0"
     inkscape:pagecheckerboard="0"
     inkscape:deskcolor="#d1d1d1"
     inkscape:document-units="mm"
     showgrid="false"
     inkscape:zoom="3.2559999"
     inkscape:cx="56.971746"
     inkscape:cy="94.594597"
     inkscape:window-width="1920"
     inkscape:window-height="1017"
     inkscape:window-x="-8"
     inkscape:window-y="-8"
     inkscape:window-maximized="1"
     inkscape:current-layer="layer1"
     showguides="true"><sodipodi:guide
       position="21.260077,-42.971757"
       orientation="0,-1"
       id="guide5789"
       inkscape:locked="false" /><sodipodi:guide
       position="2.6431447,-1.7157181"
       orientation="1,0"
       id="guide5791"
       inkscape:locked="false" /><sodipodi:guide
       position="52.403214,-23.320551"
       orientation="0,-1"
       id="guide5795"
       inkscape:locked="false" /></sodipodi:namedview><defs
     id="defs11165" /><g
     inkscape:label="Camada 1"
     inkscape:groupmode="layer"
     id="layer1"
     transform="translate(-1.767243,-50.88482)"><g
       aria-label="moodle"
       transform="matrix(0.35163546,0,0,0.40236908,4.1949983,45.044141)"
       id="text5904"
       style="font-weight:500;font-size:34.5766px;font-family:'Futura LT Pro';-inkscape-font-specification:'Futura LT Pro Medium';display:inline;opacity:1;fill:#f67f12;fill-opacity:1;stroke-width:0.408384;stroke-linecap:round;stroke-linejoin:bevel"><path
         d="M 9.6088492,59.763883 H 3.0330271 v 17.737795 h 6.5758221 v -8.471266 c 0,-1.970866 0,-4.979031 2.9266028,-4.979031 2.926601,0 2.926601,3.008165 2.926601,4.979031 v 8.471266 h 6.575822 v -8.471266 c 0,-2.109173 0.108393,-4.840724 3.143388,-4.840724 2.782078,0 2.709817,3.008164 2.709817,4.840724 v 8.471266 h 6.575822 V 66.195131 c 0,-4.080039 -1.625891,-7.01905 -6.322906,-7.01905 -2.529162,0 -5.022194,1.175604 -6.286775,3.388507 -1.336843,-2.351209 -3.64922,-3.388507 -6.322906,-3.388507 -2.384638,0 -4.299576,0.829838 -5.8532041,2.800704 h -0.072261 z"
         style="-inkscape-font-specification:'Futura LT Pro Bold';fill:#f67f12;fill-opacity:1;stroke-width:0.417462"
         id="path5906" /><path
         d="m 46.010351,59.176081 c -5.784372,0 -10.832551,3.423083 -10.832551,9.473988 0,6.050905 5.083235,9.439412 10.832551,9.439412 5.78437,0 10.83255,-3.423084 10.83255,-9.439412 0,-6.050905 -5.04818,-9.473988 -10.83255,-9.473988 z m 0,5.463103 c 2.594202,0 4.101644,1.832559 4.101644,4.010885 0,2.247479 -1.507442,3.976309 -4.101644,3.976309 -2.594204,0 -4.101646,-1.72883 -4.101646,-3.976309 0,-2.178326 1.507442,-4.010885 4.101646,-4.010885 z"
         style="-inkscape-font-specification:'Futura LT Pro Bold';fill:#f67f12;fill-opacity:1;stroke-width:0.41121"
         id="path5908" /><path
         d="m 69.217973,59.176081 c -5.784372,0 -10.83255,3.423083 -10.83255,9.473988 0,6.050905 5.083236,9.439412 10.83255,9.439412 5.784371,0 10.83255,-3.423084 10.83255,-9.439412 0,-6.050905 -5.048179,-9.473988 -10.83255,-9.473988 z m 0,5.463103 c 2.594203,0 4.101645,1.832559 4.101645,4.010885 0,2.247479 -1.507442,3.976309 -4.101645,3.976309 -2.594202,0 -4.101645,-1.72883 -4.101645,-3.976309 0,-2.178326 1.507443,-4.010885 4.101645,-4.010885 z"
         style="-inkscape-font-specification:'Futura LT Pro Bold';fill:#f67f12;fill-opacity:1;stroke-width:0.41121"
         id="path5910" /><path
         d="M 96.740143,77.501678 H 103.6317 V 46.824371 h -6.891557 v 14.668342 c -1.438897,-1.555947 -3.78657,-2.316632 -6.020648,-2.316632 -5.755587,0 -9.731486,4.356651 -9.731486,9.439411 0,5.082761 4.051631,9.473989 9.807219,9.473989 2.271941,0 4.657481,-0.795262 5.869183,-2.558669 h 0.07573 z M 92.53705,64.639184 c 2.802061,0 4.430287,1.832559 4.430287,4.010885 0,2.247479 -1.628226,3.976309 -4.430287,3.976309 -2.802062,0 -4.430288,-1.72883 -4.430288,-3.976309 0,-2.178326 1.628226,-4.010885 4.430288,-4.010885 z"
         style="-inkscape-font-specification:'Futura LT Pro Bold';fill:#f67f12;fill-opacity:1;stroke-width:0.427367"
         id="path5912"
         sodipodi:nodetypes="cccccssscccsssss" /><path
         d="m 111.8111,46.824371 h -6.5388 v 30.677307 h 6.5388 z"
         style="-inkscape-font-specification:'Futura LT Pro Bold';fill:#f67f12;fill-opacity:1;stroke-width:0.416286"
         id="path5914"
         sodipodi:nodetypes="ccccc" /><path
         d="m 120.08245,66.056824 c 0.44017,-1.83256 2.20088,-2.800704 4.32172,-2.800704 1.96078,0 3.76151,1.106451 4.12165,2.800704 z m 15.20608,2.973588 c 0,-6.050905 -4.12165,-9.854331 -11.2445,-9.854331 -6.68267,0 -11.36454,3.56139 -11.36454,9.473988 0,6.120058 5.08202,9.439412 11.88475,9.439412 2.36095,0 4.68187,-0.484073 6.56262,-1.486794 1.88075,-1.002721 3.32133,-2.524092 3.88155,-4.598688 h -7.0028 c -0.80032,1.175605 -1.92076,1.6251 -3.48139,1.6251 -3.00119,0 -4.56182,-1.383064 -4.56182,-3.941732 h 15.32613 z"
         style="-inkscape-font-specification:'Futura LT Pro Bold';fill:#f67f12;fill-opacity:1;stroke-width:0.439334"
         id="path5916" /></g><path
       id="path11184"
       style="display:inline;opacity:1;fill:#343434;fill-opacity:1;stroke:none;stroke-width:0.0872963;stroke-dasharray:none;stroke-opacity:1"
       d="M 12.274361,66.406356 C 6.8762401,66.359449 1.9611667,69.58605 1.9611667,69.58605 L 2.1943936,69.57453 C 2.0312043,69.982048 1.6654505,71.120947 1.9717678,72.553943 1.755081,72.803585 1.3702125,73.529101 2.9475324,74.536598 3.1963642,72.883363 2.590352,72.539896 2.2627379,72.472516 1.9112015,70.831 2.4985943,69.628408 2.5340844,69.557853 l 2.5634683,-0.126537 0.038796,1.703641 c 3.7558453,1.045444 5.9240583,-1.935964 5.9240583,-1.935964 l -1.008019,-1.161623 2.47956,-1.626277 c -0.08591,-0.0023 -0.171902,-0.004 -0.257587,-0.0047 z" /></g></svg>
