<?xml version="1.0" encoding="UTF-8" standalone="no"?>
<!-- Created with Inkscape (http://www.inkscape.org/) -->

<svg
   width="50mm"
   height="40mm"
   viewBox="0 0 50 40"
   version="1.1"
   id="svg5"
   xml:space="preserve"
   inkscape:version="1.2.2 (732a01da63, 2022-12-09)"
   sodipodi:docname="redmine.svg"
   xmlns:inkscape="http://www.inkscape.org/namespaces/inkscape"
   xmlns:sodipodi="http://sodipodi.sourceforge.net/DTD/sodipodi-0.dtd"
   xmlns="http://www.w3.org/2000/svg"
   xmlns:svg="http://www.w3.org/2000/svg"><sodipodi:namedview
     id="namedview7"
     pagecolor="#ffffff"
     bordercolor="#000000"
     borderopacity="0.25"
     inkscape:showpageshadow="2"
     inkscape:pageopacity="0.0"
     inkscape:pagecheckerboard="0"
     inkscape:deskcolor="#d1d1d1"
     inkscape:document-units="mm"
     showgrid="false"
     inkscape:lockguides="true"
     inkscape:zoom="4.2179991"
     inkscape:cx="69.464216"
     inkscape:cy="85.822683"
     inkscape:window-width="1920"
     inkscape:window-height="1017"
     inkscape:window-x="-8"
     inkscape:window-y="-8"
     inkscape:window-maximized="1"
     inkscape:current-layer="layer1" /><defs
     id="defs2" /><g
     inkscape:label="Camada 1"
     inkscape:groupmode="layer"
     id="layer1"><g
       id="g636"
       style="display:inline"
       transform="matrix(0.8150809,0,0,0.8150809,5.379759,5.1478429)"><path
         id="path1254"
         style="display:inline;fill:#e92a36;fill-opacity:1;stroke:none;stroke-width:0.335928;stroke-linecap:round;stroke-linejoin:round;stroke-opacity:1;paint-order:fill markers stroke"
         d="m 24.06713,-0.18138428 c -1.782765,7e-8 -3.394804,0.28159524 -4.85345,0.78393148 l 2.452563,5.2704793 C 22.40124,5.6520984 23.19855,5.5298951 24.06713,5.529895 c 0.882388,0 1.691414,0.1257648 2.436027,0.3534668 L 29.070443,0.6547404 C 27.572688,0.11955272 25.911024,-0.18138435 24.06713,-0.18138428 Z"
         sodipodi:nodetypes="sccsccs" /><path
         id="path1248"
         style="display:inline;fill:#a20000;fill-opacity:1;stroke:none;stroke-width:0.335928;stroke-linecap:round;stroke-linejoin:round;stroke-opacity:1;paint-order:fill markers stroke"
         d="M 6.993237,16.872872 C 5.8096674,21.254876 5.5705849,24.759729 5.5705849,24.759729 H 13.23575 c 0.01586,-1.050356 0.107074,-3.424746 0.556555,-6.157247 z"
         sodipodi:nodetypes="ccccc" /><path
         id="path1256"
         style="display:inline;fill:#a20000;fill-opacity:1;stroke:none;stroke-width:0.335928;stroke-linecap:round;stroke-linejoin:round;stroke-opacity:1;paint-order:fill markers stroke"
         d="m 41.149815,16.872872 c 1.183569,4.382004 1.422652,7.886857 1.422652,7.886857 h -7.665165 c -0.01586,-1.050356 -0.107074,-3.424746 -0.556555,-6.157247 z"
         sodipodi:nodetypes="ccccc" /><path
         id="path1250"
         style="display:inline;fill:#cc0000;fill-opacity:1;stroke:none;stroke-width:0.335928;stroke-linecap:round;stroke-linejoin:round;stroke-opacity:1;paint-order:fill markers stroke"
         d="M 10.202344,8.7715576 C 9.2230465,10.510295 8.4463916,12.348107 7.8314288,14.134538 l 6.2740352,2.805513 c 0.392954,-1.845943 0.960906,-3.762065 1.786455,-5.486487 z"
         sodipodi:nodetypes="ccccc" /><path
         id="path1258"
         style="display:inline;fill:#cc0000;fill-opacity:1;stroke:none;stroke-width:0.335928;stroke-linecap:round;stroke-linejoin:round;stroke-opacity:1;paint-order:fill markers stroke"
         d="m 37.940708,8.7715576 c 0.979297,1.7387374 1.755952,3.5765494 2.370915,5.3629804 l -6.274035,2.805513 c -0.392954,-1.845943 -0.960906,-3.762065 -1.786456,-5.486487 z"
         sodipodi:nodetypes="ccccc" /><path
         id="path1252"
         style="display:inline;fill:#dd0c00;fill-opacity:1;stroke:none;stroke-width:0.335928;stroke-linecap:round;stroke-linejoin:round;stroke-opacity:1;paint-order:fill markers stroke"
         d="M 16.593685,1.8257284 C 14.670803,2.980957 13.08015,4.5583403 11.762972,6.3479329 l 4.905644,3.6721271 c 0.943776,-1.5338919 2.146596,-2.8175642 3.678845,-3.6142495 z"
         sodipodi:nodetypes="ccccc" /><path
         id="path1260"
         style="display:inline;fill:#dd0c00;fill-opacity:1;stroke:none;stroke-width:0.335928;stroke-linecap:round;stroke-linejoin:round;stroke-opacity:1;paint-order:fill markers stroke"
         d="m 31.549366,1.8257284 c 1.922883,1.1552286 3.513536,2.7326119 4.830714,4.5222045 L 31.474435,10.02006 C 30.530659,8.4861681 29.327838,7.2024958 27.795588,6.4058105 Z"
         sodipodi:nodetypes="ccccc" /><path
         d="m 5.5989408,29.441003 v 7.183775 h 1.1859171 v -2.565634 l 2.2355212,2.565634 H 10.088159 V 36.121153 L 8.138893,34.00213 C 8.6468738,33.934907 9.047642,33.677385 9.3429845,33.23244 9.6383192,32.787502 9.7909937,32.284816 9.7973589,31.721567 9.8069405,31.067819 9.605148,30.527123 9.1975856,30.101416 8.7900121,29.675724 8.1193403,29.456213 7.1801632,29.441003 Z m 5.4842972,0 v 7.183775 h 3.816743 v -1.13078 h -2.630826 v -2.052506 h 1.931091 v -1.116527 h -1.931091 v -1.776939 h 2.521778 v -1.107023 z m 4.961767,0 v 7.183775 h 1.962897 c 0.64392,-0.0113 1.162862,-0.188082 1.553959,-0.532131 0.39109,-0.344051 0.674256,-0.788631 0.849681,-1.330329 0.175414,-0.541695 0.25754,-1.115721 0.254449,-1.719926 0.0049,-0.597297 -0.06721,-1.164637 -0.222643,-1.710422 -0.155435,-0.545773 -0.420424,-0.993908 -0.795155,-1.344581 -0.374741,-0.350663 -0.891864,-0.534412 -1.544873,-0.546386 z m -9.2601471,1.073764 h 0.3953053 c 0.4927601,0.0037 0.8480898,0.108105 1.0723234,0.318329 0.2242269,0.210245 0.3350974,0.504822 0.3316937,0.878968 -7.254e-4,0.388171 -0.097011,0.716961 -0.2953437,0.988244 -0.1983356,0.271293 -0.4936848,0.410979 -0.8814862,0.422855 -0.1499425,-0.0062 -0.2898953,-0.02803 -0.4180245,-0.07126 -0.1281336,-0.04324 -0.1962922,-0.06983 -0.204468,-0.07602 z m 10.4369771,0 h 0.840591 c 0.415594,0.01317 0.724576,0.160529 0.926924,0.441861 0.202341,0.281341 0.333506,0.615691 0.395306,1.007248 0.06179,0.391566 0.08785,0.758438 0.08179,1.102273 0.0054,0.353767 -0.02488,0.722325 -0.09542,1.102272 -0.07055,0.379948 -0.211476,0.70332 -0.422569,0.969239 -0.211099,0.265924 -0.524289,0.401668 -0.940553,0.413351 h -0.786067 z"
         fill="#9c0000"
         id="path270"
         style="stroke-width:0.148682" /><path
         d="m 22.074552,29.441003 v 7.183775 h 1.190459 V 32.66705 l -0.09087,-0.831456 1.594853,4.789184 h 0.981449 l 1.59031,-4.789184 -0.08632,0.831456 v 3.957728 h 1.19046 V 29.441003 H 27.04542 l -1.635747,4.869953 c -0.05407,0.171282 -0.08951,0.31762 -0.113594,0.441859 -0.02409,0.124243 -0.03682,0.188861 -0.03636,0.194799 4.36e-4,-0.0052 -0.01229,-0.06795 -0.03636,-0.190046 -0.02409,-0.122104 -0.06407,-0.270342 -0.118137,-0.446612 L 23.46948,29.441003 Z m 7.937917,0 v 7.183775 h 1.176829 v -7.183775 z m 2.69444,0 v 7.183775 h 1.19046 v -4.081257 c -0.0032,-0.248954 -0.01863,-0.469416 -0.04089,-0.655663 -0.02228,-0.186241 -0.03317,-0.280314 -0.03636,-0.289822 l 2.167365,5.026742 h 1.145024 V 29.441003 H 35.94659 c -4e-6,1.13276 -4e-6,1.979797 0,2.541878 -4e-6,0.562091 -4e-6,0.955142 0,1.17354 -4e-6,0.218406 -4e-6,0.378168 0,0.479868 -4e-6,0.10171 -4e-6,0.258381 0,0.470366 -0.0023,-0.01759 -0.0359,-0.140158 -0.09542,-0.365839 -0.05953,-0.225674 -0.133137,-0.451838 -0.222643,-0.674667 l -1.526698,-3.625146 z m 6.020458,0 v 7.183775 h 3.816744 v -1.13078 h -2.630826 v -2.052506 h 1.93109 v -1.116527 h -1.93109 v -1.776939 h 2.521776 v -1.107023 z"
         fill="#ce3129"
         id="path272"
         style="stroke-width:0.148682" /></g></g></svg>
