<?xml version="1.0" encoding="UTF-8" standalone="no"?>
<!-- Created with Inkscape (http://www.inkscape.org/) -->

<svg
   width="50mm"
   height="40mm"
   viewBox="0 0 50 40"
   version="1.1"
   id="svg18823"
   xml:space="preserve"
   inkscape:version="1.2.2 (732a01da63, 2022-12-09)"
   sodipodi:docname="sie.svg"
   xmlns:inkscape="http://www.inkscape.org/namespaces/inkscape"
   xmlns:sodipodi="http://sodipodi.sourceforge.net/DTD/sodipodi-0.dtd"
   xmlns:xlink="http://www.w3.org/1999/xlink"
   xmlns="http://www.w3.org/2000/svg"
   xmlns:svg="http://www.w3.org/2000/svg"><sodipodi:namedview
     id="namedview18825"
     pagecolor="#ffffff"
     bordercolor="#000000"
     borderopacity="0.25"
     inkscape:showpageshadow="2"
     inkscape:pageopacity="0.0"
     inkscape:pagecheckerboard="0"
     inkscape:deskcolor="#d1d1d1"
     inkscape:document-units="mm"
     showgrid="false"
     inkscape:zoom="4.2179991"
     inkscape:cx="83.92605"
     inkscape:cy="62.588918"
     inkscape:window-width="1920"
     inkscape:window-height="1017"
     inkscape:window-x="-8"
     inkscape:window-y="-8"
     inkscape:window-maximized="1"
     inkscape:current-layer="layer1" /><defs
     id="defs18820"><linearGradient
       inkscape:collect="always"
       id="linearGradient23236"><stop
         style="stop-color:#0c9bd7;stop-opacity:1;"
         offset="0"
         id="stop23232" /><stop
         style="stop-color:#61a3d6;stop-opacity:1;"
         offset="1"
         id="stop23234" /></linearGradient><linearGradient
       inkscape:collect="always"
       xlink:href="#linearGradient23236"
       id="linearGradient23238"
       x1="33.399193"
       y1="9.1370964"
       x2="33.399193"
       y2="1.0201613"
       gradientUnits="userSpaceOnUse" /></defs><g
     inkscape:label="Camada 1"
     inkscape:groupmode="layer"
     id="layer1"><g
       id="g26239"
       transform="matrix(0.86775525,0,0,0.86775525,3.1592279,3.8841467)"><rect
         style="opacity:1;fill:url(#linearGradient23238);fill-opacity:1;stroke:none;stroke-width:0.323001;stroke-linecap:round;stroke-linejoin:round;stroke-dasharray:none;stroke-opacity:1;paint-order:fill markers stroke"
         id="rect21817"
         width="7.8409019"
         height="7.6213565"
         x="29.356335"
         y="1.2859079" /><path
         id="rect21815"
         style="fill:#0478aa;fill-opacity:1;stroke:none;stroke-width:0.323001;stroke-linecap:round;stroke-linejoin:round;stroke-dasharray:none;stroke-opacity:1;paint-order:fill markers stroke"
         d="M 13.141317,2.7915609 V 24.526152 H 34.970475 V 10.694954 H 27.56886 V 2.7915609 Z" /><path
         style="fill:#f2ba02;fill-opacity:1;stroke:none;stroke-width:0.323001;stroke-linecap:round;stroke-linejoin:round;stroke-dasharray:none;stroke-opacity:1;paint-order:fill markers stroke"
         d="m 22.362252,17.56362 c 0,0 1.693634,-2.634543 -0.909545,-2.979543 -2.603179,-0.344999 -2.509089,4.014542 0.564545,4.014542 3.073633,0 4.077269,-2.916815 4.077269,-5.174995 0,-2.25818 -2.230831,-4.1399962 -4.896737,-4.1086326 -2.665907,0.031364 -6.64507,2.2895436 -5.923707,8.0290836 0.721363,5.73954 12.419987,8.43681 16.52862,-2.320907 m 0,0 c 0,0 -0.23824,4.73123 -3.983177,7.119539 -2.952304,1.882813 -6.657674,2.988281 -10.475445,0.78409 -4.539627,-2.620955 -4.579087,-8.029084 -3.104997,-10.538172 0,0 1.582453,-4.2654507 6.272721,-4.7359048 4.88122,-0.4896073 7.028186,2.6121788 7.589993,5.1436318 0.632523,2.850093 -0.379868,6.848203 -4.202723,7.684084 -6.405536,1.400594 -7.688081,-4.190177 -5.73954,-6.398176 0.889669,-1.008133 2.284632,-1.50165 3.512724,-1.285908 2.006042,0.352406 3.751086,2.999949 0.689999,4.767268"
         id="path20756"
         sodipodi:nodetypes="csszzzccsscsssssc" /><path
         d="m 13.678836,34.91215 v -2.162637 q 1.16035,0.681475 1.953502,0.952673 0.800494,0.271198 1.549582,0.271198 0.75643,0 1.145662,-0.215568 0.389232,-0.222522 0.389232,-0.653658 0,-0.347691 -0.242352,-0.556305 -0.242351,-0.215568 -1.130974,-0.507628 -2.195854,-0.730151 -3.025725,-1.488117 -0.822527,-0.764919 -0.822527,-1.947067 0,-1.244733 1.072223,-2.02356 1.079566,-0.778827 2.805405,-0.778827 0.873935,0 1.755213,0.20166 0.881279,0.201661 1.740526,0.591074 v 1.995744 q -1.035503,-0.49372 -1.85803,-0.73015 -0.822526,-0.236429 -1.498174,-0.236429 -0.734399,0 -1.12363,0.20166 -0.381888,0.201661 -0.381888,0.577167 0,0.305968 0.345168,0.577167 0.345168,0.264244 1.042847,0.507627 0.146879,0.05563 0.447983,0.159939 1.468798,0.514582 2.107725,0.883133 0.668304,0.389415 1.006127,1.00135 0.345168,0.611935 0.345168,1.432486 0,1.349039 -1.079567,2.120913 -1.072222,0.771873 -2.98166,0.771873 -0.95472,0 -1.850686,-0.23643 -0.888623,-0.236429 -1.71115,-0.709288 z"
         style="font-weight:bold;font-size:14.6355px;font-family:'Humanst521 BT';-inkscape-font-specification:'Humanst521 BT Bold';fill:#03435a;stroke-width:0.558337;stroke-linecap:round;stroke-linejoin:round;paint-order:fill markers stroke"
         id="path26228" /><path
         d="m 22.895546,35.684022 v -9.728385 h 2.65118 v 9.728385 z"
         style="font-weight:bold;font-size:14.6355px;font-family:'Humanst521 BT';-inkscape-font-specification:'Humanst521 BT Bold';fill:#03435a;stroke-width:0.558337;stroke-linecap:round;stroke-linejoin:round;paint-order:fill markers stroke"
         id="path26225" /><path
         d="m 27.617733,35.684022 v -9.728385 h 6.873975 v 1.794084 H 30.18813 v 1.981837 h 4.112635 V 31.53955 H 30.18813 v 2.322574 h 4.428427 v 1.821898 z"
         style="font-weight:bold;font-size:14.6355px;font-family:'Humanst521 BT';-inkscape-font-specification:'Humanst521 BT Bold';fill:#03435a;stroke-width:0.558337;stroke-linecap:round;stroke-linejoin:round;paint-order:fill markers stroke"
         id="path26222" /></g></g></svg>
