<?xml version="1.0" encoding="UTF-8" standalone="no"?>
<!-- Created with Inkscape (http://www.inkscape.org/) -->

<svg
   width="50mm"
   height="40mm"
   viewBox="0 0 50 40"
   version="1.1"
   id="svg15648"
   xml:space="preserve"
   inkscape:version="1.2.2 (732a01da63, 2022-12-09)"
   sodipodi:docname="sigeleicao.svg"
   xmlns:inkscape="http://www.inkscape.org/namespaces/inkscape"
   xmlns:sodipodi="http://sodipodi.sourceforge.net/DTD/sodipodi-0.dtd"
   xmlns="http://www.w3.org/2000/svg"
   xmlns:svg="http://www.w3.org/2000/svg"><sodipodi:namedview
     id="namedview15650"
     pagecolor="#ffffff"
     bordercolor="#000000"
     borderopacity="0.25"
     inkscape:showpageshadow="2"
     inkscape:pageopacity="0.0"
     inkscape:pagecheckerboard="0"
     inkscape:deskcolor="#d1d1d1"
     inkscape:document-units="mm"
     showgrid="false"
     inkscape:zoom="2.9825758"
     inkscape:cx="-23.469647"
     inkscape:cy="104.60757"
     inkscape:window-width="1920"
     inkscape:window-height="1017"
     inkscape:window-x="-8"
     inkscape:window-y="-8"
     inkscape:window-maximized="1"
     inkscape:current-layer="layer1" /><defs
     id="defs15645" /><g
     inkscape:label="Camada 1"
     inkscape:groupmode="layer"
     id="layer1"><g
       id="g18802"
       transform="translate(0.4267189,-0.2689285)"><path
         id="path15781"
         style="display:inline;opacity:1;fill:#147874;fill-opacity:1;stroke-width:2.54876;stroke-linecap:square;stroke-linejoin:round;paint-order:fill markers stroke"
         d="m 24.573028,5.268929 a 9.8385805,9.8385805 0 0 0 -9.838312,9.838819 9.8385805,9.8385805 0 0 0 9.838312,9.838312 9.8385805,9.8385805 0 0 0 9.838818,-9.838312 9.8385805,9.8385805 0 0 0 -9.838818,-9.838819 z m 1.192492,2.7846764 c 0.199189,0.00367 0.399955,0.065685 0.576489,0.1904745 l 5.221332,3.6909501 c 0.47076,0.33277 0.586804,0.983187 0.256837,1.455914 l -3.451844,4.945245 h 3.906246 c 0.212914,0 0.384495,0.171075 0.384495,0.383988 0,0.212913 -0.171581,0.384495 -0.384495,0.384495 H 16.686573 c -0.212913,0 -0.383988,-0.171582 -0.383988,-0.384495 0,-0.212913 0.171075,-0.383988 0.383988,-0.383988 h 2.615985 c -0.469016,-0.333217 -0.584293,-0.981858 -0.25481,-1.453888 L 24.899266,8.4988903 C 25.1055,8.2034371 25.43354,8.0474786 25.76552,8.0536054 Z m -0.239613,4.0800036 a 0.39211772,0.39211772 0 0 0 -0.3926,0.390575 v 4.127622 l -1.273038,-1.213768 a 0.39211772,0.39211772 0 0 0 -0.555214,0.01368 0.39211772,0.39211772 0 0 0 0.01317,0.555213 l 1.937673,1.843449 a 0.39215694,0.39215694 0 0 0 0.662607,-0.283179 v -5.043015 a 0.39211772,0.39211772 0 0 0 -0.3926,-0.390575 z" /><path
         d="m 5.154122,32.143833 v -1.652916 q 0.6343244,0.520855 1.0679133,0.728133 0.4376035,0.20728 0.8471041,0.20728 0.4135153,0 0.626295,-0.164761 0.2127797,-0.170075 0.2127797,-0.499595 0,-0.265741 -0.1324855,-0.425187 Q 7.6432431,30.172027 7.157463,29.948804 5.9570643,29.390746 5.5034019,28.811428 5.0537542,28.226796 5.0537542,27.323272 q 0,-0.951355 0.5861479,-1.546618 0.5901626,-0.595262 1.5336198,-0.595262 0.4777507,0 0.9595161,0.154131 0.4817653,0.15413 0.9514868,0.451761 v 1.525359 Q 8.5184502,26.935289 8.0688025,26.754585 7.6191549,26.57388 7.2498014,26.57388 q -0.4014711,0 -0.6142509,0.154131 -0.2087649,0.15413 -0.2087649,0.441131 0,0.233853 0.1886914,0.441133 0.1886914,0.201963 0.570089,0.387983 0.080294,0.04252 0.2448974,0.122241 0.8029423,0.393298 1.1522222,0.674984 0.3653389,0.297631 0.5500154,0.765337 0.1886912,0.467707 0.1886912,1.094857 0,1.031079 -0.590162,1.621027 -0.5861481,0.589946 -1.6299732,0.589946 -0.5219124,0 -1.0117072,-0.180703 Q 5.6037697,32.505242 5.154122,32.143833 Z"
         style="font-weight:bold;font-size:9.65041px;font-family:'Humanst521 BT';-inkscape-font-specification:'Humanst521 BT Bold';fill:#ec751d;fill-opacity:1;stroke:none;stroke-width:0.89388;stroke-linecap:round;stroke-linejoin:round;paint-order:fill markers stroke"
         id="path17383" /><path
         d="m 10.192585,32.73378 v -7.435461 h 1.44931 v 7.435461 z"
         style="font-weight:bold;font-size:9.65041px;font-family:'Humanst521 BT';-inkscape-font-specification:'Humanst521 BT Bold';fill:#ec751d;fill-opacity:1;stroke:none;stroke-width:0.89388;stroke-linecap:round;stroke-linejoin:round;paint-order:fill markers stroke"
         id="path17380" /><path
         d="m 17.896816,31.862146 q -0.513883,0.510225 -1.092001,0.760022 -0.574104,0.244482 -1.26062,0.244482 -0.662427,0 -1.216458,-0.265741 -0.554029,-0.271057 -0.959516,-0.781282 -0.425559,-0.536799 -0.650382,-1.254302 -0.22081,-0.717503 -0.22081,-1.541303 0,-1.737953 0.871192,-2.795606 0.875208,-1.057653 2.316489,-1.057653 0.525927,0 1.039811,0.16476 0.513882,0.16476 1.047839,0.510225 v 1.631655 q -0.558045,-0.377353 -1.063899,-0.563372 -0.505853,-0.18602 -0.947472,-0.18602 -0.851118,0 -1.336899,0.611207 -0.481765,0.611206 -0.481765,1.684804 0,1.047022 0.461692,1.668859 0.461692,0.616522 1.240546,0.616522 0.208765,0 0.413516,-0.05846 0.204749,-0.05846 0.4095,-0.170075 v -0.935412 h -0.77484 v -1.397803 h 2.204077 z"
         style="font-weight:bold;font-size:9.65041px;font-family:'Humanst521 BT';-inkscape-font-specification:'Humanst521 BT Bold';fill:#ec751d;fill-opacity:1;stroke:none;stroke-width:0.89388;stroke-linecap:round;stroke-linejoin:round;paint-order:fill markers stroke"
         id="path17377" /><path
         d="m 18.876407,32.73378 v -7.435461 h 3.75777 v 1.371228 h -2.352621 v 1.51473 h 2.248238 v 1.381859 h -2.248238 v 1.775156 h 2.420871 v 1.392488 z"
         style="font-weight:bold;font-size:9.65041px;font-family:'Humanst521 BT';-inkscape-font-specification:'Humanst521 BT Bold';fill:#147874;stroke:none;stroke-width:0.89388;stroke-linecap:round;stroke-linejoin:round;paint-order:fill markers stroke"
         id="path17374" /><path
         d="m 23.485294,32.73378 v -7.435461 h 1.200399 v 7.435461 z"
         style="font-weight:bold;font-size:9.65041px;font-family:'Humanst521 BT';-inkscape-font-specification:'Humanst521 BT Bold';fill:#147874;stroke:none;stroke-width:0.89388;stroke-linecap:round;stroke-linejoin:round;paint-order:fill markers stroke"
         id="path17371" /><path
         d="m 29.1902,32.181037 q -0.389427,0.334834 -0.823016,0.499594 -0.429574,0.159446 -0.919369,0.159446 -0.983604,0 -1.541649,-0.712189 -0.558045,-0.712189 -0.558045,-1.971806 0,-1.16395 0.546001,-1.860194 0.546,-0.701559 1.453325,-0.701559 0.895282,0 1.413179,0.760023 0.517898,0.754707 0.517898,2.083417 v 0.05315 h -2.693872 v 0.02126 q 0,0.600577 0.309133,0.951356 0.309133,0.345465 0.847104,0.345465 0.361325,0 0.722648,-0.170075 0.361324,-0.170076 0.726663,-0.50491 z m -2.597518,-2.460771 1.477414,-0.0053 q -0.03212,-0.488965 -0.224824,-0.765337 -0.188692,-0.276372 -0.489795,-0.276372 -0.309132,0 -0.513883,0.276372 -0.200736,0.276372 -0.248912,0.770652 z"
         style="font-weight:bold;font-size:9.65041px;font-family:'Humanst521 BT';-inkscape-font-specification:'Humanst521 BT Bold';fill:#147874;stroke:none;stroke-width:0.89388;stroke-linecap:round;stroke-linejoin:round;paint-order:fill markers stroke"
         id="path17368" /><path
         d="m 29.932921,32.73378 v -5.038469 h 1.200399 v 5.038469 z m -0.04416,-6.670125 q 0,-0.356093 0.184677,-0.600575 0.188691,-0.249799 0.457677,-0.249799 0.273,0 0.457677,0.244483 0.184676,0.244483 0.184676,0.605891 0,0.356095 -0.184676,0.600577 -0.184677,0.244484 -0.457677,0.244484 -0.268986,0 -0.457677,-0.244484 -0.184677,-0.249797 -0.184677,-0.600577 z"
         style="font-weight:bold;font-size:9.65041px;font-family:'Humanst521 BT';-inkscape-font-specification:'Humanst521 BT Bold';fill:#147874;stroke:none;stroke-width:0.89388;stroke-linecap:round;stroke-linejoin:round;paint-order:fill markers stroke"
         id="path17365" /><path
         d="m 35.208253,32.505242 q -0.268986,0.164759 -0.570089,0.244482 -0.297089,0.07972 -0.646369,0.07972 -1.023751,0 -1.621943,-0.701559 -0.598192,-0.706874 -0.598192,-1.908027 0,-1.190525 0.590163,-1.913343 0.594177,-0.722818 1.581796,-0.722818 0.313147,0 0.610236,0.08503 0.297089,0.07972 0.590163,0.244482 v 1.238358 q -0.305119,-0.16476 -0.558046,-0.244483 -0.248912,-0.07972 -0.461691,-0.07972 -0.513884,0 -0.802943,0.372039 -0.289059,0.366724 -0.289059,1.020449 0,0.664355 0.293074,1.031079 0.297089,0.361409 0.847104,0.361409 0.236868,0 0.489795,-0.07972 0.252927,-0.08503 0.546001,-0.255113 z m -2.645695,2.535178 v -0.632465 q 0.329206,0.116926 0.586148,0.170074 0.260956,0.05846 0.441618,0.05846 0.21278,0 0.321177,-0.100981 0.112412,-0.100982 0.112412,-0.297631 0,-0.223223 -0.1365,-0.324205 -0.132485,-0.100982 -0.429574,-0.100982 -0.02811,0 -0.08832,0.0053 -0.05621,0.0053 -0.08431,0.0053 v -1.08954 h 0.361324 v 0.499594 h 0.05621 q 0.477751,0 0.714619,0.255113 0.240883,0.255111 0.240883,0.770651 0,0.478336 -0.264971,0.744077 -0.260957,0.265743 -0.738707,0.265743 -0.224824,0 -0.505854,-0.05846 -0.277015,-0.05846 -0.586147,-0.170075 z"
         style="font-weight:bold;font-size:9.65041px;font-family:'Humanst521 BT';-inkscape-font-specification:'Humanst521 BT Bold';fill:#147874;stroke:none;stroke-width:0.89388;stroke-linecap:round;stroke-linejoin:round;paint-order:fill markers stroke"
         id="path17362" /><path
         d="m 37.890082,31.527311 v -1.233043 q -0.614251,0.287001 -0.823017,0.50491 -0.20475,0.212594 -0.20475,0.510225 0,0.244482 0.112413,0.387983 0.112411,0.1435 0.309132,0.1435 0.132485,0 0.285044,-0.07972 0.15256,-0.07972 0.321178,-0.233852 z m 0.06022,0.738763 q -0.268985,0.287001 -0.56206,0.425187 -0.289059,0.138186 -0.622279,0.138186 -0.550016,0 -0.831046,-0.35078 -0.28103,-0.356094 -0.28103,-1.052337 0,-0.605892 0.413516,-0.993876 0.41753,-0.393298 1.822679,-0.930097 0.004,-0.02657 0.004,-0.05846 0.004,-0.03189 0.004,-0.08503 0,-0.361409 -0.184677,-0.531483 -0.180662,-0.17539 -0.562059,-0.17539 -0.321178,0 -0.658413,0.207278 -0.337236,0.207279 -0.658413,0.600577 l 0.01606,-1.254302 q 0.345264,-0.30826 0.75878,-0.457076 0.41753,-0.154131 0.935428,-0.154131 0.823016,0 1.192369,0.419873 0.369354,0.419872 0.369354,1.344654 v 2.003695 q 0,0.17539 0.03613,0.244482 0.03613,0.0691 0.120442,0.0691 0.07628,0 0.156573,-0.02657 0.08431,-0.02657 0.220809,-0.100981 v 0.882263 q -0.325192,0.207279 -0.578118,0.302946 -0.248912,0.09567 -0.473737,0.09567 -0.285044,0 -0.449647,-0.138186 -0.160589,-0.143501 -0.188692,-0.425187 z m 0.778854,-6.781736 q -0.09234,0.627151 -0.289059,0.919468 -0.192706,0.287001 -0.509868,0.287001 -0.06423,0 -0.1365,-0.0106 -0.06825,-0.01595 -0.140515,-0.04252 l -0.341251,-0.132872 q -0.08029,-0.02657 -0.144529,-0.03721 -0.06423,-0.01595 -0.108398,-0.01595 -0.132485,0 -0.216794,0.09036 -0.08431,0.08503 -0.128471,0.271057 H 36.3123 q 0.08029,-0.584633 0.268985,-0.871634 0.192707,-0.292316 0.50184,-0.292316 0.05621,0 0.132485,0.01595 0.08029,0.01595 0.20475,0.05846 l 0.357309,0.132871 q 0.05219,0.01595 0.100368,0.02657 0.05219,0.0053 0.104383,0.0053 0.124456,0 0.216794,-0.106294 0.09234,-0.111607 0.128471,-0.297631 z"
         style="font-weight:bold;font-size:9.65041px;font-family:'Humanst521 BT';-inkscape-font-specification:'Humanst521 BT Bold';fill:#147874;stroke:none;stroke-width:0.89388;stroke-linecap:round;stroke-linejoin:round;paint-order:fill markers stroke"
         id="path17359" /><path
         d="m 41.137981,30.219861 q 0,0.643095 0.232852,1.031079 0.236869,0.382668 0.622281,0.382668 0.389427,0 0.62228,-0.382668 0.232853,-0.387984 0.232853,-1.031079 0,-0.643096 -0.236867,-1.031079 -0.232854,-0.393299 -0.618266,-0.393299 -0.381398,0 -0.618266,0.393299 -0.236867,0.387983 -0.236867,1.031079 z m -1.232517,0 q 0,-1.16395 0.578118,-1.892083 0.582134,-0.733449 1.509532,-0.733449 0.931413,0 1.513546,0.733449 0.586148,0.733448 0.586148,1.892083 0,1.153319 -0.582133,1.881453 -0.582133,0.728133 -1.517561,0.728133 -0.927398,0 -1.509532,-0.722819 -0.578118,-0.728132 -0.578118,-1.886767 z"
         style="font-weight:bold;font-size:9.65041px;font-family:'Humanst521 BT';-inkscape-font-specification:'Humanst521 BT Bold';fill:#147874;stroke:none;stroke-width:0.89388;stroke-linecap:round;stroke-linejoin:round;paint-order:fill markers stroke"
         id="path17356" /></g></g></svg>
