<?xml version="1.0" encoding="UTF-8" standalone="no"?>
<!-- Created with Inkscape (http://www.inkscape.org/) -->

<svg
   width="50mm"
   height="40mm"
   viewBox="0 0 50 40"
   version="1.1"
   id="svg10816"
   xml:space="preserve"
   inkscape:version="1.2.2 (732a01da63, 2022-12-09)"
   sodipodi:docname="sigaa.svg"
   xmlns:inkscape="http://www.inkscape.org/namespaces/inkscape"
   xmlns:sodipodi="http://sodipodi.sourceforge.net/DTD/sodipodi-0.dtd"
   xmlns="http://www.w3.org/2000/svg"
   xmlns:svg="http://www.w3.org/2000/svg"><sodipodi:namedview
     id="namedview10818"
     pagecolor="#ffffff"
     bordercolor="#000000"
     borderopacity="0.25"
     inkscape:showpageshadow="2"
     inkscape:pageopacity="0.0"
     inkscape:pagecheckerboard="0"
     inkscape:deskcolor="#d1d1d1"
     inkscape:document-units="mm"
     showgrid="false"
     inkscape:zoom="2.9825758"
     inkscape:cx="20.452121"
     inkscape:cy="96.896114"
     inkscape:window-width="1920"
     inkscape:window-height="1017"
     inkscape:window-x="-8"
     inkscape:window-y="-8"
     inkscape:window-maximized="1"
     inkscape:current-layer="layer1" /><defs
     id="defs10813" /><g
     inkscape:label="Camada 1"
     inkscape:groupmode="layer"
     id="layer1"><g
       id="g14026"
       transform="matrix(0.8070859,0,0,0.8070859,4.2247473,4.0887286)"><circle
         style="display:inline;opacity:1;fill:#2c5aa0;fill-opacity:1;stroke-width:2.64223;stroke-linecap:square;stroke-linejoin:round;paint-order:fill markers stroke"
         id="path11510"
         cx="25.65543"
         cy="-14.866349"
         r="13.737261"
         transform="scale(1,-1)" /><path
         id="path12407"
         style="opacity:1;fill:#ffffff;stroke-width:2.33828;stroke-linecap:square;stroke-linejoin:round;paint-order:fill markers stroke"
         d="M 25.950672,17.577983 38.960107,12.219758 25.950672,6.8615335 12.941239,12.219758 Z" /><path
         id="path12465"
         style="opacity:1;fill:#ffffff;fill-opacity:1;stroke-width:2.6;stroke-linecap:square;stroke-linejoin:round;paint-order:fill markers stroke"
         d="m 32.803682,15.887919 -6.852811,2.822567 -6.846611,-2.819983 0.03772,4.556828 c 0,0 6.343157,4.391215 13.661698,0.04444 z" /><path
         id="path12467"
         style="display:inline;opacity:1;fill:#ffffff;fill-opacity:1;stroke-width:2.6;stroke-linecap:square;stroke-linejoin:round;paint-order:fill markers stroke"
         d="m 35.306372,14.816667 c -0.354818,0.146128 -0.709716,0.292088 -1.064534,0.438216 v 3.066996 l 1.064534,-1.02371 z" /><g
         aria-label="SIGAA"
         transform="scale(0.90146618,1.109304)"
         id="text12600"
         style="font-size:12.0976px;font-family:Verdana;-inkscape-font-specification:Verdana;display:inline;opacity:1;fill:#2c5aa0;stroke-width:3.71502;stroke-linecap:square;stroke-linejoin:round;paint-order:fill markers stroke"><path
           d="m 10.092242,33.722665 v -1.837087 q 0.933311,0.578889 1.57127,0.809264 0.643867,0.230374 1.246384,0.230374 0.608424,0 0.921497,-0.183118 0.313072,-0.189025 0.313072,-0.555261 0,-0.295352 -0.194932,-0.472563 -0.194932,-0.183118 -0.909682,-0.431213 -1.766203,-0.620238 -2.433697,-1.264105 -0.6615878,-0.649773 -0.6615878,-1.653968 0,-1.057359 0.8624268,-1.718946 0.868333,-0.661588 2.256486,-0.661588 0.702936,0 1.41178,0.171304 0.708844,0.171304 1.399967,0.502098 v 1.695318 q -0.832892,-0.4194 -1.494479,-0.620239 -0.661588,-0.200839 -1.205035,-0.200839 -0.590703,0 -0.903776,0.171304 -0.307165,0.171304 -0.307165,0.490284 0,0.259909 0.27763,0.490283 0.277631,0.224468 0.838799,0.431214 0.11814,0.04726 0.360329,0.135861 1.181406,0.437121 1.695318,0.750193 0.537539,0.330794 0.809263,0.850613 0.27763,0.519819 0.27763,1.216848 0,1.145964 -0.868333,1.801645 -0.862427,0.65568 -2.398255,0.65568 -0.767914,0 -1.488572,-0.200839 -0.714751,-0.200839 -1.376338,-0.602517 z"
           style="font-weight:bold;font-family:'Humanst521 BT';-inkscape-font-specification:'Humanst521 BT Bold';opacity:1;fill:#eb741a;fill-opacity:1"
           id="path12910" /><path
           d="m 17.505566,34.378345 v -8.263936 h 2.132439 v 8.263936 z"
           style="font-weight:bold;font-family:'Humanst521 BT';-inkscape-font-specification:'Humanst521 BT Bold';opacity:1;fill:#eb741a;fill-opacity:1"
           id="path12907" /><path
           d="m 28.841159,33.409592 q -0.7561,0.567075 -1.606712,0.844706 -0.844706,0.271723 -1.854808,0.271723 -0.97466,0 -1.789831,-0.295351 -0.81517,-0.301259 -1.41178,-0.868334 -0.626145,-0.59661 -0.956939,-1.394059 -0.324887,-0.797449 -0.324887,-1.713039 0,-1.9316 1.281826,-3.107099 1.287733,-1.175499 3.408357,-1.175499 0.773821,0 1.529921,0.183118 0.7561,0.183118 1.541735,0.567075 v 1.813459 q -0.821077,-0.4194 -1.565363,-0.626146 -0.744286,-0.206746 -1.394059,-0.206746 -1.252291,0 -1.967042,0.679309 -0.708844,0.679308 -0.708844,1.872529 0,1.163685 0.679309,1.854807 0.679309,0.685216 1.825273,0.685216 0.307165,0 0.608424,-0.06498 0.301258,-0.06498 0.602517,-0.189025 v -1.039638 h -1.140057 v -1.553549 h 3.24296 z"
           style="font-weight:bold;font-family:'Humanst521 BT';-inkscape-font-specification:'Humanst521 BT Bold';opacity:1;fill:#eb741a;fill-opacity:1"
           id="path12904" /><path
           d="m 32.692543,31.353945 h 2.439604 l -1.157778,-3.14254 z m -3.46152,3.0244 3.603289,-8.263936 h 2.386441 l 3.219332,8.263936 h -2.191509 l -0.590703,-1.606712 h -3.56194 l -0.661587,1.606712 z"
           style="font-weight:bold;font-family:'Humanst521 BT';-inkscape-font-specification:'Humanst521 BT Bold'"
           id="path12901" /><path
           d="m 41.417229,31.353945 h 2.439604 l -1.157778,-3.14254 z m -3.46152,3.0244 3.603289,-8.263936 h 2.38644 l 3.219332,8.263936 h -2.191508 l -0.590703,-1.606712 h -3.56194 l -0.661588,1.606712 z"
           style="font-weight:bold;font-family:'Humanst521 BT';-inkscape-font-specification:'Humanst521 BT Bold'"
           id="path12898" /></g></g></g></svg>
