<?xml version="1.0" encoding="UTF-8" standalone="no"?>
<!-- Created with Inkscape (http://www.inkscape.org/) -->

<svg
   width="50mm"
   height="40mm"
   viewBox="0 0 50 40"
   version="1.1"
   id="svg14046"
   xml:space="preserve"
   inkscape:version="1.2.2 (732a01da63, 2022-12-09)"
   sodipodi:docname="sigrh.svg"
   xmlns:inkscape="http://www.inkscape.org/namespaces/inkscape"
   xmlns:sodipodi="http://sodipodi.sourceforge.net/DTD/sodipodi-0.dtd"
   xmlns="http://www.w3.org/2000/svg"
   xmlns:svg="http://www.w3.org/2000/svg"><sodipodi:namedview
     id="namedview14048"
     pagecolor="#ffffff"
     bordercolor="#000000"
     borderopacity="0.25"
     inkscape:showpageshadow="2"
     inkscape:pageopacity="0.0"
     inkscape:pagecheckerboard="0"
     inkscape:deskcolor="#d1d1d1"
     inkscape:document-units="mm"
     showgrid="false"
     inkscape:zoom="4.2179991"
     inkscape:cx="93.646298"
     inkscape:cy="72.309167"
     inkscape:window-width="1920"
     inkscape:window-height="1017"
     inkscape:window-x="-8"
     inkscape:window-y="-8"
     inkscape:window-maximized="1"
     inkscape:current-layer="layer1" /><defs
     id="defs14043" /><g
     inkscape:label="Camada 1"
     inkscape:groupmode="layer"
     id="layer1"><g
       id="g15632"
       transform="matrix(0.81050188,0,0,0.81050188,4.6313544,4.1577158)"><path
         id="path14236"
         style="display:inline;opacity:1;fill:#136c38;fill-opacity:1;stroke-width:2.6;stroke-linecap:square;stroke-linejoin:round;paint-order:fill markers stroke"
         d="m 25.812378,1.0392131 a 13.768623,13.768623 0 0 0 -13.697872,12.4504029 3.3559058,3.3559058 0 0 1 0.624768,-0.06615 3.3559058,3.3559058 0 0 1 3.355868,3.355868 3.3559058,3.3559058 0 0 1 -2.981731,3.328995 13.768623,13.768623 0 0 0 0.06666,0.152446 h 0.40566 c 1.946045,0 3.512964,1.566919 3.512964,3.512964 v 1.687752 a 13.768623,13.768623 0 0 0 0.564307,0.432015 v -2.119767 c 0,-1.946045 1.566918,-3.512964 3.512963,-3.512964 h 1.56838 c 1.946045,0 3.512447,1.566919 3.512447,3.512964 v 2.94814 c 0,0.564137 -0.131481,1.096413 -0.365869,1.567863 h 1.384928 c -0.234387,-0.47145 -0.365869,-1.003726 -0.365869,-1.567863 v -2.94814 c 0,-1.946045 1.566919,-3.512964 3.512964,-3.512964 h 1.567863 c 1.946045,0 3.512964,1.566919 3.512964,3.512964 v 0.800468 A 13.768623,13.768623 0 0 0 39.581047,14.807882 13.768623,13.768623 0 0 0 25.812378,1.0392131 Z M 21.897371,13.42347 a 3.3559058,3.3559058 0 0 1 3.355868,3.355868 3.3559058,3.3559058 0 0 1 -3.355868,3.355867 3.3559058,3.3559058 0 0 1 -3.355867,-3.355867 3.3559058,3.3559058 0 0 1 3.355867,-3.355868 z m 9.246464,0 a 3.3559058,3.3559058 0 0 1 3.356385,3.355868 3.3559058,3.3559058 0 0 1 -3.356385,3.355867 3.3559058,3.3559058 0 0 1 -3.355867,-3.355867 3.3559058,3.3559058 0 0 1 3.355867,-3.355868 z" /><path
         d="m 9.371451,37.158183 v -2.04696 q 0.822731,0.645023 1.385103,0.901715 0.56758,0.256693 1.098709,0.256693 0.536338,0 0.812317,-0.204037 0.275979,-0.210621 0.275979,-0.618696 0,-0.329093 -0.171836,-0.526549 -0.171836,-0.204038 -0.801902,-0.480477 -1.556939,-0.691096 -2.1453474,-1.408518 -0.583202,-0.724006 -0.583202,-1.842923 0,-1.178155 0.7602454,-1.915323 0.765451,-0.737169 1.989133,-0.737169 0.619651,0 1.24451,0.190874 0.624859,0.190874 1.234095,0.559459 v 1.888995 q -0.734208,-0.467312 -1.31741,-0.691096 -0.583201,-0.223783 -1.062259,-0.223783 -0.520716,0 -0.796695,0.190874 -0.270772,0.190874 -0.270772,0.546295 0,0.289602 0.244736,0.546295 0.244737,0.250111 0.739416,0.480475 0.104143,0.05265 0.317637,0.151384 1.04143,0.487058 1.494453,0.835897 0.473851,0.368584 0.71338,0.947789 0.244737,0.579204 0.244737,1.355864 0,1.276881 -0.765452,2.007468 -0.760245,0.730587 -2.114105,0.730587 -0.67693,0 -1.312203,-0.223783 -0.6300659,-0.223783 -1.213267,-0.67135 z"
         style="font-weight:bold;font-size:11.9896px;font-family:'Humanst521 BT';-inkscape-font-specification:'Humanst521 BT Bold';fill:#eb751b;fill-opacity:1;stroke:none;stroke-width:3.68185;stroke-linecap:square;stroke-linejoin:round;stroke-opacity:1;paint-order:fill markers stroke"
         id="path14998" /><path
         d="m 15.90643,37.88877 v -9.20803 h 1.879784 v 9.20803 z"
         style="font-weight:bold;font-size:11.9896px;font-family:'Humanst521 BT';-inkscape-font-specification:'Humanst521 BT Bold';fill:#eb751b;fill-opacity:1;stroke:none;stroke-width:3.68185;stroke-linecap:square;stroke-linejoin:round;stroke-opacity:1;paint-order:fill markers stroke"
         id="path14995" /><path
         d="m 25.89896,36.809344 q -0.666515,0.631859 -1.416345,0.941207 -0.744624,0.302765 -1.635047,0.302765 -0.859181,0 -1.577768,-0.329093 -0.718588,-0.335675 -1.24451,-0.967534 -0.551958,-0.664768 -0.843559,-1.55332 -0.286394,-0.888552 -0.286394,-1.908741 0,-2.152271 1.129953,-3.462062 1.13516,-1.309791 3.004529,-1.309791 0.682137,0 1.348653,0.204038 0.666516,0.204038 1.359067,0.631859 v 2.020633 q -0.723794,-0.467313 -1.379896,-0.697677 -0.656102,-0.230366 -1.228889,-0.230366 -1.103917,0 -1.733982,0.756914 -0.624859,0.756915 -0.624859,2.086452 0,1.296627 0.598823,2.066706 0.598823,0.763496 1.609011,0.763496 0.270772,0 0.536337,-0.0724 0.265565,-0.0724 0.53113,-0.210619 v -1.158406 h -1.004982 v -1.73103 h 2.858728 z"
         style="font-weight:bold;font-size:11.9896px;font-family:'Humanst521 BT';-inkscape-font-specification:'Humanst521 BT Bold';fill:#eb751b;fill-opacity:1;stroke:none;stroke-width:3.68185;stroke-linecap:square;stroke-linejoin:round;stroke-opacity:1;paint-order:fill markers stroke"
         id="path14992" /><path
         d="m 29.913676,32.458731 q 0.505094,0 0.749831,-0.263275 0.249943,-0.269856 0.249943,-0.816151 0,-0.519967 -0.260358,-0.789823 -0.25515,-0.276439 -0.739416,-0.276439 h -0.874802 v 2.145688 z m -2.702513,5.430039 v -9.20803 h 2.692098 q 1.48404,0 2.192213,0.651605 0.708173,0.651604 0.708173,2.020633 0,0.763495 -0.312429,1.309791 -0.31243,0.539712 -0.958117,0.914879 0.270773,0.125055 0.484266,0.421239 0.2187,0.289602 0.380122,0.73717 l 1.161196,3.152713 h -2.056826 l -0.926874,-2.652492 q -0.223908,-0.631859 -0.510301,-0.868806 -0.286394,-0.236948 -0.812317,-0.236948 -0.04165,0 -0.10935,0.0066 -0.0677,0.0066 -0.104143,0.0066 v 3.745081 z"
         style="font-weight:bold;font-size:11.9896px;font-family:'Humanst521 BT';-inkscape-font-specification:'Humanst521 BT Bold';fill:#136c38;fill-opacity:1;stroke-width:3.68185;stroke-linecap:square;stroke-linejoin:round;paint-order:fill markers stroke"
         id="path14989" /><path
         d="m 34.131473,37.88877 v -9.20803 h 1.822504 v 3.692427 h 3.244058 V 28.68074 h 1.822503 v 9.20803 h -1.822503 v -3.731918 h -3.244058 v 3.731918 z"
         style="font-weight:bold;font-size:11.9896px;font-family:'Humanst521 BT';-inkscape-font-specification:'Humanst521 BT Bold';fill:#136c38;fill-opacity:1;stroke-width:3.68185;stroke-linecap:square;stroke-linejoin:round;paint-order:fill markers stroke"
         id="path14986" /></g></g></svg>
