<?xml version="1.0" encoding="UTF-8" standalone="no"?>
<!-- Created with Inkscape (http://www.inkscape.org/) -->

<svg
   width="50mm"
   height="40mm"
   viewBox="0 0 50 40"
   version="1.1"
   id="svg26259"
   xml:space="preserve"
   inkscape:version="1.2.2 (732a01da63, 2022-12-09)"
   sodipodi:docname="tidia.svg"
   xmlns:inkscape="http://www.inkscape.org/namespaces/inkscape"
   xmlns:sodipodi="http://sodipodi.sourceforge.net/DTD/sodipodi-0.dtd"
   xmlns="http://www.w3.org/2000/svg"
   xmlns:svg="http://www.w3.org/2000/svg"><sodipodi:namedview
     id="namedview26261"
     pagecolor="#ffffff"
     bordercolor="#000000"
     borderopacity="0.25"
     inkscape:showpageshadow="2"
     inkscape:pageopacity="0.0"
     inkscape:pagecheckerboard="0"
     inkscape:deskcolor="#d1d1d1"
     inkscape:document-units="mm"
     showgrid="false"
     inkscape:zoom="4.2179991"
     inkscape:cx="53.342828"
     inkscape:cy="95.305853"
     inkscape:window-width="1920"
     inkscape:window-height="1017"
     inkscape:window-x="-8"
     inkscape:window-y="-8"
     inkscape:window-maximized="1"
     inkscape:current-layer="layer1" /><defs
     id="defs26256" /><g
     inkscape:label="Camada 1"
     inkscape:groupmode="layer"
     id="layer1"><g
       id="g29895"
       transform="matrix(1.257259,0,0,1.257259,-5.8359628,-4.9211354)"><path
         id="path29878"
         style="display:inline;opacity:1;fill:#077b9e;stroke-width:0.323001;stroke-linecap:round;stroke-linejoin:round;paint-order:fill markers stroke"
         d="M 7.1509023,9.4718094 H 41.90178 c 1.390035,0 2.509088,1.1190536 2.509088,2.5090886 v 15.681803 c 0,1.390035 -1.119053,2.509088 -2.509088,2.509088 H 7.1509023 c -1.3900351,0 -2.5090885,-1.119053 -2.5090885,-2.509088 V 11.980898 c 0,-1.390035 1.1190534,-2.5090886 2.5090885,-2.5090886 z" /><g
         id="g30055"
         transform="translate(-0.23046662)"><path
           id="path9388"
           style="color:#000000;display:inline;fill:#ffffff;stroke-width:0.329884;stroke-linecap:round;stroke-linejoin:round;-inkscape-stroke:none;paint-order:fill markers stroke"
           d="m 7.3480516,17.938364 c -0.2465358,0.438417 -0.3902434,0.942477 -0.3977432,1.479561 -0.024,1.718667 1.3559612,3.137708 3.0746286,3.161708 1.292114,0.01804 2.414763,-0.757468 2.902668,-1.873835 0.456708,1.129589 1.557731,1.93598 2.849867,1.954023 1.718668,0.024 3.137623,-1.355813 3.161623,-3.074481 0.01098,-0.786465 -0.272531,-1.509725 -0.747442,-2.065736 l -0.3615,0.491463 c 0.330155,0.433508 0.523167,0.976839 0.514941,1.565961 -0.01952,1.397793 -1.161563,2.509072 -2.559356,2.489553 -1.397793,-0.01952 -2.509026,-1.162324 -2.489507,-2.560116 0.0059,-0.425966 0.116689,-0.825024 0.306687,-1.173876 l -0.512434,-0.295855 c -0.04695,0.08464 -0.09027,0.17151 -0.129299,0.260773 -0.06703,-0.165849 -0.148211,-0.324587 -0.241704,-0.474971 l -2.559515,-1.477737 c -0.016,-4.62e-4 -0.03188,-0.0013 -0.04795,-0.0015 -1.1815836,-0.0165 -2.221586,0.630551 -2.7639644,1.595067 z m 2.9460424,-4.967 c -0.246536,0.438508 -0.3901802,0.942709 -0.3976802,1.479793 -0.00823,0.589548 0.1487542,1.143683 0.4279292,1.618478 l 2.672603,1.543028 c 0.133273,7.26e-4 0.264844,-0.0069 0.39392,-0.02256 -0.04555,0.05656 -0.08907,0.114862 -0.13069,0.174538 l 0.51391,0.296706 c 0.465211,-0.643137 1.225609,-1.05635 2.082262,-1.044388 0.179535,0.0025 0.354256,0.0238 0.522528,0.06153 L 16.600494,16.5228 c -0.235728,-0.06093 -0.482071,-0.09562 -0.736028,-0.09917 -0.142383,-0.002 -0.282548,0.0061 -0.420203,0.02274 0.421578,-0.523574 0.678253,-1.185906 0.68834,-1.908222 0.024,-1.718673 -1.355851,-3.138239 -3.074521,-3.162239 -1.181585,-0.0165 -2.221607,0.63073 -2.763988,1.595449 z m -2.4295729,5.254161 c 0.4377622,-0.78118 1.278162,-1.30226 2.2391439,-1.288841 1.397792,0.01952 2.509111,1.162176 2.489592,2.559969 -0.01952,1.397792 -1.162177,2.50911 -2.559969,2.489592 -1.397792,-0.01952 -2.5091106,-1.162176 -2.4895917,-2.559969 0.0061,-0.43681 0.1218421,-0.84567 0.3208248,-1.200751 z m 2.9459579,-4.966853 c 0.437762,-0.78118 1.278308,-1.302175 2.239292,-1.288756 1.397793,0.01952 2.509111,1.162175 2.489592,2.559969 -0.01952,1.397793 -1.162363,2.508413 -2.560156,2.488894 -1.397795,-0.01952 -2.509072,-1.161563 -2.489553,-2.559356 0.0061,-0.436811 0.121842,-0.84567 0.320825,-1.200751 z" /><path
           id="path11362"
           style="color:#000000;display:inline;fill:#ffcc00;fill-opacity:1;stroke-width:0.329884;stroke-linecap:square;stroke-linejoin:round;-inkscape-stroke:none;paint-order:fill markers stroke"
           d="m 8.1327717,15.09881 c 0.4986895,0.701858 0.277463,1.157996 0.277463,1.157996 1.1679484,0.690722 3.0283353,1.758128 4.0277713,2.329766 6.26e-4,0.0016 0.0012,0.0033 0.0018,0.005 0.33659,0.19353 0.604529,0.347234 0.893925,0.513365 0.0517,-0.298186 0.155475,-0.577542 0.301283,-0.829369 -1.852039,-1.069196 -3.8270632,-2.20982 -5.5022864,-3.176746 z"
           sodipodi:nodetypes="ccccccc" /><path
           id="path10752"
           style="color:#000000;fill:#ffcc00;fill-opacity:1;stroke-width:0.368097;stroke-linecap:square;stroke-linejoin:round;-inkscape-stroke:none;paint-order:fill markers stroke"
           d="m 7.4697083,13.467211 c -0.2064925,0.9283 0.5276996,1.326682 0.5276996,1.326682 l -0.00538,0.01136 c 2.0348411,1.204734 3.9569091,2.269363 5.7401231,3.314062 0.177031,-0.263134 0.395029,-0.478202 0.655792,-0.657861 L 14.110393,17.30121 13.530047,16.966148 10.614883,15.283077 9.920565,14.882212 Z"
           sodipodi:nodetypes="cccccccccc" /><path
           d="m 20.993802,17.514419 h 0.702749 v 2.90169 q 0,0.484217 0.04944,0.686577 0.05297,0.202359 0.17304,0.350515 0.218947,0.26379 0.519116,0.393878 0.30017,0.130088 0.681561,0.130088 0.642715,0 1.034701,-0.339675 0.391986,-0.339674 0.391986,-0.896163 v -3.22691 h 0.70275 v 3.248592 q 0,0.845573 -0.589746,1.373153 -0.589744,0.523966 -1.539691,0.523966 -0.561493,0 -1.013513,-0.202359 -0.45202,-0.205973 -0.762784,-0.599852 -0.190695,-0.234881 -0.271918,-0.523965 -0.07769,-0.289085 -0.07769,-0.888937 z"
           style="font-weight:normal;font-size:7.31596px;font-family:'Humanst521 BT';-inkscape-font-specification:'Humanst521 BT';fill:#ffffff;stroke-width:0.279102;stroke-linecap:round;stroke-linejoin:round;paint-order:fill markers stroke"
           id="path29831" /><path
           d="m 26.283844,22.569791 v -5.055372 h 2.810997 v 0.643214 h -2.111779 v 1.496014 h 2.048214 v 0.650441 h -2.048214 v 2.265703 z"
           style="font-weight:normal;font-size:7.31596px;font-family:'Humanst521 BT';-inkscape-font-specification:'Humanst521 BT';fill:#ffffff;stroke-width:0.279102;stroke-linecap:round;stroke-linejoin:round;paint-order:fill markers stroke"
           id="path29828" /><path
           d="m 30.602751,20.430563 h 1.539692 l -0.780441,-1.821235 z m -1.627977,2.139228 2.14003,-5.055372 h 0.515585 l 2.168282,5.055372 H 33.06767 l -0.635652,-1.488787 h -2.104717 l -0.628589,1.488787 z"
           style="font-weight:normal;font-size:7.31596px;font-family:'Humanst521 BT';-inkscape-font-specification:'Humanst521 BT';fill:#ffffff;stroke-width:0.279102;stroke-linecap:round;stroke-linejoin:round;paint-order:fill markers stroke"
           id="path29825" /><path
           d="m 34.868687,20.343838 v 1.568285 h 0.939354 q 0.515585,0 0.752188,-0.184292 0.240136,-0.187904 0.240136,-0.585397 0,-0.411946 -0.268387,-0.603464 -0.264855,-0.195132 -0.836943,-0.195132 z m -0.699218,2.225953 v -5.055372 h 1.444344 q 0.738064,0 1.137113,0.343289 0.40258,0.343288 0.40258,0.975661 0,0.390265 -0.180103,0.650442 -0.180102,0.260175 -0.550898,0.401105 0.540304,0.130088 0.833411,0.473376 0.296637,0.343288 0.296637,0.834733 0,0.628759 -0.452019,1.004569 -0.448488,0.372197 -1.218334,0.372197 z m 0.699218,-2.887235 h 0.47674 q 0.540304,0 0.801628,-0.198745 0.261324,-0.198747 0.261324,-0.607079 0,-0.372197 -0.208353,-0.542034 -0.204821,-0.169837 -0.656841,-0.169837 h -0.674498 z"
           style="font-weight:normal;font-size:7.31596px;font-family:'Humanst521 BT';-inkscape-font-specification:'Humanst521 BT';fill:#ffffff;stroke-width:0.279102;stroke-linecap:round;stroke-linejoin:round;paint-order:fill markers stroke"
           id="path29822" /><path
           d="m 42.563615,21.370089 v 0.816665 q -0.434364,0.231267 -0.886383,0.354129 -0.448488,0.119247 -0.889913,0.119247 -0.423769,0 -0.808692,-0.11202 -0.384923,-0.115634 -0.727469,-0.339675 -0.550899,-0.368583 -0.858131,-0.939526 -0.303701,-0.574556 -0.303701,-1.246678 0,-0.509512 0.20129,-0.986502 0.20129,-0.480604 0.572088,-0.838346 0.395516,-0.383038 0.886381,-0.570943 0.490866,-0.191519 1.087673,-0.191519 0.416705,0 0.826349,0.09757 0.409642,0.09756 0.858131,0.307152 v 0.784143 q -0.469677,-0.260177 -0.882851,-0.383038 -0.413175,-0.126475 -0.801629,-0.126475 -0.865194,0 -1.430218,0.552875 -0.565025,0.549261 -0.565025,1.380381 0,0.820278 0.554431,1.373152 0.557961,0.549262 1.398435,0.549262 0.430831,0 0.872257,-0.148156 0.441426,-0.148156 0.896977,-0.451695 z"
           style="font-weight:normal;font-size:7.31596px;font-family:'Humanst521 BT';-inkscape-font-specification:'Humanst521 BT';fill:#ffffff;stroke-width:0.279102;stroke-linecap:round;stroke-linejoin:round;paint-order:fill markers stroke"
           id="path29819" /><path
           d="m 14.217652,28.173731 v -3.130239 h -1.25965 v -0.468121 h 3.006986 v 0.468121 h -1.259651 v 3.130239 z"
           style="font-size:5.14182px;font-family:'Humanst521 BT';-inkscape-font-specification:'Humanst521 BT';fill:#ffffff;stroke-width:0.196158;stroke-linecap:round;stroke-linejoin:round;paint-order:fill markers stroke"
           id="path29849" /><path
           d="m 17.646155,28.173731 v -3.59836 h 0.490136 v 3.59836 z"
           style="font-size:5.14182px;font-family:'Humanst521 BT';-inkscape-font-specification:'Humanst521 BT';fill:#ffffff;stroke-width:0.196158;stroke-linecap:round;stroke-linejoin:round;paint-order:fill markers stroke"
           id="path29846" /><path
           d="m 21.410402,25.066641 h -0.774415 v 2.618393 h 0.774415 q 0.634727,0 0.997428,-0.349805 0.362701,-0.349805 0.362701,-0.956819 0,-0.609588 -0.362701,-0.959391 -0.362701,-0.352378 -0.997428,-0.352378 z m 0,-0.49127 q 0.379856,0 0.651882,0.07459 0.274476,0.07459 0.502389,0.236632 0.347997,0.246922 0.536699,0.635308 0.191153,0.385814 0.191153,0.851363 0,0.46555 -0.191153,0.856508 -0.191153,0.388386 -0.536699,0.632735 -0.223012,0.162042 -0.499939,0.236633 -0.276927,0.07459 -0.654332,0.07459 h -1.25965 v -3.59836 z"
           style="font-size:5.14182px;font-family:'Humanst521 BT';-inkscape-font-specification:'Humanst521 BT';fill:#ffffff;stroke-width:0.196158;stroke-linecap:round;stroke-linejoin:round;paint-order:fill markers stroke"
           id="path29843" /><path
           d="m 25.150142,28.173731 v -3.59836 h 0.490136 v 3.59836 z"
           style="font-size:5.14182px;font-family:'Humanst521 BT';-inkscape-font-specification:'Humanst521 BT';fill:#ffffff;stroke-width:0.196158;stroke-linecap:round;stroke-linejoin:round;paint-order:fill markers stroke"
           id="path29840" /><path
           d="m 28.30662,26.651052 h 1.068497 l -0.541601,-1.296337 z m -1.129765,1.522679 1.485114,-3.59836 h 0.357799 l 1.504719,3.59836 h -0.507292 l -0.441122,-1.059702 h -1.460606 l -0.436222,1.059702 z"
           style="font-size:5.14182px;font-family:'Humanst521 BT';-inkscape-font-specification:'Humanst521 BT';fill:#ffffff;stroke-width:0.196158;stroke-linecap:round;stroke-linejoin:round;paint-order:fill markers stroke"
           id="path29837" /><path
           d="M 35.702777,28.173731 V 26.972564 H 34.237269 V 26.756508 L 35.965,24.518785 h 0.210758 v 2.02681 h 0.379855 v 0.426969 h -0.379855 v 1.201167 z m 0,-1.628136 0.0147,-1.085423 -0.820978,1.085423 z"
           style="font-size:5.14182px;font-family:'Humanst521 BT';-inkscape-font-specification:'Humanst521 BT';fill:#ffffff;stroke-width:0.196158;stroke-linecap:round;stroke-linejoin:round;paint-order:fill markers stroke"
           id="path29834" /></g></g></g></svg>
