<?xml version="1.0" encoding="UTF-8" standalone="no"?>
<svg
   version="1.1"
   viewBox="9.14 141.8 49.999998 39.999998"
   id="svg16"
   sodipodi:docname="webmail.svg"
   width="50"
   height="40"
   inkscape:version="1.2.2 (732a01da63, 2022-12-09)"
   xmlns:inkscape="http://www.inkscape.org/namespaces/inkscape"
   xmlns:sodipodi="http://sodipodi.sourceforge.net/DTD/sodipodi-0.dtd"
   xmlns="http://www.w3.org/2000/svg"
   xmlns:svg="http://www.w3.org/2000/svg">
  <defs
     id="defs20" />
  <sodipodi:namedview
     id="namedview18"
     pagecolor="#ffffff"
     bordercolor="#000000"
     borderopacity="0.25"
     inkscape:showpageshadow="2"
     inkscape:pageopacity="0.0"
     inkscape:pagecheckerboard="0"
     inkscape:deskcolor="#d1d1d1"
     showgrid="false"
     inkscape:zoom="11.672622"
     inkscape:cx="27.243236"
     inkscape:cy="15.934723"
     inkscape:window-width="1920"
     inkscape:window-height="1017"
     inkscape:window-x="-8"
     inkscape:window-y="-8"
     inkscape:window-maximized="1"
     inkscape:current-layer="svg16" />
  <style
     type="text/css"
     id="style2">
.st0{fill-rule:evenodd;clip-rule:evenodd;fill:#404F54;}
.st1{fill-rule:evenodd;clip-rule:evenodd;fill:#E5E5E5;}
.st2{fill-rule:evenodd;clip-rule:evenodd;fill:#CCCCCC;}
.st3{fill-rule:evenodd;clip-rule:evenodd;fill:#37BEFF;}
</style>
  <g
     id="g255"
     transform="translate(9.999999,4.999998)">
    <polygon
       class="st3"
       points="295.96,384.1 295.96,207.27 582.79,372.95 582.79,549.77 "
       id="polygon4"
       transform="matrix(0.0522967,0,0,0.0522967,8.6620082,134.38433)" />
    <polygon
       class="st0"
       points="295.96,384.1 295.96,207.27 9.14,372.95 9.14,549.77 "
       id="polygon6"
       transform="matrix(0.0522967,0,0,0.0522967,8.6620082,134.38433)" />
    <path
       class="st2"
       d="m 24.139739,141.8 c 5.729626,0 10.376187,4.64656 10.376187,10.37619 0,5.72962 -4.646561,10.37619 -10.376187,10.37619 -5.729627,0 -10.376188,-4.64657 -10.376188,-10.37619 0,-5.72963 4.646561,-10.37619 10.376188,-10.37619"
       id="path8"
       style="stroke-width:0.0522967" />
    <path
       class="st1"
       d="m 24.139739,141.8 c 5.731717,0 10.379848,4.64656 10.379848,10.37619 0,5.72962 -4.648131,10.37619 -10.379848,10.37619 -3.289986,-2.21425 -4.651269,-6.67516 -4.651269,-10.37044 0,-3.69528 1.361283,-8.16351 4.651269,-10.38194"
       id="path10"
       style="stroke-width:0.0522967" />
    <polygon
       class="st3"
       points="295.96,538.62 295.96,715.45 582.79,549.77 582.79,372.95 "
       id="polygon12"
       transform="matrix(0.0522967,0,0,0.0522967,8.6620082,134.38433)" />
    <polygon
       class="st0"
       points="295.96,538.62 295.96,715.45 9.14,549.77 9.14,372.95 "
       id="polygon14"
       transform="matrix(0.0522967,0,0,0.0522967,8.6620082,134.38433)" />
  </g>
</svg>
