<?xml version="1.0" encoding="UTF-8" standalone="no"?>
<!-- Uploaded to: SVG Repo, www.svgrepo.com, Generator: SVG Repo Mixer Tools -->

<svg
   aria-label="Wekan"
   role="img"
   viewBox="0 0 50 40"
   version="1.1"
   id="svg282"
   sodipodi:docname="wekan.svg"
   width="50"
   height="40"
   inkscape:version="1.2.2 (732a01da63, 2022-12-09)"
   xmlns:inkscape="http://www.inkscape.org/namespaces/inkscape"
   xmlns:sodipodi="http://sodipodi.sourceforge.net/DTD/sodipodi-0.dtd"
   xmlns="http://www.w3.org/2000/svg"
   xmlns:svg="http://www.w3.org/2000/svg">
  <defs
     id="defs286" />
  <sodipodi:namedview
     id="namedview284"
     pagecolor="#ffffff"
     bordercolor="#000000"
     borderopacity="0.25"
     inkscape:showpageshadow="2"
     inkscape:pageopacity="0.0"
     inkscape:pagecheckerboard="0"
     inkscape:deskcolor="#d1d1d1"
     showgrid="false"
     inkscape:zoom="13.078125"
     inkscape:cx="23.62724"
     inkscape:cy="26.303465"
     inkscape:window-width="1920"
     inkscape:window-height="1017"
     inkscape:window-x="-8"
     inkscape:window-y="-8"
     inkscape:window-maximized="1"
     inkscape:current-layer="svg282" />
  <g
     id="g407"
     transform="translate(10,5)">
    <rect
       width="30"
       height="30"
       rx="0.87890625%"
       fill="#006984"
       id="rect278"
       x="0"
       y="0"
       style="stroke-width:0.0585938" />
    <path
       fill="#ffffff"
       d="m 27.114424,19.439217 c 0,0 0.404093,-0.56573 0.48491,-0.889004 l 0.08081,-0.242455 -0.484909,0.08081 c -0.08081,0.08081 -0.404093,1.05064 -1.535552,2.101279 -0.646547,0.56573 -1.373912,0.727366 -2.020459,0.646547 -0.484911,0 -0.808185,-0.323274 -1.05064,-0.889002 -0.161638,-0.565729 -0.242455,-1.212276 -0.08081,-2.020461 0.323273,-1.53555 0.727366,-2.343734 1.293095,-2.343734 0.646547,0.565729 -0.242455,2.828645 -0.969822,3.394374 l -0.242455,0.242454 h 0.323274 c 0.808184,-0.242454 1.454731,-0.484909 2.101279,-0.889002 0.56573,-0.404092 0.969821,-0.808183 1.131458,-1.212276 0.08081,-0.484911 -0.08081,-0.889002 -0.484911,-1.212276 -0.404091,-0.323274 -0.969821,-0.484911 -1.616369,-0.565729 -0.646547,0 -1.293094,0.08081 -1.858823,0.404091 0.808185,-1.535549 1.697187,-3.071099 2.182097,-4.606649 0.404093,-1.37391 0.323274,-2.4245503 -0.404091,-3.0710977 -0.242456,-0.2424497 -0.56573,-0.4040865 -1.05064,-0.484905 -0.969821,-0.2424552 -1.939642,-0.5657289 -1.212276,0.4849106 0.161636,0.1616375 0.242455,0.4040924 0.242455,0.5657286 0.404093,2.5053725 -0.565729,4.5258315 -1.454732,6.3846565 -0.889003,1.778005 -2.101279,4.364195 -3.798466,5.334016 l -0.08081,-0.242455 c -0.08081,-0.404093 0,-0.727366 0.08081,-1.131459 l 0.56573,-3.071099 0.646547,-2.990283 0.242455,-1.212276 c 0.08081,-0.323273 0,-0.484911 -0.08081,-0.646547 l -1.373913,-0.808185 c -0.646548,-0.404091 -0.646548,-0.404091 -0.889003,0.242456 l -0.889002,2.505371 a 54.95653,54.95653 0 0 1 -2.909464,6.223018 c -0.484919,0.808185 -0.88901,1.212277 -1.212285,1.212277 -0.323273,-0.242456 -0.161637,-0.727366 -0.08082,-0.969821 0.08082,-0.969821 0.404093,-2.020461 0.565729,-2.828646 l 0.727366,-2.586188 0.565729,-2.182098 0.484911,-1.53555 c 0,-0.242455 -0.161638,-0.48491 -0.404093,-0.6465476 L 11.43565,9.2560942 C 11.031558,9.0136393 10.86992,9.094458 10.465829,9.1752809 A 37.095657,37.095657 0 0 0 4.3236281,12.165562 c -0.8890028,0.646547 -1.4547317,1.131458 -1.697187,1.616368 -0.3232736,0.646548 -0.2424552,1.212278 0.080819,1.778006 0.1616368,0.323274 0.404092,0.646548 0.7273657,0.889003 1.2122765,0.808183 0.8081843,0.323273 0.9698211,-0.646548 0,-0.323273 0.1616369,-0.646547 0.3232737,-0.969821 0.404092,-0.646551 1.0506394,-1.454735 2.1820973,-2.343739 1.131458,-0.808183 2.3437345,-1.53555 3.6368293,-2.101278 l -0.7273659,2.909463 -0.7273658,3.0711 c -0.2424553,1.131458 -0.6465474,2.182097 -0.6465474,3.313556 0.1616369,0.969821 0.9698211,1.697187 1.9396421,1.697187 0.646548,0 1.212277,-0.404093 1.778005,-1.212278 a 38.873663,38.873663 0 0 0 2.909463,-6.303836 l -0.484909,2.586189 -0.323274,2.262916 c -0.08081,0.646548 0,1.293095 0.323274,1.778005 0.404092,0.56573 1.050639,0.808185 1.697187,0.889004 0.646547,0 1.454731,-0.56573 2.58619,-1.616369 l 0.727364,-0.889003 c 0,0.808185 0.242455,1.373913 0.808185,1.858824 0.727365,0.48491 1.53555,0.808184 2.505371,0.808184 1.53555,-0.08081 3.394373,-0.889002 4.202558,-2.101278 z"
       id="path280"
       style="stroke-width:0.0808185" />
  </g>
</svg>
